G04 #@! TF.GenerationSoftware,KiCad,Pcbnew,(5.0.2)-1*
G04 #@! TF.CreationDate,2019-12-29T11:54:00+01:00*
G04 #@! TF.ProjectId,LoRaAPRS-GW-RPI_V20,4c6f5261-4150-4525-932d-47572d525049,rev?*
G04 #@! TF.SameCoordinates,Original*
G04 #@! TF.FileFunction,Copper,L1,Top*
G04 #@! TF.FilePolarity,Positive*
%FSLAX46Y46*%
G04 Gerber Fmt 4.6, Leading zero omitted, Abs format (unit mm)*
G04 Created by KiCad (PCBNEW (5.0.2)-1) date 29.12.2019 11:54:00*
%MOMM*%
%LPD*%
G01*
G04 APERTURE LIST*
G04 #@! TA.AperFunction,ComponentPad*
%ADD10C,2.050000*%
G04 #@! TD*
G04 #@! TA.AperFunction,ComponentPad*
%ADD11C,2.250000*%
G04 #@! TD*
G04 #@! TA.AperFunction,ComponentPad*
%ADD12C,2.000000*%
G04 #@! TD*
G04 #@! TA.AperFunction,ComponentPad*
%ADD13R,1.700000X1.700000*%
G04 #@! TD*
G04 #@! TA.AperFunction,ComponentPad*
%ADD14O,1.700000X1.700000*%
G04 #@! TD*
G04 #@! TA.AperFunction,SMDPad,CuDef*
%ADD15R,1.500000X1.000000*%
G04 #@! TD*
G04 #@! TA.AperFunction,ComponentPad*
%ADD16C,1.600000*%
G04 #@! TD*
G04 #@! TA.AperFunction,ComponentPad*
%ADD17O,1.600000X1.600000*%
G04 #@! TD*
G04 #@! TA.AperFunction,ViaPad*
%ADD18C,0.800000*%
G04 #@! TD*
G04 #@! TA.AperFunction,Conductor*
%ADD19C,0.750000*%
G04 #@! TD*
G04 #@! TA.AperFunction,Conductor*
%ADD20C,0.250000*%
G04 #@! TD*
G04 #@! TA.AperFunction,Conductor*
%ADD21C,0.500000*%
G04 #@! TD*
G04 #@! TA.AperFunction,Conductor*
%ADD22C,0.254000*%
G04 #@! TD*
G04 APERTURE END LIST*
D10*
G04 #@! TO.P,AE1,1*
G04 #@! TO.N,Net-(AE1-Pad1)*
X95950000Y-96291000D03*
D11*
G04 #@! TO.P,AE1,2*
G04 #@! TO.N,GND*
X98490000Y-93751000D03*
X93410000Y-93751000D03*
X93410000Y-98831000D03*
X98490000Y-98831000D03*
G04 #@! TD*
D12*
G04 #@! TO.P,SW4,1*
G04 #@! TO.N,+3V3*
X122950000Y-117691000D03*
G04 #@! TO.P,SW4,2*
G04 #@! TO.N,DOWN*
X127450000Y-117691000D03*
G04 #@! TO.P,SW4,1*
G04 #@! TO.N,+3V3*
X122950000Y-124191000D03*
G04 #@! TO.P,SW4,2*
G04 #@! TO.N,DOWN*
X127450000Y-124191000D03*
G04 #@! TD*
D13*
G04 #@! TO.P,J1,1*
G04 #@! TO.N,+3V3*
X130687680Y-99573080D03*
D14*
G04 #@! TO.P,J1,2*
G04 #@! TO.N,N/C*
X133227680Y-99573080D03*
G04 #@! TO.P,J1,3*
G04 #@! TO.N,SDA*
X130687680Y-102113080D03*
G04 #@! TO.P,J1,4*
G04 #@! TO.N,N/C*
X133227680Y-102113080D03*
G04 #@! TO.P,J1,5*
G04 #@! TO.N,SCL*
X130687680Y-104653080D03*
G04 #@! TO.P,J1,6*
G04 #@! TO.N,GND*
X133227680Y-104653080D03*
G04 #@! TO.P,J1,7*
G04 #@! TO.N,N/C*
X130687680Y-107193080D03*
G04 #@! TO.P,J1,8*
X133227680Y-107193080D03*
G04 #@! TO.P,J1,9*
G04 #@! TO.N,GND*
X130687680Y-109733080D03*
G04 #@! TO.P,J1,10*
G04 #@! TO.N,N/C*
X133227680Y-109733080D03*
G04 #@! TO.P,J1,11*
X130687680Y-112273080D03*
G04 #@! TO.P,J1,12*
X133227680Y-112273080D03*
G04 #@! TO.P,J1,13*
X130687680Y-114813080D03*
G04 #@! TO.P,J1,14*
G04 #@! TO.N,GND*
X133227680Y-114813080D03*
G04 #@! TO.P,J1,15*
G04 #@! TO.N,N/C*
X130687680Y-117353080D03*
G04 #@! TO.P,J1,16*
X133227680Y-117353080D03*
G04 #@! TO.P,J1,17*
X130687680Y-119893080D03*
G04 #@! TO.P,J1,18*
X133227680Y-119893080D03*
G04 #@! TO.P,J1,19*
G04 #@! TO.N,MOSI*
X130687680Y-122433080D03*
G04 #@! TO.P,J1,20*
G04 #@! TO.N,GND*
X133227680Y-122433080D03*
G04 #@! TO.P,J1,21*
G04 #@! TO.N,MISO*
X130687680Y-124973080D03*
G04 #@! TO.P,J1,22*
G04 #@! TO.N,N/C*
X133227680Y-124973080D03*
G04 #@! TO.P,J1,23*
G04 #@! TO.N,SCK*
X130687680Y-127513080D03*
G04 #@! TO.P,J1,24*
G04 #@! TO.N,NSS*
X133227680Y-127513080D03*
G04 #@! TO.P,J1,25*
G04 #@! TO.N,GND*
X130687680Y-130053080D03*
G04 #@! TO.P,J1,26*
G04 #@! TO.N,N/C*
X133227680Y-130053080D03*
G04 #@! TO.P,J1,27*
X130687680Y-132593080D03*
G04 #@! TO.P,J1,28*
X133227680Y-132593080D03*
G04 #@! TO.P,J1,29*
G04 #@! TO.N,DIO0*
X130687680Y-135133080D03*
G04 #@! TO.P,J1,30*
G04 #@! TO.N,GND*
X133227680Y-135133080D03*
G04 #@! TO.P,J1,31*
G04 #@! TO.N,Reset*
X130687680Y-137673080D03*
G04 #@! TO.P,J1,32*
G04 #@! TO.N,N/C*
X133227680Y-137673080D03*
G04 #@! TO.P,J1,33*
X130687680Y-140213080D03*
G04 #@! TO.P,J1,34*
G04 #@! TO.N,GND*
X133227680Y-140213080D03*
G04 #@! TO.P,J1,35*
G04 #@! TO.N,UP*
X130687680Y-142753080D03*
G04 #@! TO.P,J1,36*
G04 #@! TO.N,T1*
X133227680Y-142753080D03*
G04 #@! TO.P,J1,37*
G04 #@! TO.N,DOWN*
X130687680Y-145293080D03*
G04 #@! TO.P,J1,38*
G04 #@! TO.N,T2*
X133227680Y-145293080D03*
G04 #@! TO.P,J1,39*
G04 #@! TO.N,GND*
X130687680Y-147833080D03*
G04 #@! TO.P,J1,40*
G04 #@! TO.N,T3*
X133227680Y-147833080D03*
G04 #@! TD*
G04 #@! TO.P,J3,4*
G04 #@! TO.N,SDA*
X83450000Y-137691000D03*
G04 #@! TO.P,J3,3*
G04 #@! TO.N,SCL*
X83450000Y-135151000D03*
G04 #@! TO.P,J3,2*
G04 #@! TO.N,GND*
X83450000Y-132611000D03*
D13*
G04 #@! TO.P,J3,1*
G04 #@! TO.N,+3V3*
X83450000Y-130071000D03*
G04 #@! TD*
D15*
G04 #@! TO.P,JP1,3*
G04 #@! TO.N,+3V3*
X118849669Y-95641882D03*
G04 #@! TO.P,JP1,2*
G04 #@! TO.N,D1*
X118849669Y-96941882D03*
G04 #@! TO.P,JP1,1*
G04 #@! TO.N,GND*
X118849669Y-98241882D03*
G04 #@! TD*
G04 #@! TO.P,JP2,1*
G04 #@! TO.N,+3V3*
X121599669Y-95641882D03*
G04 #@! TO.P,JP2,2*
G04 #@! TO.N,D2*
X121599669Y-96941882D03*
G04 #@! TO.P,JP2,3*
G04 #@! TO.N,GND*
X121599669Y-98241882D03*
G04 #@! TD*
D12*
G04 #@! TO.P,SW2,2*
G04 #@! TO.N,T2*
X104160000Y-137691000D03*
G04 #@! TO.P,SW2,1*
G04 #@! TO.N,+3V3*
X104160000Y-133191000D03*
G04 #@! TO.P,SW2,2*
G04 #@! TO.N,T2*
X110660000Y-137691000D03*
G04 #@! TO.P,SW2,1*
G04 #@! TO.N,+3V3*
X110660000Y-133191000D03*
G04 #@! TD*
G04 #@! TO.P,SW5,2*
G04 #@! TO.N,UP*
X127450000Y-114291000D03*
G04 #@! TO.P,SW5,1*
G04 #@! TO.N,+3V3*
X122950000Y-114291000D03*
G04 #@! TO.P,SW5,2*
G04 #@! TO.N,UP*
X127450000Y-107791000D03*
G04 #@! TO.P,SW5,1*
G04 #@! TO.N,+3V3*
X122950000Y-107791000D03*
G04 #@! TD*
D16*
G04 #@! TO.P,R2,1*
G04 #@! TO.N,T2*
X103950000Y-140941000D03*
D17*
G04 #@! TO.P,R2,2*
G04 #@! TO.N,GND*
X103950000Y-148561000D03*
G04 #@! TD*
G04 #@! TO.P,R4,2*
G04 #@! TO.N,GND*
X110950000Y-148561000D03*
D16*
G04 #@! TO.P,R4,1*
G04 #@! TO.N,DOWN*
X110950000Y-140941000D03*
G04 #@! TD*
G04 #@! TO.P,R5,1*
G04 #@! TO.N,UP*
X114450000Y-140941000D03*
D17*
G04 #@! TO.P,R5,2*
G04 #@! TO.N,GND*
X114450000Y-148561000D03*
G04 #@! TD*
G04 #@! TO.P,R1,2*
G04 #@! TO.N,GND*
X100450000Y-148561000D03*
D16*
G04 #@! TO.P,R1,1*
G04 #@! TO.N,T1*
X100450000Y-140941000D03*
G04 #@! TD*
G04 #@! TO.P,R3,1*
G04 #@! TO.N,T3*
X107450000Y-140941000D03*
D17*
G04 #@! TO.P,R3,2*
G04 #@! TO.N,GND*
X107450000Y-148561000D03*
G04 #@! TD*
D12*
G04 #@! TO.P,SW1,1*
G04 #@! TO.N,+3V3*
X100450000Y-133191000D03*
G04 #@! TO.P,SW1,2*
G04 #@! TO.N,T1*
X100450000Y-137691000D03*
G04 #@! TO.P,SW1,1*
G04 #@! TO.N,+3V3*
X93950000Y-133191000D03*
G04 #@! TO.P,SW1,2*
G04 #@! TO.N,T1*
X93950000Y-137691000D03*
G04 #@! TD*
G04 #@! TO.P,SW3,2*
G04 #@! TO.N,T3*
X114450000Y-137691000D03*
G04 #@! TO.P,SW3,1*
G04 #@! TO.N,+3V3*
X114450000Y-133191000D03*
G04 #@! TO.P,SW3,2*
G04 #@! TO.N,T3*
X120950000Y-137691000D03*
G04 #@! TO.P,SW3,1*
G04 #@! TO.N,+3V3*
X120950000Y-133191000D03*
G04 #@! TD*
G04 #@! TO.P,J2,6*
G04 #@! TO.N,N/C*
X118950000Y-128312857D03*
G04 #@! TO.P,J2,5*
X95950000Y-128312857D03*
D14*
G04 #@! TO.P,J2,4*
G04 #@! TO.N,SDA*
X111260000Y-104812857D03*
G04 #@! TO.P,J2,3*
G04 #@! TO.N,SCL*
X108720000Y-104812857D03*
G04 #@! TO.P,J2,2*
G04 #@! TO.N,D2*
X106180000Y-104812857D03*
D13*
G04 #@! TO.P,J2,1*
G04 #@! TO.N,D1*
X103640000Y-104812857D03*
G04 #@! TD*
D16*
G04 #@! TO.P,R6,1*
G04 #@! TO.N,+3V3*
X87450000Y-148561000D03*
D17*
G04 #@! TO.P,R6,2*
G04 #@! TO.N,SDA*
X87450000Y-140941000D03*
G04 #@! TD*
G04 #@! TO.P,R7,2*
G04 #@! TO.N,SCL*
X90950000Y-140941000D03*
D16*
G04 #@! TO.P,R7,1*
G04 #@! TO.N,+3V3*
X90950000Y-148561000D03*
G04 #@! TD*
D18*
G04 #@! TO.N,GND*
X104880000Y-102227000D03*
X113262000Y-105021000D03*
X110950000Y-142973000D03*
X109990000Y-106336857D03*
G04 #@! TO.N,DIO0*
X114855600Y-128066000D03*
G04 #@! TO.N,Reset*
X101450000Y-128041000D03*
G04 #@! TO.N,MOSI*
X87687680Y-120013080D03*
G04 #@! TO.N,MISO*
X85705600Y-121941000D03*
G04 #@! TO.N,SCK*
X89699669Y-125641882D03*
G04 #@! TO.N,NSS*
X91687680Y-123763080D03*
G04 #@! TO.N,T2*
X128270000Y-141491000D03*
G04 #@! TO.N,UP*
X124470000Y-142753080D03*
G04 #@! TD*
D19*
G04 #@! TO.N,GND*
X118849669Y-98241882D02*
X120225000Y-98241882D01*
X120225000Y-98241882D02*
X121599669Y-98241882D01*
D20*
X120225000Y-98241882D02*
X120225000Y-99191000D01*
D21*
G04 #@! TO.N,+3V3*
X130687680Y-99573080D02*
X127700000Y-99573080D01*
X127700000Y-104305400D02*
X127700000Y-99573080D01*
X124035787Y-105291000D02*
X126714400Y-105291000D01*
X122950000Y-106376787D02*
X124035787Y-105291000D01*
X122950000Y-107791000D02*
X122950000Y-106376787D01*
X126714400Y-105291000D02*
X127700000Y-104305400D01*
X126157669Y-95641882D02*
X121599669Y-95641882D01*
X127700000Y-99573080D02*
X127700000Y-97184213D01*
X127700000Y-97184213D02*
X126157669Y-95641882D01*
D19*
X118849669Y-95641882D02*
X121599669Y-95641882D01*
D20*
G04 #@! TO.N,SDA*
X85229338Y-137691000D02*
X83450000Y-137691000D01*
X88213669Y-134706669D02*
X85229338Y-137691000D01*
X111260000Y-107841000D02*
X101910000Y-117191000D01*
X88213669Y-127722669D02*
X88213669Y-134706669D01*
X111260000Y-104812857D02*
X111260000Y-107841000D01*
X101910000Y-117191000D02*
X86910000Y-117191000D01*
X86910000Y-117191000D02*
X83681669Y-120419331D01*
X83681669Y-120419331D02*
X83681669Y-123190669D01*
X83681669Y-123190669D02*
X88213669Y-127722669D01*
G04 #@! TO.N,SCL*
X108720000Y-107381000D02*
X108720000Y-104812857D01*
X85910000Y-115191000D02*
X100910000Y-115191000D01*
X84769338Y-135151000D02*
X86181669Y-133738669D01*
X100910000Y-115191000D02*
X108720000Y-107381000D01*
X83450000Y-135151000D02*
X84769338Y-135151000D01*
X86181669Y-133738669D02*
X86181669Y-128738669D01*
X86181669Y-128738669D02*
X81640000Y-124197000D01*
X81640000Y-124197000D02*
X81640000Y-119461000D01*
X81640000Y-119461000D02*
X85910000Y-115191000D01*
G04 #@! TO.N,DIO0*
X117980600Y-131191000D02*
X114855600Y-128066000D01*
X124205600Y-131191000D02*
X117980600Y-131191000D01*
X130687680Y-135133080D02*
X128147680Y-135133080D01*
X128147680Y-135133080D02*
X124205600Y-131191000D01*
G04 #@! TO.N,Reset*
X111705600Y-128041000D02*
X111705600Y-128041000D01*
X111705600Y-128041000D02*
X101450000Y-128041000D01*
X119705600Y-136041000D02*
X111705600Y-128041000D01*
X124555600Y-136041000D02*
X119705600Y-136041000D01*
X130687680Y-137673080D02*
X126187680Y-137673080D01*
X126187680Y-137673080D02*
X124555600Y-136041000D01*
D21*
G04 #@! TO.N,D1*
X103640000Y-99986857D02*
X103640000Y-104812857D01*
X105035857Y-98591000D02*
X103640000Y-99986857D01*
X115676551Y-98591000D02*
X105035857Y-98591000D01*
X118849669Y-96941882D02*
X117325669Y-96941882D01*
X117325669Y-96941882D02*
X115676551Y-98591000D01*
G04 #@! TO.N,D2*
X106180000Y-101510857D02*
X106180000Y-104812857D01*
X123150882Y-96941882D02*
X123900000Y-97691000D01*
X121599669Y-96941882D02*
X123150882Y-96941882D01*
X123900000Y-97691000D02*
X123900000Y-99941000D01*
X123900000Y-99941000D02*
X122650000Y-101191000D01*
X122650000Y-101191000D02*
X106499857Y-101191000D01*
X106499857Y-101191000D02*
X106180000Y-101510857D01*
D20*
G04 #@! TO.N,MOSI*
X128267680Y-120013080D02*
X87687680Y-120013080D01*
X130687680Y-122433080D02*
X128267680Y-120013080D01*
X87687680Y-120013080D02*
X87687680Y-120013080D01*
G04 #@! TO.N,MISO*
X127655600Y-121941000D02*
X85705600Y-121941000D01*
X130687680Y-124973080D02*
X127655600Y-121941000D01*
G04 #@! TO.N,SCK*
X129687680Y-127513080D02*
X130687680Y-127513080D01*
X129027680Y-128173080D02*
X129687680Y-127513080D01*
X122082080Y-128173080D02*
X129027680Y-128173080D01*
X89699669Y-125641882D02*
X119550882Y-125641882D01*
X119550882Y-125641882D02*
X122082080Y-128173080D01*
G04 #@! TO.N,NSS*
X131947680Y-126233080D02*
X133227680Y-127513080D01*
X122342080Y-126233080D02*
X131947680Y-126233080D01*
X91687680Y-123763080D02*
X119872080Y-123763080D01*
X119872080Y-123763080D02*
X122342080Y-126233080D01*
G04 #@! TO.N,T2*
X111659999Y-138690999D02*
X110660000Y-137691000D01*
X112460000Y-139491000D02*
X111659999Y-138690999D01*
X118005600Y-139491000D02*
X112460000Y-139491000D01*
X118867680Y-140353080D02*
X118005600Y-139491000D01*
X128270000Y-141491000D02*
X127132080Y-140353080D01*
X127132080Y-140353080D02*
X118867680Y-140353080D01*
G04 #@! TO.N,T1*
X93950000Y-137691000D02*
X100450000Y-137691000D01*
X100450000Y-143731000D02*
X100450000Y-140941000D01*
X101470000Y-144751000D02*
X100450000Y-143731000D01*
X128272080Y-144751000D02*
X101470000Y-144751000D01*
X129012080Y-144011000D02*
X128272080Y-144751000D01*
X133227680Y-142753080D02*
X131969760Y-144011000D01*
X131969760Y-144011000D02*
X129012080Y-144011000D01*
G04 #@! TO.N,UP*
X130687680Y-142753080D02*
X124470000Y-142753080D01*
G04 #@! TD*
D22*
G04 #@! TO.N,GND*
G36*
X135215001Y-155456000D02*
X80185000Y-155456000D01*
X80185000Y-152296159D01*
X80917800Y-152296159D01*
X80917800Y-153085841D01*
X81219999Y-153815412D01*
X81778388Y-154373801D01*
X82507959Y-154676000D01*
X83297641Y-154676000D01*
X84027212Y-154373801D01*
X84585601Y-153815412D01*
X84887800Y-153085841D01*
X84887800Y-152296159D01*
X106924000Y-152296159D01*
X106924000Y-153085841D01*
X107226199Y-153815412D01*
X107784588Y-154373801D01*
X108514159Y-154676000D01*
X109303841Y-154676000D01*
X110033412Y-154373801D01*
X110591801Y-153815412D01*
X110894000Y-153085841D01*
X110894000Y-152296159D01*
X129965000Y-152296159D01*
X129965000Y-153085841D01*
X130267199Y-153815412D01*
X130825588Y-154373801D01*
X131555159Y-154676000D01*
X132344841Y-154676000D01*
X133074412Y-154373801D01*
X133632801Y-153815412D01*
X133935000Y-153085841D01*
X133935000Y-152296159D01*
X133632801Y-151566588D01*
X133074412Y-151008199D01*
X132344841Y-150706000D01*
X131555159Y-150706000D01*
X130825588Y-151008199D01*
X130267199Y-151566588D01*
X129965000Y-152296159D01*
X110894000Y-152296159D01*
X110591801Y-151566588D01*
X110033412Y-151008199D01*
X109303841Y-150706000D01*
X108514159Y-150706000D01*
X107784588Y-151008199D01*
X107226199Y-151566588D01*
X106924000Y-152296159D01*
X84887800Y-152296159D01*
X84585601Y-151566588D01*
X84027212Y-151008199D01*
X83297641Y-150706000D01*
X82507959Y-150706000D01*
X81778388Y-151008199D01*
X81219999Y-151566588D01*
X80917800Y-152296159D01*
X80185000Y-152296159D01*
X80185000Y-148275561D01*
X86015000Y-148275561D01*
X86015000Y-148846439D01*
X86233466Y-149373862D01*
X86637138Y-149777534D01*
X87164561Y-149996000D01*
X87735439Y-149996000D01*
X88262862Y-149777534D01*
X88666534Y-149373862D01*
X88885000Y-148846439D01*
X88885000Y-148275561D01*
X89515000Y-148275561D01*
X89515000Y-148846439D01*
X89733466Y-149373862D01*
X90137138Y-149777534D01*
X90664561Y-149996000D01*
X91235439Y-149996000D01*
X91762862Y-149777534D01*
X92166534Y-149373862D01*
X92358655Y-148910041D01*
X99058086Y-148910041D01*
X99297611Y-149416134D01*
X99712577Y-149792041D01*
X100100961Y-149952904D01*
X100323000Y-149830915D01*
X100323000Y-148688000D01*
X100577000Y-148688000D01*
X100577000Y-149830915D01*
X100799039Y-149952904D01*
X101187423Y-149792041D01*
X101602389Y-149416134D01*
X101841914Y-148910041D01*
X102558086Y-148910041D01*
X102797611Y-149416134D01*
X103212577Y-149792041D01*
X103600961Y-149952904D01*
X103823000Y-149830915D01*
X103823000Y-148688000D01*
X104077000Y-148688000D01*
X104077000Y-149830915D01*
X104299039Y-149952904D01*
X104687423Y-149792041D01*
X105102389Y-149416134D01*
X105341914Y-148910041D01*
X106058086Y-148910041D01*
X106297611Y-149416134D01*
X106712577Y-149792041D01*
X107100961Y-149952904D01*
X107323000Y-149830915D01*
X107323000Y-148688000D01*
X107577000Y-148688000D01*
X107577000Y-149830915D01*
X107799039Y-149952904D01*
X108187423Y-149792041D01*
X108602389Y-149416134D01*
X108841914Y-148910041D01*
X109558086Y-148910041D01*
X109797611Y-149416134D01*
X110212577Y-149792041D01*
X110600961Y-149952904D01*
X110823000Y-149830915D01*
X110823000Y-148688000D01*
X111077000Y-148688000D01*
X111077000Y-149830915D01*
X111299039Y-149952904D01*
X111687423Y-149792041D01*
X112102389Y-149416134D01*
X112341914Y-148910041D01*
X113058086Y-148910041D01*
X113297611Y-149416134D01*
X113712577Y-149792041D01*
X114100961Y-149952904D01*
X114323000Y-149830915D01*
X114323000Y-148688000D01*
X114577000Y-148688000D01*
X114577000Y-149830915D01*
X114799039Y-149952904D01*
X115187423Y-149792041D01*
X115602389Y-149416134D01*
X115841914Y-148910041D01*
X115720629Y-148688000D01*
X114577000Y-148688000D01*
X114323000Y-148688000D01*
X113179371Y-148688000D01*
X113058086Y-148910041D01*
X112341914Y-148910041D01*
X112220629Y-148688000D01*
X111077000Y-148688000D01*
X110823000Y-148688000D01*
X109679371Y-148688000D01*
X109558086Y-148910041D01*
X108841914Y-148910041D01*
X108720629Y-148688000D01*
X107577000Y-148688000D01*
X107323000Y-148688000D01*
X106179371Y-148688000D01*
X106058086Y-148910041D01*
X105341914Y-148910041D01*
X105220629Y-148688000D01*
X104077000Y-148688000D01*
X103823000Y-148688000D01*
X102679371Y-148688000D01*
X102558086Y-148910041D01*
X101841914Y-148910041D01*
X101720629Y-148688000D01*
X100577000Y-148688000D01*
X100323000Y-148688000D01*
X99179371Y-148688000D01*
X99058086Y-148910041D01*
X92358655Y-148910041D01*
X92385000Y-148846439D01*
X92385000Y-148275561D01*
X92358656Y-148211959D01*
X99058086Y-148211959D01*
X99179371Y-148434000D01*
X100323000Y-148434000D01*
X100323000Y-147291085D01*
X100577000Y-147291085D01*
X100577000Y-148434000D01*
X101720629Y-148434000D01*
X101841914Y-148211959D01*
X102558086Y-148211959D01*
X102679371Y-148434000D01*
X103823000Y-148434000D01*
X103823000Y-147291085D01*
X104077000Y-147291085D01*
X104077000Y-148434000D01*
X105220629Y-148434000D01*
X105341914Y-148211959D01*
X106058086Y-148211959D01*
X106179371Y-148434000D01*
X107323000Y-148434000D01*
X107323000Y-147291085D01*
X107577000Y-147291085D01*
X107577000Y-148434000D01*
X108720629Y-148434000D01*
X108841914Y-148211959D01*
X109558086Y-148211959D01*
X109679371Y-148434000D01*
X110823000Y-148434000D01*
X110823000Y-147291085D01*
X111077000Y-147291085D01*
X111077000Y-148434000D01*
X112220629Y-148434000D01*
X112341914Y-148211959D01*
X113058086Y-148211959D01*
X113179371Y-148434000D01*
X114323000Y-148434000D01*
X114323000Y-147291085D01*
X114577000Y-147291085D01*
X114577000Y-148434000D01*
X115720629Y-148434000D01*
X115841914Y-148211959D01*
X115831507Y-148189970D01*
X129246204Y-148189970D01*
X129416035Y-148600004D01*
X129806322Y-149028263D01*
X130330788Y-149274566D01*
X130560680Y-149153899D01*
X130560680Y-147960080D01*
X129367525Y-147960080D01*
X129246204Y-148189970D01*
X115831507Y-148189970D01*
X115602389Y-147705866D01*
X115187423Y-147329959D01*
X114799039Y-147169096D01*
X114577000Y-147291085D01*
X114323000Y-147291085D01*
X114100961Y-147169096D01*
X113712577Y-147329959D01*
X113297611Y-147705866D01*
X113058086Y-148211959D01*
X112341914Y-148211959D01*
X112102389Y-147705866D01*
X111687423Y-147329959D01*
X111299039Y-147169096D01*
X111077000Y-147291085D01*
X110823000Y-147291085D01*
X110600961Y-147169096D01*
X110212577Y-147329959D01*
X109797611Y-147705866D01*
X109558086Y-148211959D01*
X108841914Y-148211959D01*
X108602389Y-147705866D01*
X108187423Y-147329959D01*
X107799039Y-147169096D01*
X107577000Y-147291085D01*
X107323000Y-147291085D01*
X107100961Y-147169096D01*
X106712577Y-147329959D01*
X106297611Y-147705866D01*
X106058086Y-148211959D01*
X105341914Y-148211959D01*
X105102389Y-147705866D01*
X104687423Y-147329959D01*
X104299039Y-147169096D01*
X104077000Y-147291085D01*
X103823000Y-147291085D01*
X103600961Y-147169096D01*
X103212577Y-147329959D01*
X102797611Y-147705866D01*
X102558086Y-148211959D01*
X101841914Y-148211959D01*
X101602389Y-147705866D01*
X101187423Y-147329959D01*
X100799039Y-147169096D01*
X100577000Y-147291085D01*
X100323000Y-147291085D01*
X100100961Y-147169096D01*
X99712577Y-147329959D01*
X99297611Y-147705866D01*
X99058086Y-148211959D01*
X92358656Y-148211959D01*
X92166534Y-147748138D01*
X91762862Y-147344466D01*
X91235439Y-147126000D01*
X90664561Y-147126000D01*
X90137138Y-147344466D01*
X89733466Y-147748138D01*
X89515000Y-148275561D01*
X88885000Y-148275561D01*
X88666534Y-147748138D01*
X88262862Y-147344466D01*
X87735439Y-147126000D01*
X87164561Y-147126000D01*
X86637138Y-147344466D01*
X86233466Y-147748138D01*
X86015000Y-148275561D01*
X80185000Y-148275561D01*
X80185000Y-140941000D01*
X85986887Y-140941000D01*
X86098260Y-141500909D01*
X86415423Y-141975577D01*
X86890091Y-142292740D01*
X87308667Y-142376000D01*
X87591333Y-142376000D01*
X88009909Y-142292740D01*
X88484577Y-141975577D01*
X88801740Y-141500909D01*
X88913113Y-140941000D01*
X89486887Y-140941000D01*
X89598260Y-141500909D01*
X89915423Y-141975577D01*
X90390091Y-142292740D01*
X90808667Y-142376000D01*
X91091333Y-142376000D01*
X91509909Y-142292740D01*
X91984577Y-141975577D01*
X92301740Y-141500909D01*
X92413113Y-140941000D01*
X92301740Y-140381091D01*
X91984577Y-139906423D01*
X91509909Y-139589260D01*
X91091333Y-139506000D01*
X90808667Y-139506000D01*
X90390091Y-139589260D01*
X89915423Y-139906423D01*
X89598260Y-140381091D01*
X89486887Y-140941000D01*
X88913113Y-140941000D01*
X88801740Y-140381091D01*
X88484577Y-139906423D01*
X88009909Y-139589260D01*
X87591333Y-139506000D01*
X87308667Y-139506000D01*
X86890091Y-139589260D01*
X86415423Y-139906423D01*
X86098260Y-140381091D01*
X85986887Y-140941000D01*
X80185000Y-140941000D01*
X80185000Y-129221000D01*
X81952560Y-129221000D01*
X81952560Y-130921000D01*
X82001843Y-131168765D01*
X82142191Y-131378809D01*
X82352235Y-131519157D01*
X82455708Y-131539739D01*
X82178355Y-131844076D01*
X82008524Y-132254110D01*
X82129845Y-132484000D01*
X83323000Y-132484000D01*
X83323000Y-132464000D01*
X83577000Y-132464000D01*
X83577000Y-132484000D01*
X84770155Y-132484000D01*
X84891476Y-132254110D01*
X84721645Y-131844076D01*
X84444292Y-131539739D01*
X84547765Y-131519157D01*
X84757809Y-131378809D01*
X84898157Y-131168765D01*
X84947440Y-130921000D01*
X84947440Y-129221000D01*
X84898157Y-128973235D01*
X84757809Y-128763191D01*
X84547765Y-128622843D01*
X84300000Y-128573560D01*
X82600000Y-128573560D01*
X82352235Y-128622843D01*
X82142191Y-128763191D01*
X82001843Y-128973235D01*
X81952560Y-129221000D01*
X80185000Y-129221000D01*
X80185000Y-119461000D01*
X80865112Y-119461000D01*
X80880001Y-119535852D01*
X80880000Y-124122153D01*
X80865112Y-124197000D01*
X80880000Y-124271847D01*
X80880000Y-124271851D01*
X80924096Y-124493536D01*
X81092071Y-124744929D01*
X81155530Y-124787331D01*
X85421670Y-129053472D01*
X85421669Y-133423867D01*
X84618573Y-134226964D01*
X84520625Y-134080375D01*
X84201522Y-133867157D01*
X84331358Y-133806183D01*
X84721645Y-133377924D01*
X84891476Y-132967890D01*
X84770155Y-132738000D01*
X83577000Y-132738000D01*
X83577000Y-132758000D01*
X83323000Y-132758000D01*
X83323000Y-132738000D01*
X82129845Y-132738000D01*
X82008524Y-132967890D01*
X82178355Y-133377924D01*
X82568642Y-133806183D01*
X82698478Y-133867157D01*
X82379375Y-134080375D01*
X82051161Y-134571582D01*
X81935908Y-135151000D01*
X82051161Y-135730418D01*
X82379375Y-136221625D01*
X82677761Y-136421000D01*
X82379375Y-136620375D01*
X82051161Y-137111582D01*
X81935908Y-137691000D01*
X82051161Y-138270418D01*
X82379375Y-138761625D01*
X82870582Y-139089839D01*
X83303744Y-139176000D01*
X83596256Y-139176000D01*
X84029418Y-139089839D01*
X84520625Y-138761625D01*
X84728178Y-138451000D01*
X85154491Y-138451000D01*
X85229338Y-138465888D01*
X85304185Y-138451000D01*
X85304190Y-138451000D01*
X85525875Y-138406904D01*
X85777267Y-138238929D01*
X85819669Y-138175470D01*
X86629361Y-137365778D01*
X92315000Y-137365778D01*
X92315000Y-138016222D01*
X92563914Y-138617153D01*
X93023847Y-139077086D01*
X93624778Y-139326000D01*
X94275222Y-139326000D01*
X94876153Y-139077086D01*
X95336086Y-138617153D01*
X95404909Y-138451000D01*
X98995091Y-138451000D01*
X99063914Y-138617153D01*
X99523847Y-139077086D01*
X100124778Y-139326000D01*
X100775222Y-139326000D01*
X101376153Y-139077086D01*
X101836086Y-138617153D01*
X102085000Y-138016222D01*
X102085000Y-137365778D01*
X102525000Y-137365778D01*
X102525000Y-138016222D01*
X102773914Y-138617153D01*
X103233847Y-139077086D01*
X103834778Y-139326000D01*
X104485222Y-139326000D01*
X105086153Y-139077086D01*
X105546086Y-138617153D01*
X105795000Y-138016222D01*
X105795000Y-137365778D01*
X105546086Y-136764847D01*
X105086153Y-136304914D01*
X104485222Y-136056000D01*
X103834778Y-136056000D01*
X103233847Y-136304914D01*
X102773914Y-136764847D01*
X102525000Y-137365778D01*
X102085000Y-137365778D01*
X101836086Y-136764847D01*
X101376153Y-136304914D01*
X100775222Y-136056000D01*
X100124778Y-136056000D01*
X99523847Y-136304914D01*
X99063914Y-136764847D01*
X98995091Y-136931000D01*
X95404909Y-136931000D01*
X95336086Y-136764847D01*
X94876153Y-136304914D01*
X94275222Y-136056000D01*
X93624778Y-136056000D01*
X93023847Y-136304914D01*
X92563914Y-136764847D01*
X92315000Y-137365778D01*
X86629361Y-137365778D01*
X88698145Y-135296996D01*
X88761598Y-135254598D01*
X88803996Y-135191145D01*
X88803998Y-135191143D01*
X88887771Y-135065767D01*
X88929573Y-135003206D01*
X88973669Y-134781521D01*
X88973669Y-134781517D01*
X88988557Y-134706670D01*
X88973669Y-134631823D01*
X88973669Y-132865778D01*
X92315000Y-132865778D01*
X92315000Y-133516222D01*
X92563914Y-134117153D01*
X93023847Y-134577086D01*
X93624778Y-134826000D01*
X94275222Y-134826000D01*
X94876153Y-134577086D01*
X95336086Y-134117153D01*
X95585000Y-133516222D01*
X95585000Y-132865778D01*
X98815000Y-132865778D01*
X98815000Y-133516222D01*
X99063914Y-134117153D01*
X99523847Y-134577086D01*
X100124778Y-134826000D01*
X100775222Y-134826000D01*
X101376153Y-134577086D01*
X101836086Y-134117153D01*
X102085000Y-133516222D01*
X102085000Y-132865778D01*
X102525000Y-132865778D01*
X102525000Y-133516222D01*
X102773914Y-134117153D01*
X103233847Y-134577086D01*
X103834778Y-134826000D01*
X104485222Y-134826000D01*
X105086153Y-134577086D01*
X105546086Y-134117153D01*
X105795000Y-133516222D01*
X105795000Y-132865778D01*
X109025000Y-132865778D01*
X109025000Y-133516222D01*
X109273914Y-134117153D01*
X109733847Y-134577086D01*
X110334778Y-134826000D01*
X110985222Y-134826000D01*
X111586153Y-134577086D01*
X112046086Y-134117153D01*
X112295000Y-133516222D01*
X112295000Y-132865778D01*
X112046086Y-132264847D01*
X111586153Y-131804914D01*
X110985222Y-131556000D01*
X110334778Y-131556000D01*
X109733847Y-131804914D01*
X109273914Y-132264847D01*
X109025000Y-132865778D01*
X105795000Y-132865778D01*
X105546086Y-132264847D01*
X105086153Y-131804914D01*
X104485222Y-131556000D01*
X103834778Y-131556000D01*
X103233847Y-131804914D01*
X102773914Y-132264847D01*
X102525000Y-132865778D01*
X102085000Y-132865778D01*
X101836086Y-132264847D01*
X101376153Y-131804914D01*
X100775222Y-131556000D01*
X100124778Y-131556000D01*
X99523847Y-131804914D01*
X99063914Y-132264847D01*
X98815000Y-132865778D01*
X95585000Y-132865778D01*
X95336086Y-132264847D01*
X94876153Y-131804914D01*
X94275222Y-131556000D01*
X93624778Y-131556000D01*
X93023847Y-131804914D01*
X92563914Y-132264847D01*
X92315000Y-132865778D01*
X88973669Y-132865778D01*
X88973669Y-127987635D01*
X94315000Y-127987635D01*
X94315000Y-128638079D01*
X94563914Y-129239010D01*
X95023847Y-129698943D01*
X95624778Y-129947857D01*
X96275222Y-129947857D01*
X96876153Y-129698943D01*
X97336086Y-129239010D01*
X97585000Y-128638079D01*
X97585000Y-127987635D01*
X97336086Y-127386704D01*
X96876153Y-126926771D01*
X96275222Y-126677857D01*
X95624778Y-126677857D01*
X95023847Y-126926771D01*
X94563914Y-127386704D01*
X94315000Y-127987635D01*
X88973669Y-127987635D01*
X88973669Y-127797516D01*
X88988557Y-127722669D01*
X88973669Y-127647822D01*
X88973669Y-127647817D01*
X88929573Y-127426132D01*
X88761598Y-127174740D01*
X88698142Y-127132340D01*
X84441669Y-122875868D01*
X84441669Y-120734132D01*
X87224803Y-117951000D01*
X101835153Y-117951000D01*
X101910000Y-117965888D01*
X101984847Y-117951000D01*
X101984852Y-117951000D01*
X102206537Y-117906904D01*
X102457929Y-117738929D01*
X102500331Y-117675470D01*
X106210023Y-113965778D01*
X121315000Y-113965778D01*
X121315000Y-114616222D01*
X121563914Y-115217153D01*
X122023847Y-115677086D01*
X122624778Y-115926000D01*
X123275222Y-115926000D01*
X123876153Y-115677086D01*
X124336086Y-115217153D01*
X124585000Y-114616222D01*
X124585000Y-113965778D01*
X125815000Y-113965778D01*
X125815000Y-114616222D01*
X126063914Y-115217153D01*
X126523847Y-115677086D01*
X127124778Y-115926000D01*
X127775222Y-115926000D01*
X128376153Y-115677086D01*
X128836086Y-115217153D01*
X129085000Y-114616222D01*
X129085000Y-113965778D01*
X128836086Y-113364847D01*
X128376153Y-112904914D01*
X127775222Y-112656000D01*
X127124778Y-112656000D01*
X126523847Y-112904914D01*
X126063914Y-113364847D01*
X125815000Y-113965778D01*
X124585000Y-113965778D01*
X124336086Y-113364847D01*
X123876153Y-112904914D01*
X123275222Y-112656000D01*
X122624778Y-112656000D01*
X122023847Y-112904914D01*
X121563914Y-113364847D01*
X121315000Y-113965778D01*
X106210023Y-113965778D01*
X111744473Y-108431329D01*
X111807929Y-108388929D01*
X111891601Y-108263705D01*
X111975904Y-108137538D01*
X111985480Y-108089395D01*
X112020000Y-107915852D01*
X112020000Y-107915848D01*
X112034888Y-107841000D01*
X112020000Y-107766152D01*
X112020000Y-106091035D01*
X112330625Y-105883482D01*
X112658839Y-105392275D01*
X112774092Y-104812857D01*
X112658839Y-104233439D01*
X112330625Y-103742232D01*
X111839418Y-103414018D01*
X111406256Y-103327857D01*
X111113744Y-103327857D01*
X110680582Y-103414018D01*
X110189375Y-103742232D01*
X109990000Y-104040618D01*
X109790625Y-103742232D01*
X109299418Y-103414018D01*
X108866256Y-103327857D01*
X108573744Y-103327857D01*
X108140582Y-103414018D01*
X107649375Y-103742232D01*
X107450000Y-104040618D01*
X107250625Y-103742232D01*
X107065000Y-103618201D01*
X107065000Y-102076000D01*
X122562839Y-102076000D01*
X122650000Y-102093337D01*
X122737161Y-102076000D01*
X122737165Y-102076000D01*
X122995310Y-102024652D01*
X123288049Y-101829049D01*
X123337425Y-101755153D01*
X124464156Y-100628423D01*
X124538049Y-100579049D01*
X124607294Y-100475418D01*
X124733652Y-100286310D01*
X124748606Y-100211129D01*
X124785000Y-100028165D01*
X124785000Y-100028161D01*
X124802337Y-99941000D01*
X124785000Y-99853839D01*
X124785000Y-97778161D01*
X124802337Y-97691000D01*
X124785000Y-97603839D01*
X124785000Y-97603835D01*
X124733652Y-97345690D01*
X124638680Y-97203555D01*
X124587424Y-97126845D01*
X124587423Y-97126844D01*
X124538049Y-97052951D01*
X124464156Y-97003577D01*
X123987460Y-96526882D01*
X125791091Y-96526882D01*
X126815001Y-97550793D01*
X126815000Y-99485915D01*
X126797662Y-99573080D01*
X126815001Y-99660249D01*
X126815000Y-103938821D01*
X126347822Y-104406000D01*
X124122948Y-104406000D01*
X124035787Y-104388663D01*
X123948626Y-104406000D01*
X123948622Y-104406000D01*
X123690477Y-104457348D01*
X123471632Y-104603576D01*
X123471631Y-104603577D01*
X123397738Y-104652951D01*
X123348364Y-104726844D01*
X122385845Y-105689364D01*
X122311952Y-105738738D01*
X122262578Y-105812631D01*
X122262576Y-105812633D01*
X122116348Y-106031478D01*
X122047663Y-106376787D01*
X122051019Y-106393659D01*
X122023847Y-106404914D01*
X121563914Y-106864847D01*
X121315000Y-107465778D01*
X121315000Y-108116222D01*
X121563914Y-108717153D01*
X122023847Y-109177086D01*
X122624778Y-109426000D01*
X123275222Y-109426000D01*
X123876153Y-109177086D01*
X124336086Y-108717153D01*
X124585000Y-108116222D01*
X124585000Y-107465778D01*
X125815000Y-107465778D01*
X125815000Y-108116222D01*
X126063914Y-108717153D01*
X126523847Y-109177086D01*
X127124778Y-109426000D01*
X127775222Y-109426000D01*
X128376153Y-109177086D01*
X128836086Y-108717153D01*
X129085000Y-108116222D01*
X129085000Y-107465778D01*
X128836086Y-106864847D01*
X128376153Y-106404914D01*
X127775222Y-106156000D01*
X127124778Y-106156000D01*
X126523847Y-106404914D01*
X126063914Y-106864847D01*
X125815000Y-107465778D01*
X124585000Y-107465778D01*
X124336086Y-106864847D01*
X124024802Y-106553563D01*
X124402366Y-106176000D01*
X126627239Y-106176000D01*
X126714400Y-106193337D01*
X126801561Y-106176000D01*
X126801565Y-106176000D01*
X127059710Y-106124652D01*
X127352449Y-105929049D01*
X127401825Y-105855153D01*
X128264156Y-104992823D01*
X128338049Y-104943449D01*
X128425309Y-104812857D01*
X128533652Y-104650710D01*
X128558442Y-104526080D01*
X128585000Y-104392565D01*
X128585000Y-104392561D01*
X128602337Y-104305400D01*
X128585000Y-104218239D01*
X128585000Y-100458080D01*
X129197202Y-100458080D01*
X129239523Y-100670845D01*
X129379871Y-100880889D01*
X129589915Y-101021237D01*
X129635299Y-101030264D01*
X129617055Y-101042455D01*
X129288841Y-101533662D01*
X129173588Y-102113080D01*
X129288841Y-102692498D01*
X129617055Y-103183705D01*
X129915441Y-103383080D01*
X129617055Y-103582455D01*
X129288841Y-104073662D01*
X129173588Y-104653080D01*
X129288841Y-105232498D01*
X129617055Y-105723705D01*
X129915441Y-105923080D01*
X129617055Y-106122455D01*
X129288841Y-106613662D01*
X129173588Y-107193080D01*
X129288841Y-107772498D01*
X129617055Y-108263705D01*
X129936158Y-108476923D01*
X129806322Y-108537897D01*
X129416035Y-108966156D01*
X129246204Y-109376190D01*
X129367525Y-109606080D01*
X130560680Y-109606080D01*
X130560680Y-109586080D01*
X130814680Y-109586080D01*
X130814680Y-109606080D01*
X130834680Y-109606080D01*
X130834680Y-109860080D01*
X130814680Y-109860080D01*
X130814680Y-109880080D01*
X130560680Y-109880080D01*
X130560680Y-109860080D01*
X129367525Y-109860080D01*
X129246204Y-110089970D01*
X129416035Y-110500004D01*
X129806322Y-110928263D01*
X129936158Y-110989237D01*
X129617055Y-111202455D01*
X129288841Y-111693662D01*
X129173588Y-112273080D01*
X129288841Y-112852498D01*
X129617055Y-113343705D01*
X129915441Y-113543080D01*
X129617055Y-113742455D01*
X129288841Y-114233662D01*
X129173588Y-114813080D01*
X129288841Y-115392498D01*
X129617055Y-115883705D01*
X129915441Y-116083080D01*
X129617055Y-116282455D01*
X129288841Y-116773662D01*
X129173588Y-117353080D01*
X129288841Y-117932498D01*
X129617055Y-118423705D01*
X129915441Y-118623080D01*
X129617055Y-118822455D01*
X129288841Y-119313662D01*
X129181700Y-119852299D01*
X128858011Y-119528610D01*
X128815609Y-119465151D01*
X128564217Y-119297176D01*
X128342532Y-119253080D01*
X128342527Y-119253080D01*
X128267680Y-119238192D01*
X128192833Y-119253080D01*
X127951266Y-119253080D01*
X128376153Y-119077086D01*
X128836086Y-118617153D01*
X129085000Y-118016222D01*
X129085000Y-117365778D01*
X128836086Y-116764847D01*
X128376153Y-116304914D01*
X127775222Y-116056000D01*
X127124778Y-116056000D01*
X126523847Y-116304914D01*
X126063914Y-116764847D01*
X125815000Y-117365778D01*
X125815000Y-118016222D01*
X126063914Y-118617153D01*
X126523847Y-119077086D01*
X126948734Y-119253080D01*
X123451266Y-119253080D01*
X123876153Y-119077086D01*
X124336086Y-118617153D01*
X124585000Y-118016222D01*
X124585000Y-117365778D01*
X124336086Y-116764847D01*
X123876153Y-116304914D01*
X123275222Y-116056000D01*
X122624778Y-116056000D01*
X122023847Y-116304914D01*
X121563914Y-116764847D01*
X121315000Y-117365778D01*
X121315000Y-118016222D01*
X121563914Y-118617153D01*
X122023847Y-119077086D01*
X122448734Y-119253080D01*
X88391391Y-119253080D01*
X88273960Y-119135649D01*
X87893554Y-118978080D01*
X87481806Y-118978080D01*
X87101400Y-119135649D01*
X86810249Y-119426800D01*
X86652680Y-119807206D01*
X86652680Y-120218954D01*
X86810249Y-120599360D01*
X87101400Y-120890511D01*
X87481806Y-121048080D01*
X87893554Y-121048080D01*
X88273960Y-120890511D01*
X88391391Y-120773080D01*
X127952879Y-120773080D01*
X129246471Y-122066672D01*
X129181700Y-122392299D01*
X128245931Y-121456530D01*
X128203529Y-121393071D01*
X127952137Y-121225096D01*
X127730452Y-121181000D01*
X127730447Y-121181000D01*
X127655600Y-121166112D01*
X127580753Y-121181000D01*
X86409311Y-121181000D01*
X86291880Y-121063569D01*
X85911474Y-120906000D01*
X85499726Y-120906000D01*
X85119320Y-121063569D01*
X84828169Y-121354720D01*
X84670600Y-121735126D01*
X84670600Y-122146874D01*
X84828169Y-122527280D01*
X85119320Y-122818431D01*
X85499726Y-122976000D01*
X85911474Y-122976000D01*
X86291880Y-122818431D01*
X86409311Y-122701000D01*
X122274717Y-122701000D01*
X122023847Y-122804914D01*
X121563914Y-123264847D01*
X121315000Y-123865778D01*
X121315000Y-124131198D01*
X120462411Y-123278610D01*
X120420009Y-123215151D01*
X120168617Y-123047176D01*
X119946932Y-123003080D01*
X119946927Y-123003080D01*
X119872080Y-122988192D01*
X119797233Y-123003080D01*
X92391391Y-123003080D01*
X92273960Y-122885649D01*
X91893554Y-122728080D01*
X91481806Y-122728080D01*
X91101400Y-122885649D01*
X90810249Y-123176800D01*
X90652680Y-123557206D01*
X90652680Y-123968954D01*
X90810249Y-124349360D01*
X91101400Y-124640511D01*
X91481806Y-124798080D01*
X91893554Y-124798080D01*
X92273960Y-124640511D01*
X92391391Y-124523080D01*
X119557279Y-124523080D01*
X121751753Y-126717556D01*
X121794151Y-126781009D01*
X121857604Y-126823407D01*
X121857606Y-126823409D01*
X121982982Y-126907182D01*
X122045543Y-126948984D01*
X122267228Y-126993080D01*
X122267232Y-126993080D01*
X122342079Y-127007968D01*
X122416926Y-126993080D01*
X129121089Y-126993080D01*
X129097352Y-127028606D01*
X128712879Y-127413080D01*
X122396882Y-127413080D01*
X120141213Y-125157412D01*
X120098811Y-125093953D01*
X119847419Y-124925978D01*
X119625734Y-124881882D01*
X119625729Y-124881882D01*
X119550882Y-124866994D01*
X119476035Y-124881882D01*
X90403380Y-124881882D01*
X90285949Y-124764451D01*
X89905543Y-124606882D01*
X89493795Y-124606882D01*
X89113389Y-124764451D01*
X88822238Y-125055602D01*
X88664669Y-125436008D01*
X88664669Y-125847756D01*
X88822238Y-126228162D01*
X89113389Y-126519313D01*
X89493795Y-126676882D01*
X89905543Y-126676882D01*
X90285949Y-126519313D01*
X90403380Y-126401882D01*
X119236081Y-126401882D01*
X119679523Y-126845324D01*
X119275222Y-126677857D01*
X118624778Y-126677857D01*
X118023847Y-126926771D01*
X117563914Y-127386704D01*
X117315000Y-127987635D01*
X117315000Y-128638079D01*
X117563914Y-129239010D01*
X118023847Y-129698943D01*
X118624778Y-129947857D01*
X119275222Y-129947857D01*
X119876153Y-129698943D01*
X120336086Y-129239010D01*
X120585000Y-128638079D01*
X120585000Y-127987635D01*
X120417533Y-127583335D01*
X121491751Y-128657553D01*
X121534151Y-128721009D01*
X121785543Y-128888984D01*
X122007228Y-128933080D01*
X122007232Y-128933080D01*
X122082080Y-128947968D01*
X122156928Y-128933080D01*
X128952833Y-128933080D01*
X129027680Y-128947968D01*
X129102527Y-128933080D01*
X129102532Y-128933080D01*
X129324217Y-128888984D01*
X129575609Y-128721009D01*
X129618011Y-128657550D01*
X129661895Y-128613666D01*
X129936158Y-128796923D01*
X129806322Y-128857897D01*
X129416035Y-129286156D01*
X129246204Y-129696190D01*
X129367525Y-129926080D01*
X130560680Y-129926080D01*
X130560680Y-129906080D01*
X130814680Y-129906080D01*
X130814680Y-129926080D01*
X130834680Y-129926080D01*
X130834680Y-130180080D01*
X130814680Y-130180080D01*
X130814680Y-130200080D01*
X130560680Y-130200080D01*
X130560680Y-130180080D01*
X129367525Y-130180080D01*
X129246204Y-130409970D01*
X129416035Y-130820004D01*
X129806322Y-131248263D01*
X129936158Y-131309237D01*
X129617055Y-131522455D01*
X129288841Y-132013662D01*
X129173588Y-132593080D01*
X129288841Y-133172498D01*
X129617055Y-133663705D01*
X129915441Y-133863080D01*
X129617055Y-134062455D01*
X129409502Y-134373080D01*
X128462482Y-134373080D01*
X124795931Y-130706530D01*
X124753529Y-130643071D01*
X124502137Y-130475096D01*
X124280452Y-130431000D01*
X124280447Y-130431000D01*
X124205600Y-130416112D01*
X124130753Y-130431000D01*
X118295403Y-130431000D01*
X115890600Y-128026199D01*
X115890600Y-127860126D01*
X115733031Y-127479720D01*
X115441880Y-127188569D01*
X115061474Y-127031000D01*
X114649726Y-127031000D01*
X114269320Y-127188569D01*
X113978169Y-127479720D01*
X113820600Y-127860126D01*
X113820600Y-128271874D01*
X113978169Y-128652280D01*
X114269320Y-128943431D01*
X114649726Y-129101000D01*
X114815799Y-129101000D01*
X117390273Y-131675476D01*
X117432671Y-131738929D01*
X117496124Y-131781327D01*
X117496126Y-131781329D01*
X117531424Y-131804914D01*
X117684063Y-131906904D01*
X117905748Y-131951000D01*
X117905752Y-131951000D01*
X117980599Y-131965888D01*
X118055446Y-131951000D01*
X119877761Y-131951000D01*
X119563914Y-132264847D01*
X119315000Y-132865778D01*
X119315000Y-133516222D01*
X119563914Y-134117153D01*
X120023847Y-134577086D01*
X120624778Y-134826000D01*
X121275222Y-134826000D01*
X121876153Y-134577086D01*
X122336086Y-134117153D01*
X122585000Y-133516222D01*
X122585000Y-132865778D01*
X122336086Y-132264847D01*
X122022239Y-131951000D01*
X123890799Y-131951000D01*
X127557351Y-135617553D01*
X127599751Y-135681009D01*
X127851143Y-135848984D01*
X128072828Y-135893080D01*
X128072833Y-135893080D01*
X128147680Y-135907968D01*
X128222527Y-135893080D01*
X129409502Y-135893080D01*
X129617055Y-136203705D01*
X129915441Y-136403080D01*
X129617055Y-136602455D01*
X129409502Y-136913080D01*
X126502482Y-136913080D01*
X125145931Y-135556530D01*
X125103529Y-135493071D01*
X124852137Y-135325096D01*
X124630452Y-135281000D01*
X124630447Y-135281000D01*
X124555600Y-135266112D01*
X124480753Y-135281000D01*
X120020403Y-135281000D01*
X112295931Y-127556530D01*
X112253529Y-127493071D01*
X112002137Y-127325096D01*
X111780452Y-127281000D01*
X111780447Y-127281000D01*
X111705600Y-127266112D01*
X111630753Y-127281000D01*
X102153711Y-127281000D01*
X102036280Y-127163569D01*
X101655874Y-127006000D01*
X101244126Y-127006000D01*
X100863720Y-127163569D01*
X100572569Y-127454720D01*
X100415000Y-127835126D01*
X100415000Y-128246874D01*
X100572569Y-128627280D01*
X100863720Y-128918431D01*
X101244126Y-129076000D01*
X101655874Y-129076000D01*
X102036280Y-128918431D01*
X102153711Y-128801000D01*
X111390799Y-128801000D01*
X114145798Y-131556000D01*
X114124778Y-131556000D01*
X113523847Y-131804914D01*
X113063914Y-132264847D01*
X112815000Y-132865778D01*
X112815000Y-133516222D01*
X113063914Y-134117153D01*
X113523847Y-134577086D01*
X114124778Y-134826000D01*
X114775222Y-134826000D01*
X115376153Y-134577086D01*
X115836086Y-134117153D01*
X116085000Y-133516222D01*
X116085000Y-133495202D01*
X119115273Y-136525476D01*
X119157671Y-136588929D01*
X119221124Y-136631327D01*
X119221126Y-136631329D01*
X119346502Y-136715102D01*
X119409063Y-136756904D01*
X119555166Y-136785966D01*
X119315000Y-137365778D01*
X119315000Y-138016222D01*
X119563914Y-138617153D01*
X120023847Y-139077086D01*
X120624778Y-139326000D01*
X121275222Y-139326000D01*
X121876153Y-139077086D01*
X122336086Y-138617153D01*
X122585000Y-138016222D01*
X122585000Y-137365778D01*
X122351061Y-136801000D01*
X124240799Y-136801000D01*
X125597351Y-138157553D01*
X125639751Y-138221009D01*
X125703207Y-138263409D01*
X125891142Y-138388984D01*
X125939285Y-138398560D01*
X126112828Y-138433080D01*
X126112832Y-138433080D01*
X126187680Y-138447968D01*
X126262528Y-138433080D01*
X129409502Y-138433080D01*
X129617055Y-138743705D01*
X129915441Y-138943080D01*
X129617055Y-139142455D01*
X129288841Y-139633662D01*
X129173588Y-140213080D01*
X129288841Y-140792498D01*
X129617055Y-141283705D01*
X129915441Y-141483080D01*
X129617055Y-141682455D01*
X129409502Y-141993080D01*
X129182308Y-141993080D01*
X129305000Y-141696874D01*
X129305000Y-141285126D01*
X129147431Y-140904720D01*
X128856280Y-140613569D01*
X128475874Y-140456000D01*
X128309802Y-140456000D01*
X127722411Y-139868610D01*
X127680009Y-139805151D01*
X127428617Y-139637176D01*
X127206932Y-139593080D01*
X127206927Y-139593080D01*
X127132080Y-139578192D01*
X127057233Y-139593080D01*
X119182482Y-139593080D01*
X118595931Y-139006530D01*
X118553529Y-138943071D01*
X118302137Y-138775096D01*
X118080452Y-138731000D01*
X118080447Y-138731000D01*
X118005600Y-138716112D01*
X117930753Y-138731000D01*
X115722239Y-138731000D01*
X115836086Y-138617153D01*
X116085000Y-138016222D01*
X116085000Y-137365778D01*
X115836086Y-136764847D01*
X115376153Y-136304914D01*
X114775222Y-136056000D01*
X114124778Y-136056000D01*
X113523847Y-136304914D01*
X113063914Y-136764847D01*
X112815000Y-137365778D01*
X112815000Y-138016222D01*
X113063914Y-138617153D01*
X113177761Y-138731000D01*
X112774802Y-138731000D01*
X112250330Y-138206529D01*
X112250328Y-138206526D01*
X112226177Y-138182375D01*
X112295000Y-138016222D01*
X112295000Y-137365778D01*
X112046086Y-136764847D01*
X111586153Y-136304914D01*
X110985222Y-136056000D01*
X110334778Y-136056000D01*
X109733847Y-136304914D01*
X109273914Y-136764847D01*
X109025000Y-137365778D01*
X109025000Y-138016222D01*
X109273914Y-138617153D01*
X109733847Y-139077086D01*
X110334778Y-139326000D01*
X110985222Y-139326000D01*
X111151375Y-139257177D01*
X111175526Y-139281328D01*
X111175529Y-139281330D01*
X111516701Y-139622503D01*
X111235439Y-139506000D01*
X110664561Y-139506000D01*
X110137138Y-139724466D01*
X109733466Y-140128138D01*
X109515000Y-140655561D01*
X109515000Y-141226439D01*
X109733466Y-141753862D01*
X110137138Y-142157534D01*
X110664561Y-142376000D01*
X111235439Y-142376000D01*
X111762862Y-142157534D01*
X112166534Y-141753862D01*
X112385000Y-141226439D01*
X112385000Y-140655561D01*
X112202365Y-140214642D01*
X112385148Y-140251000D01*
X112385152Y-140251000D01*
X112459999Y-140265888D01*
X112534846Y-140251000D01*
X113182575Y-140251000D01*
X113015000Y-140655561D01*
X113015000Y-141226439D01*
X113233466Y-141753862D01*
X113637138Y-142157534D01*
X114164561Y-142376000D01*
X114735439Y-142376000D01*
X115262862Y-142157534D01*
X115666534Y-141753862D01*
X115885000Y-141226439D01*
X115885000Y-140655561D01*
X115717425Y-140251000D01*
X117690799Y-140251000D01*
X118277350Y-140837552D01*
X118319751Y-140901009D01*
X118571143Y-141068984D01*
X118792828Y-141113080D01*
X118792832Y-141113080D01*
X118867679Y-141127968D01*
X118942526Y-141113080D01*
X126817279Y-141113080D01*
X127235000Y-141530802D01*
X127235000Y-141696874D01*
X127357692Y-141993080D01*
X125173711Y-141993080D01*
X125056280Y-141875649D01*
X124675874Y-141718080D01*
X124264126Y-141718080D01*
X123883720Y-141875649D01*
X123592569Y-142166800D01*
X123435000Y-142547206D01*
X123435000Y-142958954D01*
X123592569Y-143339360D01*
X123883720Y-143630511D01*
X124264126Y-143788080D01*
X124675874Y-143788080D01*
X125056280Y-143630511D01*
X125173711Y-143513080D01*
X128430736Y-143513080D01*
X128421751Y-143526527D01*
X127957279Y-143991000D01*
X101784802Y-143991000D01*
X101210000Y-143416199D01*
X101210000Y-142179430D01*
X101262862Y-142157534D01*
X101666534Y-141753862D01*
X101885000Y-141226439D01*
X101885000Y-140655561D01*
X102515000Y-140655561D01*
X102515000Y-141226439D01*
X102733466Y-141753862D01*
X103137138Y-142157534D01*
X103664561Y-142376000D01*
X104235439Y-142376000D01*
X104762862Y-142157534D01*
X105166534Y-141753862D01*
X105385000Y-141226439D01*
X105385000Y-140655561D01*
X106015000Y-140655561D01*
X106015000Y-141226439D01*
X106233466Y-141753862D01*
X106637138Y-142157534D01*
X107164561Y-142376000D01*
X107735439Y-142376000D01*
X108262862Y-142157534D01*
X108666534Y-141753862D01*
X108885000Y-141226439D01*
X108885000Y-140655561D01*
X108666534Y-140128138D01*
X108262862Y-139724466D01*
X107735439Y-139506000D01*
X107164561Y-139506000D01*
X106637138Y-139724466D01*
X106233466Y-140128138D01*
X106015000Y-140655561D01*
X105385000Y-140655561D01*
X105166534Y-140128138D01*
X104762862Y-139724466D01*
X104235439Y-139506000D01*
X103664561Y-139506000D01*
X103137138Y-139724466D01*
X102733466Y-140128138D01*
X102515000Y-140655561D01*
X101885000Y-140655561D01*
X101666534Y-140128138D01*
X101262862Y-139724466D01*
X100735439Y-139506000D01*
X100164561Y-139506000D01*
X99637138Y-139724466D01*
X99233466Y-140128138D01*
X99015000Y-140655561D01*
X99015000Y-141226439D01*
X99233466Y-141753862D01*
X99637138Y-142157534D01*
X99690001Y-142179430D01*
X99690000Y-143656153D01*
X99675112Y-143731000D01*
X99690000Y-143805847D01*
X99690000Y-143805851D01*
X99734096Y-144027536D01*
X99902071Y-144278929D01*
X99965530Y-144321331D01*
X100879671Y-145235473D01*
X100922071Y-145298929D01*
X100985527Y-145341329D01*
X101173462Y-145466904D01*
X101221605Y-145476480D01*
X101395148Y-145511000D01*
X101395152Y-145511000D01*
X101470000Y-145525888D01*
X101544848Y-145511000D01*
X128197233Y-145511000D01*
X128272080Y-145525888D01*
X128346927Y-145511000D01*
X128346932Y-145511000D01*
X128568617Y-145466904D01*
X128820009Y-145298929D01*
X128862411Y-145235470D01*
X129265158Y-144832723D01*
X129173588Y-145293080D01*
X129288841Y-145872498D01*
X129617055Y-146363705D01*
X129936158Y-146576923D01*
X129806322Y-146637897D01*
X129416035Y-147066156D01*
X129246204Y-147476190D01*
X129367525Y-147706080D01*
X130560680Y-147706080D01*
X130560680Y-147686080D01*
X130814680Y-147686080D01*
X130814680Y-147706080D01*
X130834680Y-147706080D01*
X130834680Y-147960080D01*
X130814680Y-147960080D01*
X130814680Y-149153899D01*
X131044572Y-149274566D01*
X131569038Y-149028263D01*
X131956327Y-148603294D01*
X132157055Y-148903705D01*
X132648262Y-149231919D01*
X133081424Y-149318080D01*
X133373936Y-149318080D01*
X133807098Y-149231919D01*
X134298305Y-148903705D01*
X134626519Y-148412498D01*
X134741772Y-147833080D01*
X134626519Y-147253662D01*
X134298305Y-146762455D01*
X133999919Y-146563080D01*
X134298305Y-146363705D01*
X134626519Y-145872498D01*
X134741772Y-145293080D01*
X134626519Y-144713662D01*
X134298305Y-144222455D01*
X133999919Y-144023080D01*
X134298305Y-143823705D01*
X134626519Y-143332498D01*
X134741772Y-142753080D01*
X134626519Y-142173662D01*
X134298305Y-141682455D01*
X133979202Y-141469237D01*
X134109038Y-141408263D01*
X134499325Y-140980004D01*
X134669156Y-140569970D01*
X134547835Y-140340080D01*
X133354680Y-140340080D01*
X133354680Y-140360080D01*
X133100680Y-140360080D01*
X133100680Y-140340080D01*
X133080680Y-140340080D01*
X133080680Y-140086080D01*
X133100680Y-140086080D01*
X133100680Y-140066080D01*
X133354680Y-140066080D01*
X133354680Y-140086080D01*
X134547835Y-140086080D01*
X134669156Y-139856190D01*
X134499325Y-139446156D01*
X134109038Y-139017897D01*
X133979202Y-138956923D01*
X134298305Y-138743705D01*
X134626519Y-138252498D01*
X134741772Y-137673080D01*
X134626519Y-137093662D01*
X134298305Y-136602455D01*
X133979202Y-136389237D01*
X134109038Y-136328263D01*
X134499325Y-135900004D01*
X134669156Y-135489970D01*
X134547835Y-135260080D01*
X133354680Y-135260080D01*
X133354680Y-135280080D01*
X133100680Y-135280080D01*
X133100680Y-135260080D01*
X133080680Y-135260080D01*
X133080680Y-135006080D01*
X133100680Y-135006080D01*
X133100680Y-134986080D01*
X133354680Y-134986080D01*
X133354680Y-135006080D01*
X134547835Y-135006080D01*
X134669156Y-134776190D01*
X134499325Y-134366156D01*
X134109038Y-133937897D01*
X133979202Y-133876923D01*
X134298305Y-133663705D01*
X134626519Y-133172498D01*
X134741772Y-132593080D01*
X134626519Y-132013662D01*
X134298305Y-131522455D01*
X133999919Y-131323080D01*
X134298305Y-131123705D01*
X134626519Y-130632498D01*
X134741772Y-130053080D01*
X134626519Y-129473662D01*
X134298305Y-128982455D01*
X133999919Y-128783080D01*
X134298305Y-128583705D01*
X134626519Y-128092498D01*
X134741772Y-127513080D01*
X134626519Y-126933662D01*
X134298305Y-126442455D01*
X133999919Y-126243080D01*
X134298305Y-126043705D01*
X134626519Y-125552498D01*
X134741772Y-124973080D01*
X134626519Y-124393662D01*
X134298305Y-123902455D01*
X133979202Y-123689237D01*
X134109038Y-123628263D01*
X134499325Y-123200004D01*
X134669156Y-122789970D01*
X134547835Y-122560080D01*
X133354680Y-122560080D01*
X133354680Y-122580080D01*
X133100680Y-122580080D01*
X133100680Y-122560080D01*
X133080680Y-122560080D01*
X133080680Y-122306080D01*
X133100680Y-122306080D01*
X133100680Y-122286080D01*
X133354680Y-122286080D01*
X133354680Y-122306080D01*
X134547835Y-122306080D01*
X134669156Y-122076190D01*
X134499325Y-121666156D01*
X134109038Y-121237897D01*
X133979202Y-121176923D01*
X134298305Y-120963705D01*
X134626519Y-120472498D01*
X134741772Y-119893080D01*
X134626519Y-119313662D01*
X134298305Y-118822455D01*
X133999919Y-118623080D01*
X134298305Y-118423705D01*
X134626519Y-117932498D01*
X134741772Y-117353080D01*
X134626519Y-116773662D01*
X134298305Y-116282455D01*
X133979202Y-116069237D01*
X134109038Y-116008263D01*
X134499325Y-115580004D01*
X134669156Y-115169970D01*
X134547835Y-114940080D01*
X133354680Y-114940080D01*
X133354680Y-114960080D01*
X133100680Y-114960080D01*
X133100680Y-114940080D01*
X133080680Y-114940080D01*
X133080680Y-114686080D01*
X133100680Y-114686080D01*
X133100680Y-114666080D01*
X133354680Y-114666080D01*
X133354680Y-114686080D01*
X134547835Y-114686080D01*
X134669156Y-114456190D01*
X134499325Y-114046156D01*
X134109038Y-113617897D01*
X133979202Y-113556923D01*
X134298305Y-113343705D01*
X134626519Y-112852498D01*
X134741772Y-112273080D01*
X134626519Y-111693662D01*
X134298305Y-111202455D01*
X133999919Y-111003080D01*
X134298305Y-110803705D01*
X134626519Y-110312498D01*
X134741772Y-109733080D01*
X134626519Y-109153662D01*
X134298305Y-108662455D01*
X133999919Y-108463080D01*
X134298305Y-108263705D01*
X134626519Y-107772498D01*
X134741772Y-107193080D01*
X134626519Y-106613662D01*
X134298305Y-106122455D01*
X133979202Y-105909237D01*
X134109038Y-105848263D01*
X134499325Y-105420004D01*
X134669156Y-105009970D01*
X134547835Y-104780080D01*
X133354680Y-104780080D01*
X133354680Y-104800080D01*
X133100680Y-104800080D01*
X133100680Y-104780080D01*
X133080680Y-104780080D01*
X133080680Y-104526080D01*
X133100680Y-104526080D01*
X133100680Y-104506080D01*
X133354680Y-104506080D01*
X133354680Y-104526080D01*
X134547835Y-104526080D01*
X134669156Y-104296190D01*
X134499325Y-103886156D01*
X134109038Y-103457897D01*
X133979202Y-103396923D01*
X134298305Y-103183705D01*
X134626519Y-102692498D01*
X134741772Y-102113080D01*
X134626519Y-101533662D01*
X134298305Y-101042455D01*
X133999919Y-100843080D01*
X134298305Y-100643705D01*
X134626519Y-100152498D01*
X134741772Y-99573080D01*
X134626519Y-98993662D01*
X134298305Y-98502455D01*
X133807098Y-98174241D01*
X133373936Y-98088080D01*
X133081424Y-98088080D01*
X132648262Y-98174241D01*
X132157055Y-98502455D01*
X132144864Y-98520699D01*
X132135837Y-98475315D01*
X131995489Y-98265271D01*
X131785445Y-98124923D01*
X131537680Y-98075640D01*
X129837680Y-98075640D01*
X129589915Y-98124923D01*
X129379871Y-98265271D01*
X129239523Y-98475315D01*
X129197202Y-98688080D01*
X128585000Y-98688080D01*
X128585000Y-97271372D01*
X128602337Y-97184212D01*
X128585000Y-97097052D01*
X128585000Y-97097048D01*
X128533652Y-96838903D01*
X128435494Y-96692000D01*
X128387424Y-96620058D01*
X128387423Y-96620057D01*
X128338049Y-96546164D01*
X128264156Y-96496790D01*
X126845094Y-95077729D01*
X126795718Y-95003833D01*
X126502979Y-94808230D01*
X126244834Y-94756882D01*
X126244830Y-94756882D01*
X126157669Y-94739545D01*
X126070508Y-94756882D01*
X122856128Y-94756882D01*
X122807478Y-94684073D01*
X122597434Y-94543725D01*
X122349669Y-94494442D01*
X120849669Y-94494442D01*
X120601904Y-94543725D01*
X120469969Y-94631882D01*
X119979369Y-94631882D01*
X119847434Y-94543725D01*
X119599669Y-94494442D01*
X118099669Y-94494442D01*
X117851904Y-94543725D01*
X117641860Y-94684073D01*
X117501512Y-94894117D01*
X117452229Y-95141882D01*
X117452229Y-96056882D01*
X117412828Y-96056882D01*
X117325668Y-96039545D01*
X117238509Y-96056882D01*
X117238504Y-96056882D01*
X116980359Y-96108230D01*
X116851821Y-96194117D01*
X116761514Y-96254458D01*
X116761513Y-96254459D01*
X116687620Y-96303833D01*
X116638246Y-96377726D01*
X115309973Y-97706000D01*
X105123018Y-97706000D01*
X105035857Y-97688663D01*
X104948696Y-97706000D01*
X104948692Y-97706000D01*
X104690547Y-97757348D01*
X104471702Y-97903576D01*
X104471701Y-97903577D01*
X104397808Y-97952951D01*
X104348434Y-98026844D01*
X103075847Y-99299432D01*
X103001951Y-99348808D01*
X102806348Y-99641548D01*
X102755000Y-99899693D01*
X102755000Y-99899696D01*
X102737663Y-99986857D01*
X102755000Y-100074018D01*
X102755001Y-103322379D01*
X102542235Y-103364700D01*
X102332191Y-103505048D01*
X102191843Y-103715092D01*
X102142560Y-103962857D01*
X102142560Y-105662857D01*
X102191843Y-105910622D01*
X102332191Y-106120666D01*
X102542235Y-106261014D01*
X102790000Y-106310297D01*
X104490000Y-106310297D01*
X104737765Y-106261014D01*
X104947809Y-106120666D01*
X105088157Y-105910622D01*
X105097184Y-105865238D01*
X105109375Y-105883482D01*
X105600582Y-106211696D01*
X106033744Y-106297857D01*
X106326256Y-106297857D01*
X106759418Y-106211696D01*
X107250625Y-105883482D01*
X107450000Y-105585096D01*
X107649375Y-105883482D01*
X107960001Y-106091035D01*
X107960000Y-107066198D01*
X100595199Y-114431000D01*
X85984847Y-114431000D01*
X85910000Y-114416112D01*
X85835153Y-114431000D01*
X85835148Y-114431000D01*
X85613463Y-114475096D01*
X85362071Y-114643071D01*
X85319671Y-114706527D01*
X81155528Y-118870671D01*
X81092072Y-118913071D01*
X81049672Y-118976527D01*
X81049671Y-118976528D01*
X80924097Y-119164463D01*
X80865112Y-119461000D01*
X80185000Y-119461000D01*
X80185000Y-100073947D01*
X92346658Y-100073947D01*
X92460621Y-100353773D01*
X93115629Y-100601170D01*
X93815451Y-100579075D01*
X94359379Y-100353773D01*
X94473342Y-100073947D01*
X97426658Y-100073947D01*
X97540621Y-100353773D01*
X98195629Y-100601170D01*
X98895451Y-100579075D01*
X99439379Y-100353773D01*
X99553342Y-100073947D01*
X98490000Y-99010605D01*
X97426658Y-100073947D01*
X94473342Y-100073947D01*
X93410000Y-99010605D01*
X92346658Y-100073947D01*
X80185000Y-100073947D01*
X80185000Y-98536629D01*
X91639830Y-98536629D01*
X91661925Y-99236451D01*
X91887227Y-99780379D01*
X92167053Y-99894342D01*
X93230395Y-98831000D01*
X93589605Y-98831000D01*
X94652947Y-99894342D01*
X94932773Y-99780379D01*
X95180170Y-99125371D01*
X95161583Y-98536629D01*
X96719830Y-98536629D01*
X96741925Y-99236451D01*
X96967227Y-99780379D01*
X97247053Y-99894342D01*
X98310395Y-98831000D01*
X98669605Y-98831000D01*
X99732947Y-99894342D01*
X100012773Y-99780379D01*
X100260170Y-99125371D01*
X100238075Y-98425549D01*
X100012773Y-97881621D01*
X99732947Y-97767658D01*
X98669605Y-98831000D01*
X98310395Y-98831000D01*
X97247053Y-97767658D01*
X96967227Y-97881621D01*
X96719830Y-98536629D01*
X95161583Y-98536629D01*
X95158075Y-98425549D01*
X94932773Y-97881621D01*
X94652947Y-97767658D01*
X93589605Y-98831000D01*
X93230395Y-98831000D01*
X92167053Y-97767658D01*
X91887227Y-97881621D01*
X91639830Y-98536629D01*
X80185000Y-98536629D01*
X80185000Y-97588053D01*
X92346658Y-97588053D01*
X93410000Y-98651395D01*
X94473342Y-97588053D01*
X94359379Y-97308227D01*
X93704371Y-97060830D01*
X93004549Y-97082925D01*
X92460621Y-97308227D01*
X92346658Y-97588053D01*
X80185000Y-97588053D01*
X80185000Y-94312159D01*
X80965000Y-94312159D01*
X80965000Y-95101841D01*
X81267199Y-95831412D01*
X81825588Y-96389801D01*
X82555159Y-96692000D01*
X83344841Y-96692000D01*
X84074412Y-96389801D01*
X84503407Y-95960806D01*
X94290000Y-95960806D01*
X94290000Y-96621194D01*
X94542720Y-97231314D01*
X95009686Y-97698280D01*
X95619806Y-97951000D01*
X96280194Y-97951000D01*
X96890314Y-97698280D01*
X97000541Y-97588053D01*
X97426658Y-97588053D01*
X98490000Y-98651395D01*
X99553342Y-97588053D01*
X99439379Y-97308227D01*
X98784371Y-97060830D01*
X98084549Y-97082925D01*
X97540621Y-97308227D01*
X97426658Y-97588053D01*
X97000541Y-97588053D01*
X97357280Y-97231314D01*
X97610000Y-96621194D01*
X97610000Y-95960806D01*
X97357280Y-95350686D01*
X97000541Y-94993947D01*
X97426658Y-94993947D01*
X97540621Y-95273773D01*
X98195629Y-95521170D01*
X98895451Y-95499075D01*
X99439379Y-95273773D01*
X99553342Y-94993947D01*
X98490000Y-93930605D01*
X97426658Y-94993947D01*
X97000541Y-94993947D01*
X96890314Y-94883720D01*
X96280194Y-94631000D01*
X95619806Y-94631000D01*
X95009686Y-94883720D01*
X94542720Y-95350686D01*
X94290000Y-95960806D01*
X84503407Y-95960806D01*
X84632801Y-95831412D01*
X84935000Y-95101841D01*
X84935000Y-94993947D01*
X92346658Y-94993947D01*
X92460621Y-95273773D01*
X93115629Y-95521170D01*
X93815451Y-95499075D01*
X94359379Y-95273773D01*
X94473342Y-94993947D01*
X93410000Y-93930605D01*
X92346658Y-94993947D01*
X84935000Y-94993947D01*
X84935000Y-94312159D01*
X84632801Y-93582588D01*
X84506842Y-93456629D01*
X91639830Y-93456629D01*
X91661925Y-94156451D01*
X91887227Y-94700379D01*
X92167053Y-94814342D01*
X93230395Y-93751000D01*
X93589605Y-93751000D01*
X94652947Y-94814342D01*
X94932773Y-94700379D01*
X95180170Y-94045371D01*
X95161583Y-93456629D01*
X96719830Y-93456629D01*
X96741925Y-94156451D01*
X96967227Y-94700379D01*
X97247053Y-94814342D01*
X98310395Y-93751000D01*
X98669605Y-93751000D01*
X99732947Y-94814342D01*
X100012773Y-94700379D01*
X100166957Y-94292159D01*
X106975000Y-94292159D01*
X106975000Y-95081841D01*
X107277199Y-95811412D01*
X107835588Y-96369801D01*
X108565159Y-96672000D01*
X109354841Y-96672000D01*
X110084412Y-96369801D01*
X110642801Y-95811412D01*
X110945000Y-95081841D01*
X110945000Y-94312159D01*
X129965000Y-94312159D01*
X129965000Y-95101841D01*
X130267199Y-95831412D01*
X130825588Y-96389801D01*
X131555159Y-96692000D01*
X132344841Y-96692000D01*
X133074412Y-96389801D01*
X133632801Y-95831412D01*
X133935000Y-95101841D01*
X133935000Y-94312159D01*
X133632801Y-93582588D01*
X133074412Y-93024199D01*
X132344841Y-92722000D01*
X131555159Y-92722000D01*
X130825588Y-93024199D01*
X130267199Y-93582588D01*
X129965000Y-94312159D01*
X110945000Y-94312159D01*
X110945000Y-94292159D01*
X110642801Y-93562588D01*
X110084412Y-93004199D01*
X109354841Y-92702000D01*
X108565159Y-92702000D01*
X107835588Y-93004199D01*
X107277199Y-93562588D01*
X106975000Y-94292159D01*
X100166957Y-94292159D01*
X100260170Y-94045371D01*
X100238075Y-93345549D01*
X100012773Y-92801621D01*
X99732947Y-92687658D01*
X98669605Y-93751000D01*
X98310395Y-93751000D01*
X97247053Y-92687658D01*
X96967227Y-92801621D01*
X96719830Y-93456629D01*
X95161583Y-93456629D01*
X95158075Y-93345549D01*
X94932773Y-92801621D01*
X94652947Y-92687658D01*
X93589605Y-93751000D01*
X93230395Y-93751000D01*
X92167053Y-92687658D01*
X91887227Y-92801621D01*
X91639830Y-93456629D01*
X84506842Y-93456629D01*
X84074412Y-93024199D01*
X83344841Y-92722000D01*
X82555159Y-92722000D01*
X81825588Y-93024199D01*
X81267199Y-93582588D01*
X80965000Y-94312159D01*
X80185000Y-94312159D01*
X80185000Y-92508053D01*
X92346658Y-92508053D01*
X93410000Y-93571395D01*
X94473342Y-92508053D01*
X97426658Y-92508053D01*
X98490000Y-93571395D01*
X99553342Y-92508053D01*
X99439379Y-92228227D01*
X98784371Y-91980830D01*
X98084549Y-92002925D01*
X97540621Y-92228227D01*
X97426658Y-92508053D01*
X94473342Y-92508053D01*
X94359379Y-92228227D01*
X93704371Y-91980830D01*
X93004549Y-92002925D01*
X92460621Y-92228227D01*
X92346658Y-92508053D01*
X80185000Y-92508053D01*
X80185000Y-91926000D01*
X135215000Y-91926000D01*
X135215001Y-155456000D01*
X135215001Y-155456000D01*
G37*
X135215001Y-155456000D02*
X80185000Y-155456000D01*
X80185000Y-152296159D01*
X80917800Y-152296159D01*
X80917800Y-153085841D01*
X81219999Y-153815412D01*
X81778388Y-154373801D01*
X82507959Y-154676000D01*
X83297641Y-154676000D01*
X84027212Y-154373801D01*
X84585601Y-153815412D01*
X84887800Y-153085841D01*
X84887800Y-152296159D01*
X106924000Y-152296159D01*
X106924000Y-153085841D01*
X107226199Y-153815412D01*
X107784588Y-154373801D01*
X108514159Y-154676000D01*
X109303841Y-154676000D01*
X110033412Y-154373801D01*
X110591801Y-153815412D01*
X110894000Y-153085841D01*
X110894000Y-152296159D01*
X129965000Y-152296159D01*
X129965000Y-153085841D01*
X130267199Y-153815412D01*
X130825588Y-154373801D01*
X131555159Y-154676000D01*
X132344841Y-154676000D01*
X133074412Y-154373801D01*
X133632801Y-153815412D01*
X133935000Y-153085841D01*
X133935000Y-152296159D01*
X133632801Y-151566588D01*
X133074412Y-151008199D01*
X132344841Y-150706000D01*
X131555159Y-150706000D01*
X130825588Y-151008199D01*
X130267199Y-151566588D01*
X129965000Y-152296159D01*
X110894000Y-152296159D01*
X110591801Y-151566588D01*
X110033412Y-151008199D01*
X109303841Y-150706000D01*
X108514159Y-150706000D01*
X107784588Y-151008199D01*
X107226199Y-151566588D01*
X106924000Y-152296159D01*
X84887800Y-152296159D01*
X84585601Y-151566588D01*
X84027212Y-151008199D01*
X83297641Y-150706000D01*
X82507959Y-150706000D01*
X81778388Y-151008199D01*
X81219999Y-151566588D01*
X80917800Y-152296159D01*
X80185000Y-152296159D01*
X80185000Y-148275561D01*
X86015000Y-148275561D01*
X86015000Y-148846439D01*
X86233466Y-149373862D01*
X86637138Y-149777534D01*
X87164561Y-149996000D01*
X87735439Y-149996000D01*
X88262862Y-149777534D01*
X88666534Y-149373862D01*
X88885000Y-148846439D01*
X88885000Y-148275561D01*
X89515000Y-148275561D01*
X89515000Y-148846439D01*
X89733466Y-149373862D01*
X90137138Y-149777534D01*
X90664561Y-149996000D01*
X91235439Y-149996000D01*
X91762862Y-149777534D01*
X92166534Y-149373862D01*
X92358655Y-148910041D01*
X99058086Y-148910041D01*
X99297611Y-149416134D01*
X99712577Y-149792041D01*
X100100961Y-149952904D01*
X100323000Y-149830915D01*
X100323000Y-148688000D01*
X100577000Y-148688000D01*
X100577000Y-149830915D01*
X100799039Y-149952904D01*
X101187423Y-149792041D01*
X101602389Y-149416134D01*
X101841914Y-148910041D01*
X102558086Y-148910041D01*
X102797611Y-149416134D01*
X103212577Y-149792041D01*
X103600961Y-149952904D01*
X103823000Y-149830915D01*
X103823000Y-148688000D01*
X104077000Y-148688000D01*
X104077000Y-149830915D01*
X104299039Y-149952904D01*
X104687423Y-149792041D01*
X105102389Y-149416134D01*
X105341914Y-148910041D01*
X106058086Y-148910041D01*
X106297611Y-149416134D01*
X106712577Y-149792041D01*
X107100961Y-149952904D01*
X107323000Y-149830915D01*
X107323000Y-148688000D01*
X107577000Y-148688000D01*
X107577000Y-149830915D01*
X107799039Y-149952904D01*
X108187423Y-149792041D01*
X108602389Y-149416134D01*
X108841914Y-148910041D01*
X109558086Y-148910041D01*
X109797611Y-149416134D01*
X110212577Y-149792041D01*
X110600961Y-149952904D01*
X110823000Y-149830915D01*
X110823000Y-148688000D01*
X111077000Y-148688000D01*
X111077000Y-149830915D01*
X111299039Y-149952904D01*
X111687423Y-149792041D01*
X112102389Y-149416134D01*
X112341914Y-148910041D01*
X113058086Y-148910041D01*
X113297611Y-149416134D01*
X113712577Y-149792041D01*
X114100961Y-149952904D01*
X114323000Y-149830915D01*
X114323000Y-148688000D01*
X114577000Y-148688000D01*
X114577000Y-149830915D01*
X114799039Y-149952904D01*
X115187423Y-149792041D01*
X115602389Y-149416134D01*
X115841914Y-148910041D01*
X115720629Y-148688000D01*
X114577000Y-148688000D01*
X114323000Y-148688000D01*
X113179371Y-148688000D01*
X113058086Y-148910041D01*
X112341914Y-148910041D01*
X112220629Y-148688000D01*
X111077000Y-148688000D01*
X110823000Y-148688000D01*
X109679371Y-148688000D01*
X109558086Y-148910041D01*
X108841914Y-148910041D01*
X108720629Y-148688000D01*
X107577000Y-148688000D01*
X107323000Y-148688000D01*
X106179371Y-148688000D01*
X106058086Y-148910041D01*
X105341914Y-148910041D01*
X105220629Y-148688000D01*
X104077000Y-148688000D01*
X103823000Y-148688000D01*
X102679371Y-148688000D01*
X102558086Y-148910041D01*
X101841914Y-148910041D01*
X101720629Y-148688000D01*
X100577000Y-148688000D01*
X100323000Y-148688000D01*
X99179371Y-148688000D01*
X99058086Y-148910041D01*
X92358655Y-148910041D01*
X92385000Y-148846439D01*
X92385000Y-148275561D01*
X92358656Y-148211959D01*
X99058086Y-148211959D01*
X99179371Y-148434000D01*
X100323000Y-148434000D01*
X100323000Y-147291085D01*
X100577000Y-147291085D01*
X100577000Y-148434000D01*
X101720629Y-148434000D01*
X101841914Y-148211959D01*
X102558086Y-148211959D01*
X102679371Y-148434000D01*
X103823000Y-148434000D01*
X103823000Y-147291085D01*
X104077000Y-147291085D01*
X104077000Y-148434000D01*
X105220629Y-148434000D01*
X105341914Y-148211959D01*
X106058086Y-148211959D01*
X106179371Y-148434000D01*
X107323000Y-148434000D01*
X107323000Y-147291085D01*
X107577000Y-147291085D01*
X107577000Y-148434000D01*
X108720629Y-148434000D01*
X108841914Y-148211959D01*
X109558086Y-148211959D01*
X109679371Y-148434000D01*
X110823000Y-148434000D01*
X110823000Y-147291085D01*
X111077000Y-147291085D01*
X111077000Y-148434000D01*
X112220629Y-148434000D01*
X112341914Y-148211959D01*
X113058086Y-148211959D01*
X113179371Y-148434000D01*
X114323000Y-148434000D01*
X114323000Y-147291085D01*
X114577000Y-147291085D01*
X114577000Y-148434000D01*
X115720629Y-148434000D01*
X115841914Y-148211959D01*
X115831507Y-148189970D01*
X129246204Y-148189970D01*
X129416035Y-148600004D01*
X129806322Y-149028263D01*
X130330788Y-149274566D01*
X130560680Y-149153899D01*
X130560680Y-147960080D01*
X129367525Y-147960080D01*
X129246204Y-148189970D01*
X115831507Y-148189970D01*
X115602389Y-147705866D01*
X115187423Y-147329959D01*
X114799039Y-147169096D01*
X114577000Y-147291085D01*
X114323000Y-147291085D01*
X114100961Y-147169096D01*
X113712577Y-147329959D01*
X113297611Y-147705866D01*
X113058086Y-148211959D01*
X112341914Y-148211959D01*
X112102389Y-147705866D01*
X111687423Y-147329959D01*
X111299039Y-147169096D01*
X111077000Y-147291085D01*
X110823000Y-147291085D01*
X110600961Y-147169096D01*
X110212577Y-147329959D01*
X109797611Y-147705866D01*
X109558086Y-148211959D01*
X108841914Y-148211959D01*
X108602389Y-147705866D01*
X108187423Y-147329959D01*
X107799039Y-147169096D01*
X107577000Y-147291085D01*
X107323000Y-147291085D01*
X107100961Y-147169096D01*
X106712577Y-147329959D01*
X106297611Y-147705866D01*
X106058086Y-148211959D01*
X105341914Y-148211959D01*
X105102389Y-147705866D01*
X104687423Y-147329959D01*
X104299039Y-147169096D01*
X104077000Y-147291085D01*
X103823000Y-147291085D01*
X103600961Y-147169096D01*
X103212577Y-147329959D01*
X102797611Y-147705866D01*
X102558086Y-148211959D01*
X101841914Y-148211959D01*
X101602389Y-147705866D01*
X101187423Y-147329959D01*
X100799039Y-147169096D01*
X100577000Y-147291085D01*
X100323000Y-147291085D01*
X100100961Y-147169096D01*
X99712577Y-147329959D01*
X99297611Y-147705866D01*
X99058086Y-148211959D01*
X92358656Y-148211959D01*
X92166534Y-147748138D01*
X91762862Y-147344466D01*
X91235439Y-147126000D01*
X90664561Y-147126000D01*
X90137138Y-147344466D01*
X89733466Y-147748138D01*
X89515000Y-148275561D01*
X88885000Y-148275561D01*
X88666534Y-147748138D01*
X88262862Y-147344466D01*
X87735439Y-147126000D01*
X87164561Y-147126000D01*
X86637138Y-147344466D01*
X86233466Y-147748138D01*
X86015000Y-148275561D01*
X80185000Y-148275561D01*
X80185000Y-140941000D01*
X85986887Y-140941000D01*
X86098260Y-141500909D01*
X86415423Y-141975577D01*
X86890091Y-142292740D01*
X87308667Y-142376000D01*
X87591333Y-142376000D01*
X88009909Y-142292740D01*
X88484577Y-141975577D01*
X88801740Y-141500909D01*
X88913113Y-140941000D01*
X89486887Y-140941000D01*
X89598260Y-141500909D01*
X89915423Y-141975577D01*
X90390091Y-142292740D01*
X90808667Y-142376000D01*
X91091333Y-142376000D01*
X91509909Y-142292740D01*
X91984577Y-141975577D01*
X92301740Y-141500909D01*
X92413113Y-140941000D01*
X92301740Y-140381091D01*
X91984577Y-139906423D01*
X91509909Y-139589260D01*
X91091333Y-139506000D01*
X90808667Y-139506000D01*
X90390091Y-139589260D01*
X89915423Y-139906423D01*
X89598260Y-140381091D01*
X89486887Y-140941000D01*
X88913113Y-140941000D01*
X88801740Y-140381091D01*
X88484577Y-139906423D01*
X88009909Y-139589260D01*
X87591333Y-139506000D01*
X87308667Y-139506000D01*
X86890091Y-139589260D01*
X86415423Y-139906423D01*
X86098260Y-140381091D01*
X85986887Y-140941000D01*
X80185000Y-140941000D01*
X80185000Y-129221000D01*
X81952560Y-129221000D01*
X81952560Y-130921000D01*
X82001843Y-131168765D01*
X82142191Y-131378809D01*
X82352235Y-131519157D01*
X82455708Y-131539739D01*
X82178355Y-131844076D01*
X82008524Y-132254110D01*
X82129845Y-132484000D01*
X83323000Y-132484000D01*
X83323000Y-132464000D01*
X83577000Y-132464000D01*
X83577000Y-132484000D01*
X84770155Y-132484000D01*
X84891476Y-132254110D01*
X84721645Y-131844076D01*
X84444292Y-131539739D01*
X84547765Y-131519157D01*
X84757809Y-131378809D01*
X84898157Y-131168765D01*
X84947440Y-130921000D01*
X84947440Y-129221000D01*
X84898157Y-128973235D01*
X84757809Y-128763191D01*
X84547765Y-128622843D01*
X84300000Y-128573560D01*
X82600000Y-128573560D01*
X82352235Y-128622843D01*
X82142191Y-128763191D01*
X82001843Y-128973235D01*
X81952560Y-129221000D01*
X80185000Y-129221000D01*
X80185000Y-119461000D01*
X80865112Y-119461000D01*
X80880001Y-119535852D01*
X80880000Y-124122153D01*
X80865112Y-124197000D01*
X80880000Y-124271847D01*
X80880000Y-124271851D01*
X80924096Y-124493536D01*
X81092071Y-124744929D01*
X81155530Y-124787331D01*
X85421670Y-129053472D01*
X85421669Y-133423867D01*
X84618573Y-134226964D01*
X84520625Y-134080375D01*
X84201522Y-133867157D01*
X84331358Y-133806183D01*
X84721645Y-133377924D01*
X84891476Y-132967890D01*
X84770155Y-132738000D01*
X83577000Y-132738000D01*
X83577000Y-132758000D01*
X83323000Y-132758000D01*
X83323000Y-132738000D01*
X82129845Y-132738000D01*
X82008524Y-132967890D01*
X82178355Y-133377924D01*
X82568642Y-133806183D01*
X82698478Y-133867157D01*
X82379375Y-134080375D01*
X82051161Y-134571582D01*
X81935908Y-135151000D01*
X82051161Y-135730418D01*
X82379375Y-136221625D01*
X82677761Y-136421000D01*
X82379375Y-136620375D01*
X82051161Y-137111582D01*
X81935908Y-137691000D01*
X82051161Y-138270418D01*
X82379375Y-138761625D01*
X82870582Y-139089839D01*
X83303744Y-139176000D01*
X83596256Y-139176000D01*
X84029418Y-139089839D01*
X84520625Y-138761625D01*
X84728178Y-138451000D01*
X85154491Y-138451000D01*
X85229338Y-138465888D01*
X85304185Y-138451000D01*
X85304190Y-138451000D01*
X85525875Y-138406904D01*
X85777267Y-138238929D01*
X85819669Y-138175470D01*
X86629361Y-137365778D01*
X92315000Y-137365778D01*
X92315000Y-138016222D01*
X92563914Y-138617153D01*
X93023847Y-139077086D01*
X93624778Y-139326000D01*
X94275222Y-139326000D01*
X94876153Y-139077086D01*
X95336086Y-138617153D01*
X95404909Y-138451000D01*
X98995091Y-138451000D01*
X99063914Y-138617153D01*
X99523847Y-139077086D01*
X100124778Y-139326000D01*
X100775222Y-139326000D01*
X101376153Y-139077086D01*
X101836086Y-138617153D01*
X102085000Y-138016222D01*
X102085000Y-137365778D01*
X102525000Y-137365778D01*
X102525000Y-138016222D01*
X102773914Y-138617153D01*
X103233847Y-139077086D01*
X103834778Y-139326000D01*
X104485222Y-139326000D01*
X105086153Y-139077086D01*
X105546086Y-138617153D01*
X105795000Y-138016222D01*
X105795000Y-137365778D01*
X105546086Y-136764847D01*
X105086153Y-136304914D01*
X104485222Y-136056000D01*
X103834778Y-136056000D01*
X103233847Y-136304914D01*
X102773914Y-136764847D01*
X102525000Y-137365778D01*
X102085000Y-137365778D01*
X101836086Y-136764847D01*
X101376153Y-136304914D01*
X100775222Y-136056000D01*
X100124778Y-136056000D01*
X99523847Y-136304914D01*
X99063914Y-136764847D01*
X98995091Y-136931000D01*
X95404909Y-136931000D01*
X95336086Y-136764847D01*
X94876153Y-136304914D01*
X94275222Y-136056000D01*
X93624778Y-136056000D01*
X93023847Y-136304914D01*
X92563914Y-136764847D01*
X92315000Y-137365778D01*
X86629361Y-137365778D01*
X88698145Y-135296996D01*
X88761598Y-135254598D01*
X88803996Y-135191145D01*
X88803998Y-135191143D01*
X88887771Y-135065767D01*
X88929573Y-135003206D01*
X88973669Y-134781521D01*
X88973669Y-134781517D01*
X88988557Y-134706670D01*
X88973669Y-134631823D01*
X88973669Y-132865778D01*
X92315000Y-132865778D01*
X92315000Y-133516222D01*
X92563914Y-134117153D01*
X93023847Y-134577086D01*
X93624778Y-134826000D01*
X94275222Y-134826000D01*
X94876153Y-134577086D01*
X95336086Y-134117153D01*
X95585000Y-133516222D01*
X95585000Y-132865778D01*
X98815000Y-132865778D01*
X98815000Y-133516222D01*
X99063914Y-134117153D01*
X99523847Y-134577086D01*
X100124778Y-134826000D01*
X100775222Y-134826000D01*
X101376153Y-134577086D01*
X101836086Y-134117153D01*
X102085000Y-133516222D01*
X102085000Y-132865778D01*
X102525000Y-132865778D01*
X102525000Y-133516222D01*
X102773914Y-134117153D01*
X103233847Y-134577086D01*
X103834778Y-134826000D01*
X104485222Y-134826000D01*
X105086153Y-134577086D01*
X105546086Y-134117153D01*
X105795000Y-133516222D01*
X105795000Y-132865778D01*
X109025000Y-132865778D01*
X109025000Y-133516222D01*
X109273914Y-134117153D01*
X109733847Y-134577086D01*
X110334778Y-134826000D01*
X110985222Y-134826000D01*
X111586153Y-134577086D01*
X112046086Y-134117153D01*
X112295000Y-133516222D01*
X112295000Y-132865778D01*
X112046086Y-132264847D01*
X111586153Y-131804914D01*
X110985222Y-131556000D01*
X110334778Y-131556000D01*
X109733847Y-131804914D01*
X109273914Y-132264847D01*
X109025000Y-132865778D01*
X105795000Y-132865778D01*
X105546086Y-132264847D01*
X105086153Y-131804914D01*
X104485222Y-131556000D01*
X103834778Y-131556000D01*
X103233847Y-131804914D01*
X102773914Y-132264847D01*
X102525000Y-132865778D01*
X102085000Y-132865778D01*
X101836086Y-132264847D01*
X101376153Y-131804914D01*
X100775222Y-131556000D01*
X100124778Y-131556000D01*
X99523847Y-131804914D01*
X99063914Y-132264847D01*
X98815000Y-132865778D01*
X95585000Y-132865778D01*
X95336086Y-132264847D01*
X94876153Y-131804914D01*
X94275222Y-131556000D01*
X93624778Y-131556000D01*
X93023847Y-131804914D01*
X92563914Y-132264847D01*
X92315000Y-132865778D01*
X88973669Y-132865778D01*
X88973669Y-127987635D01*
X94315000Y-127987635D01*
X94315000Y-128638079D01*
X94563914Y-129239010D01*
X95023847Y-129698943D01*
X95624778Y-129947857D01*
X96275222Y-129947857D01*
X96876153Y-129698943D01*
X97336086Y-129239010D01*
X97585000Y-128638079D01*
X97585000Y-127987635D01*
X97336086Y-127386704D01*
X96876153Y-126926771D01*
X96275222Y-126677857D01*
X95624778Y-126677857D01*
X95023847Y-126926771D01*
X94563914Y-127386704D01*
X94315000Y-127987635D01*
X88973669Y-127987635D01*
X88973669Y-127797516D01*
X88988557Y-127722669D01*
X88973669Y-127647822D01*
X88973669Y-127647817D01*
X88929573Y-127426132D01*
X88761598Y-127174740D01*
X88698142Y-127132340D01*
X84441669Y-122875868D01*
X84441669Y-120734132D01*
X87224803Y-117951000D01*
X101835153Y-117951000D01*
X101910000Y-117965888D01*
X101984847Y-117951000D01*
X101984852Y-117951000D01*
X102206537Y-117906904D01*
X102457929Y-117738929D01*
X102500331Y-117675470D01*
X106210023Y-113965778D01*
X121315000Y-113965778D01*
X121315000Y-114616222D01*
X121563914Y-115217153D01*
X122023847Y-115677086D01*
X122624778Y-115926000D01*
X123275222Y-115926000D01*
X123876153Y-115677086D01*
X124336086Y-115217153D01*
X124585000Y-114616222D01*
X124585000Y-113965778D01*
X125815000Y-113965778D01*
X125815000Y-114616222D01*
X126063914Y-115217153D01*
X126523847Y-115677086D01*
X127124778Y-115926000D01*
X127775222Y-115926000D01*
X128376153Y-115677086D01*
X128836086Y-115217153D01*
X129085000Y-114616222D01*
X129085000Y-113965778D01*
X128836086Y-113364847D01*
X128376153Y-112904914D01*
X127775222Y-112656000D01*
X127124778Y-112656000D01*
X126523847Y-112904914D01*
X126063914Y-113364847D01*
X125815000Y-113965778D01*
X124585000Y-113965778D01*
X124336086Y-113364847D01*
X123876153Y-112904914D01*
X123275222Y-112656000D01*
X122624778Y-112656000D01*
X122023847Y-112904914D01*
X121563914Y-113364847D01*
X121315000Y-113965778D01*
X106210023Y-113965778D01*
X111744473Y-108431329D01*
X111807929Y-108388929D01*
X111891601Y-108263705D01*
X111975904Y-108137538D01*
X111985480Y-108089395D01*
X112020000Y-107915852D01*
X112020000Y-107915848D01*
X112034888Y-107841000D01*
X112020000Y-107766152D01*
X112020000Y-106091035D01*
X112330625Y-105883482D01*
X112658839Y-105392275D01*
X112774092Y-104812857D01*
X112658839Y-104233439D01*
X112330625Y-103742232D01*
X111839418Y-103414018D01*
X111406256Y-103327857D01*
X111113744Y-103327857D01*
X110680582Y-103414018D01*
X110189375Y-103742232D01*
X109990000Y-104040618D01*
X109790625Y-103742232D01*
X109299418Y-103414018D01*
X108866256Y-103327857D01*
X108573744Y-103327857D01*
X108140582Y-103414018D01*
X107649375Y-103742232D01*
X107450000Y-104040618D01*
X107250625Y-103742232D01*
X107065000Y-103618201D01*
X107065000Y-102076000D01*
X122562839Y-102076000D01*
X122650000Y-102093337D01*
X122737161Y-102076000D01*
X122737165Y-102076000D01*
X122995310Y-102024652D01*
X123288049Y-101829049D01*
X123337425Y-101755153D01*
X124464156Y-100628423D01*
X124538049Y-100579049D01*
X124607294Y-100475418D01*
X124733652Y-100286310D01*
X124748606Y-100211129D01*
X124785000Y-100028165D01*
X124785000Y-100028161D01*
X124802337Y-99941000D01*
X124785000Y-99853839D01*
X124785000Y-97778161D01*
X124802337Y-97691000D01*
X124785000Y-97603839D01*
X124785000Y-97603835D01*
X124733652Y-97345690D01*
X124638680Y-97203555D01*
X124587424Y-97126845D01*
X124587423Y-97126844D01*
X124538049Y-97052951D01*
X124464156Y-97003577D01*
X123987460Y-96526882D01*
X125791091Y-96526882D01*
X126815001Y-97550793D01*
X126815000Y-99485915D01*
X126797662Y-99573080D01*
X126815001Y-99660249D01*
X126815000Y-103938821D01*
X126347822Y-104406000D01*
X124122948Y-104406000D01*
X124035787Y-104388663D01*
X123948626Y-104406000D01*
X123948622Y-104406000D01*
X123690477Y-104457348D01*
X123471632Y-104603576D01*
X123471631Y-104603577D01*
X123397738Y-104652951D01*
X123348364Y-104726844D01*
X122385845Y-105689364D01*
X122311952Y-105738738D01*
X122262578Y-105812631D01*
X122262576Y-105812633D01*
X122116348Y-106031478D01*
X122047663Y-106376787D01*
X122051019Y-106393659D01*
X122023847Y-106404914D01*
X121563914Y-106864847D01*
X121315000Y-107465778D01*
X121315000Y-108116222D01*
X121563914Y-108717153D01*
X122023847Y-109177086D01*
X122624778Y-109426000D01*
X123275222Y-109426000D01*
X123876153Y-109177086D01*
X124336086Y-108717153D01*
X124585000Y-108116222D01*
X124585000Y-107465778D01*
X125815000Y-107465778D01*
X125815000Y-108116222D01*
X126063914Y-108717153D01*
X126523847Y-109177086D01*
X127124778Y-109426000D01*
X127775222Y-109426000D01*
X128376153Y-109177086D01*
X128836086Y-108717153D01*
X129085000Y-108116222D01*
X129085000Y-107465778D01*
X128836086Y-106864847D01*
X128376153Y-106404914D01*
X127775222Y-106156000D01*
X127124778Y-106156000D01*
X126523847Y-106404914D01*
X126063914Y-106864847D01*
X125815000Y-107465778D01*
X124585000Y-107465778D01*
X124336086Y-106864847D01*
X124024802Y-106553563D01*
X124402366Y-106176000D01*
X126627239Y-106176000D01*
X126714400Y-106193337D01*
X126801561Y-106176000D01*
X126801565Y-106176000D01*
X127059710Y-106124652D01*
X127352449Y-105929049D01*
X127401825Y-105855153D01*
X128264156Y-104992823D01*
X128338049Y-104943449D01*
X128425309Y-104812857D01*
X128533652Y-104650710D01*
X128558442Y-104526080D01*
X128585000Y-104392565D01*
X128585000Y-104392561D01*
X128602337Y-104305400D01*
X128585000Y-104218239D01*
X128585000Y-100458080D01*
X129197202Y-100458080D01*
X129239523Y-100670845D01*
X129379871Y-100880889D01*
X129589915Y-101021237D01*
X129635299Y-101030264D01*
X129617055Y-101042455D01*
X129288841Y-101533662D01*
X129173588Y-102113080D01*
X129288841Y-102692498D01*
X129617055Y-103183705D01*
X129915441Y-103383080D01*
X129617055Y-103582455D01*
X129288841Y-104073662D01*
X129173588Y-104653080D01*
X129288841Y-105232498D01*
X129617055Y-105723705D01*
X129915441Y-105923080D01*
X129617055Y-106122455D01*
X129288841Y-106613662D01*
X129173588Y-107193080D01*
X129288841Y-107772498D01*
X129617055Y-108263705D01*
X129936158Y-108476923D01*
X129806322Y-108537897D01*
X129416035Y-108966156D01*
X129246204Y-109376190D01*
X129367525Y-109606080D01*
X130560680Y-109606080D01*
X130560680Y-109586080D01*
X130814680Y-109586080D01*
X130814680Y-109606080D01*
X130834680Y-109606080D01*
X130834680Y-109860080D01*
X130814680Y-109860080D01*
X130814680Y-109880080D01*
X130560680Y-109880080D01*
X130560680Y-109860080D01*
X129367525Y-109860080D01*
X129246204Y-110089970D01*
X129416035Y-110500004D01*
X129806322Y-110928263D01*
X129936158Y-110989237D01*
X129617055Y-111202455D01*
X129288841Y-111693662D01*
X129173588Y-112273080D01*
X129288841Y-112852498D01*
X129617055Y-113343705D01*
X129915441Y-113543080D01*
X129617055Y-113742455D01*
X129288841Y-114233662D01*
X129173588Y-114813080D01*
X129288841Y-115392498D01*
X129617055Y-115883705D01*
X129915441Y-116083080D01*
X129617055Y-116282455D01*
X129288841Y-116773662D01*
X129173588Y-117353080D01*
X129288841Y-117932498D01*
X129617055Y-118423705D01*
X129915441Y-118623080D01*
X129617055Y-118822455D01*
X129288841Y-119313662D01*
X129181700Y-119852299D01*
X128858011Y-119528610D01*
X128815609Y-119465151D01*
X128564217Y-119297176D01*
X128342532Y-119253080D01*
X128342527Y-119253080D01*
X128267680Y-119238192D01*
X128192833Y-119253080D01*
X127951266Y-119253080D01*
X128376153Y-119077086D01*
X128836086Y-118617153D01*
X129085000Y-118016222D01*
X129085000Y-117365778D01*
X128836086Y-116764847D01*
X128376153Y-116304914D01*
X127775222Y-116056000D01*
X127124778Y-116056000D01*
X126523847Y-116304914D01*
X126063914Y-116764847D01*
X125815000Y-117365778D01*
X125815000Y-118016222D01*
X126063914Y-118617153D01*
X126523847Y-119077086D01*
X126948734Y-119253080D01*
X123451266Y-119253080D01*
X123876153Y-119077086D01*
X124336086Y-118617153D01*
X124585000Y-118016222D01*
X124585000Y-117365778D01*
X124336086Y-116764847D01*
X123876153Y-116304914D01*
X123275222Y-116056000D01*
X122624778Y-116056000D01*
X122023847Y-116304914D01*
X121563914Y-116764847D01*
X121315000Y-117365778D01*
X121315000Y-118016222D01*
X121563914Y-118617153D01*
X122023847Y-119077086D01*
X122448734Y-119253080D01*
X88391391Y-119253080D01*
X88273960Y-119135649D01*
X87893554Y-118978080D01*
X87481806Y-118978080D01*
X87101400Y-119135649D01*
X86810249Y-119426800D01*
X86652680Y-119807206D01*
X86652680Y-120218954D01*
X86810249Y-120599360D01*
X87101400Y-120890511D01*
X87481806Y-121048080D01*
X87893554Y-121048080D01*
X88273960Y-120890511D01*
X88391391Y-120773080D01*
X127952879Y-120773080D01*
X129246471Y-122066672D01*
X129181700Y-122392299D01*
X128245931Y-121456530D01*
X128203529Y-121393071D01*
X127952137Y-121225096D01*
X127730452Y-121181000D01*
X127730447Y-121181000D01*
X127655600Y-121166112D01*
X127580753Y-121181000D01*
X86409311Y-121181000D01*
X86291880Y-121063569D01*
X85911474Y-120906000D01*
X85499726Y-120906000D01*
X85119320Y-121063569D01*
X84828169Y-121354720D01*
X84670600Y-121735126D01*
X84670600Y-122146874D01*
X84828169Y-122527280D01*
X85119320Y-122818431D01*
X85499726Y-122976000D01*
X85911474Y-122976000D01*
X86291880Y-122818431D01*
X86409311Y-122701000D01*
X122274717Y-122701000D01*
X122023847Y-122804914D01*
X121563914Y-123264847D01*
X121315000Y-123865778D01*
X121315000Y-124131198D01*
X120462411Y-123278610D01*
X120420009Y-123215151D01*
X120168617Y-123047176D01*
X119946932Y-123003080D01*
X119946927Y-123003080D01*
X119872080Y-122988192D01*
X119797233Y-123003080D01*
X92391391Y-123003080D01*
X92273960Y-122885649D01*
X91893554Y-122728080D01*
X91481806Y-122728080D01*
X91101400Y-122885649D01*
X90810249Y-123176800D01*
X90652680Y-123557206D01*
X90652680Y-123968954D01*
X90810249Y-124349360D01*
X91101400Y-124640511D01*
X91481806Y-124798080D01*
X91893554Y-124798080D01*
X92273960Y-124640511D01*
X92391391Y-124523080D01*
X119557279Y-124523080D01*
X121751753Y-126717556D01*
X121794151Y-126781009D01*
X121857604Y-126823407D01*
X121857606Y-126823409D01*
X121982982Y-126907182D01*
X122045543Y-126948984D01*
X122267228Y-126993080D01*
X122267232Y-126993080D01*
X122342079Y-127007968D01*
X122416926Y-126993080D01*
X129121089Y-126993080D01*
X129097352Y-127028606D01*
X128712879Y-127413080D01*
X122396882Y-127413080D01*
X120141213Y-125157412D01*
X120098811Y-125093953D01*
X119847419Y-124925978D01*
X119625734Y-124881882D01*
X119625729Y-124881882D01*
X119550882Y-124866994D01*
X119476035Y-124881882D01*
X90403380Y-124881882D01*
X90285949Y-124764451D01*
X89905543Y-124606882D01*
X89493795Y-124606882D01*
X89113389Y-124764451D01*
X88822238Y-125055602D01*
X88664669Y-125436008D01*
X88664669Y-125847756D01*
X88822238Y-126228162D01*
X89113389Y-126519313D01*
X89493795Y-126676882D01*
X89905543Y-126676882D01*
X90285949Y-126519313D01*
X90403380Y-126401882D01*
X119236081Y-126401882D01*
X119679523Y-126845324D01*
X119275222Y-126677857D01*
X118624778Y-126677857D01*
X118023847Y-126926771D01*
X117563914Y-127386704D01*
X117315000Y-127987635D01*
X117315000Y-128638079D01*
X117563914Y-129239010D01*
X118023847Y-129698943D01*
X118624778Y-129947857D01*
X119275222Y-129947857D01*
X119876153Y-129698943D01*
X120336086Y-129239010D01*
X120585000Y-128638079D01*
X120585000Y-127987635D01*
X120417533Y-127583335D01*
X121491751Y-128657553D01*
X121534151Y-128721009D01*
X121785543Y-128888984D01*
X122007228Y-128933080D01*
X122007232Y-128933080D01*
X122082080Y-128947968D01*
X122156928Y-128933080D01*
X128952833Y-128933080D01*
X129027680Y-128947968D01*
X129102527Y-128933080D01*
X129102532Y-128933080D01*
X129324217Y-128888984D01*
X129575609Y-128721009D01*
X129618011Y-128657550D01*
X129661895Y-128613666D01*
X129936158Y-128796923D01*
X129806322Y-128857897D01*
X129416035Y-129286156D01*
X129246204Y-129696190D01*
X129367525Y-129926080D01*
X130560680Y-129926080D01*
X130560680Y-129906080D01*
X130814680Y-129906080D01*
X130814680Y-129926080D01*
X130834680Y-129926080D01*
X130834680Y-130180080D01*
X130814680Y-130180080D01*
X130814680Y-130200080D01*
X130560680Y-130200080D01*
X130560680Y-130180080D01*
X129367525Y-130180080D01*
X129246204Y-130409970D01*
X129416035Y-130820004D01*
X129806322Y-131248263D01*
X129936158Y-131309237D01*
X129617055Y-131522455D01*
X129288841Y-132013662D01*
X129173588Y-132593080D01*
X129288841Y-133172498D01*
X129617055Y-133663705D01*
X129915441Y-133863080D01*
X129617055Y-134062455D01*
X129409502Y-134373080D01*
X128462482Y-134373080D01*
X124795931Y-130706530D01*
X124753529Y-130643071D01*
X124502137Y-130475096D01*
X124280452Y-130431000D01*
X124280447Y-130431000D01*
X124205600Y-130416112D01*
X124130753Y-130431000D01*
X118295403Y-130431000D01*
X115890600Y-128026199D01*
X115890600Y-127860126D01*
X115733031Y-127479720D01*
X115441880Y-127188569D01*
X115061474Y-127031000D01*
X114649726Y-127031000D01*
X114269320Y-127188569D01*
X113978169Y-127479720D01*
X113820600Y-127860126D01*
X113820600Y-128271874D01*
X113978169Y-128652280D01*
X114269320Y-128943431D01*
X114649726Y-129101000D01*
X114815799Y-129101000D01*
X117390273Y-131675476D01*
X117432671Y-131738929D01*
X117496124Y-131781327D01*
X117496126Y-131781329D01*
X117531424Y-131804914D01*
X117684063Y-131906904D01*
X117905748Y-131951000D01*
X117905752Y-131951000D01*
X117980599Y-131965888D01*
X118055446Y-131951000D01*
X119877761Y-131951000D01*
X119563914Y-132264847D01*
X119315000Y-132865778D01*
X119315000Y-133516222D01*
X119563914Y-134117153D01*
X120023847Y-134577086D01*
X120624778Y-134826000D01*
X121275222Y-134826000D01*
X121876153Y-134577086D01*
X122336086Y-134117153D01*
X122585000Y-133516222D01*
X122585000Y-132865778D01*
X122336086Y-132264847D01*
X122022239Y-131951000D01*
X123890799Y-131951000D01*
X127557351Y-135617553D01*
X127599751Y-135681009D01*
X127851143Y-135848984D01*
X128072828Y-135893080D01*
X128072833Y-135893080D01*
X128147680Y-135907968D01*
X128222527Y-135893080D01*
X129409502Y-135893080D01*
X129617055Y-136203705D01*
X129915441Y-136403080D01*
X129617055Y-136602455D01*
X129409502Y-136913080D01*
X126502482Y-136913080D01*
X125145931Y-135556530D01*
X125103529Y-135493071D01*
X124852137Y-135325096D01*
X124630452Y-135281000D01*
X124630447Y-135281000D01*
X124555600Y-135266112D01*
X124480753Y-135281000D01*
X120020403Y-135281000D01*
X112295931Y-127556530D01*
X112253529Y-127493071D01*
X112002137Y-127325096D01*
X111780452Y-127281000D01*
X111780447Y-127281000D01*
X111705600Y-127266112D01*
X111630753Y-127281000D01*
X102153711Y-127281000D01*
X102036280Y-127163569D01*
X101655874Y-127006000D01*
X101244126Y-127006000D01*
X100863720Y-127163569D01*
X100572569Y-127454720D01*
X100415000Y-127835126D01*
X100415000Y-128246874D01*
X100572569Y-128627280D01*
X100863720Y-128918431D01*
X101244126Y-129076000D01*
X101655874Y-129076000D01*
X102036280Y-128918431D01*
X102153711Y-128801000D01*
X111390799Y-128801000D01*
X114145798Y-131556000D01*
X114124778Y-131556000D01*
X113523847Y-131804914D01*
X113063914Y-132264847D01*
X112815000Y-132865778D01*
X112815000Y-133516222D01*
X113063914Y-134117153D01*
X113523847Y-134577086D01*
X114124778Y-134826000D01*
X114775222Y-134826000D01*
X115376153Y-134577086D01*
X115836086Y-134117153D01*
X116085000Y-133516222D01*
X116085000Y-133495202D01*
X119115273Y-136525476D01*
X119157671Y-136588929D01*
X119221124Y-136631327D01*
X119221126Y-136631329D01*
X119346502Y-136715102D01*
X119409063Y-136756904D01*
X119555166Y-136785966D01*
X119315000Y-137365778D01*
X119315000Y-138016222D01*
X119563914Y-138617153D01*
X120023847Y-139077086D01*
X120624778Y-139326000D01*
X121275222Y-139326000D01*
X121876153Y-139077086D01*
X122336086Y-138617153D01*
X122585000Y-138016222D01*
X122585000Y-137365778D01*
X122351061Y-136801000D01*
X124240799Y-136801000D01*
X125597351Y-138157553D01*
X125639751Y-138221009D01*
X125703207Y-138263409D01*
X125891142Y-138388984D01*
X125939285Y-138398560D01*
X126112828Y-138433080D01*
X126112832Y-138433080D01*
X126187680Y-138447968D01*
X126262528Y-138433080D01*
X129409502Y-138433080D01*
X129617055Y-138743705D01*
X129915441Y-138943080D01*
X129617055Y-139142455D01*
X129288841Y-139633662D01*
X129173588Y-140213080D01*
X129288841Y-140792498D01*
X129617055Y-141283705D01*
X129915441Y-141483080D01*
X129617055Y-141682455D01*
X129409502Y-141993080D01*
X129182308Y-141993080D01*
X129305000Y-141696874D01*
X129305000Y-141285126D01*
X129147431Y-140904720D01*
X128856280Y-140613569D01*
X128475874Y-140456000D01*
X128309802Y-140456000D01*
X127722411Y-139868610D01*
X127680009Y-139805151D01*
X127428617Y-139637176D01*
X127206932Y-139593080D01*
X127206927Y-139593080D01*
X127132080Y-139578192D01*
X127057233Y-139593080D01*
X119182482Y-139593080D01*
X118595931Y-139006530D01*
X118553529Y-138943071D01*
X118302137Y-138775096D01*
X118080452Y-138731000D01*
X118080447Y-138731000D01*
X118005600Y-138716112D01*
X117930753Y-138731000D01*
X115722239Y-138731000D01*
X115836086Y-138617153D01*
X116085000Y-138016222D01*
X116085000Y-137365778D01*
X115836086Y-136764847D01*
X115376153Y-136304914D01*
X114775222Y-136056000D01*
X114124778Y-136056000D01*
X113523847Y-136304914D01*
X113063914Y-136764847D01*
X112815000Y-137365778D01*
X112815000Y-138016222D01*
X113063914Y-138617153D01*
X113177761Y-138731000D01*
X112774802Y-138731000D01*
X112250330Y-138206529D01*
X112250328Y-138206526D01*
X112226177Y-138182375D01*
X112295000Y-138016222D01*
X112295000Y-137365778D01*
X112046086Y-136764847D01*
X111586153Y-136304914D01*
X110985222Y-136056000D01*
X110334778Y-136056000D01*
X109733847Y-136304914D01*
X109273914Y-136764847D01*
X109025000Y-137365778D01*
X109025000Y-138016222D01*
X109273914Y-138617153D01*
X109733847Y-139077086D01*
X110334778Y-139326000D01*
X110985222Y-139326000D01*
X111151375Y-139257177D01*
X111175526Y-139281328D01*
X111175529Y-139281330D01*
X111516701Y-139622503D01*
X111235439Y-139506000D01*
X110664561Y-139506000D01*
X110137138Y-139724466D01*
X109733466Y-140128138D01*
X109515000Y-140655561D01*
X109515000Y-141226439D01*
X109733466Y-141753862D01*
X110137138Y-142157534D01*
X110664561Y-142376000D01*
X111235439Y-142376000D01*
X111762862Y-142157534D01*
X112166534Y-141753862D01*
X112385000Y-141226439D01*
X112385000Y-140655561D01*
X112202365Y-140214642D01*
X112385148Y-140251000D01*
X112385152Y-140251000D01*
X112459999Y-140265888D01*
X112534846Y-140251000D01*
X113182575Y-140251000D01*
X113015000Y-140655561D01*
X113015000Y-141226439D01*
X113233466Y-141753862D01*
X113637138Y-142157534D01*
X114164561Y-142376000D01*
X114735439Y-142376000D01*
X115262862Y-142157534D01*
X115666534Y-141753862D01*
X115885000Y-141226439D01*
X115885000Y-140655561D01*
X115717425Y-140251000D01*
X117690799Y-140251000D01*
X118277350Y-140837552D01*
X118319751Y-140901009D01*
X118571143Y-141068984D01*
X118792828Y-141113080D01*
X118792832Y-141113080D01*
X118867679Y-141127968D01*
X118942526Y-141113080D01*
X126817279Y-141113080D01*
X127235000Y-141530802D01*
X127235000Y-141696874D01*
X127357692Y-141993080D01*
X125173711Y-141993080D01*
X125056280Y-141875649D01*
X124675874Y-141718080D01*
X124264126Y-141718080D01*
X123883720Y-141875649D01*
X123592569Y-142166800D01*
X123435000Y-142547206D01*
X123435000Y-142958954D01*
X123592569Y-143339360D01*
X123883720Y-143630511D01*
X124264126Y-143788080D01*
X124675874Y-143788080D01*
X125056280Y-143630511D01*
X125173711Y-143513080D01*
X128430736Y-143513080D01*
X128421751Y-143526527D01*
X127957279Y-143991000D01*
X101784802Y-143991000D01*
X101210000Y-143416199D01*
X101210000Y-142179430D01*
X101262862Y-142157534D01*
X101666534Y-141753862D01*
X101885000Y-141226439D01*
X101885000Y-140655561D01*
X102515000Y-140655561D01*
X102515000Y-141226439D01*
X102733466Y-141753862D01*
X103137138Y-142157534D01*
X103664561Y-142376000D01*
X104235439Y-142376000D01*
X104762862Y-142157534D01*
X105166534Y-141753862D01*
X105385000Y-141226439D01*
X105385000Y-140655561D01*
X106015000Y-140655561D01*
X106015000Y-141226439D01*
X106233466Y-141753862D01*
X106637138Y-142157534D01*
X107164561Y-142376000D01*
X107735439Y-142376000D01*
X108262862Y-142157534D01*
X108666534Y-141753862D01*
X108885000Y-141226439D01*
X108885000Y-140655561D01*
X108666534Y-140128138D01*
X108262862Y-139724466D01*
X107735439Y-139506000D01*
X107164561Y-139506000D01*
X106637138Y-139724466D01*
X106233466Y-140128138D01*
X106015000Y-140655561D01*
X105385000Y-140655561D01*
X105166534Y-140128138D01*
X104762862Y-139724466D01*
X104235439Y-139506000D01*
X103664561Y-139506000D01*
X103137138Y-139724466D01*
X102733466Y-140128138D01*
X102515000Y-140655561D01*
X101885000Y-140655561D01*
X101666534Y-140128138D01*
X101262862Y-139724466D01*
X100735439Y-139506000D01*
X100164561Y-139506000D01*
X99637138Y-139724466D01*
X99233466Y-140128138D01*
X99015000Y-140655561D01*
X99015000Y-141226439D01*
X99233466Y-141753862D01*
X99637138Y-142157534D01*
X99690001Y-142179430D01*
X99690000Y-143656153D01*
X99675112Y-143731000D01*
X99690000Y-143805847D01*
X99690000Y-143805851D01*
X99734096Y-144027536D01*
X99902071Y-144278929D01*
X99965530Y-144321331D01*
X100879671Y-145235473D01*
X100922071Y-145298929D01*
X100985527Y-145341329D01*
X101173462Y-145466904D01*
X101221605Y-145476480D01*
X101395148Y-145511000D01*
X101395152Y-145511000D01*
X101470000Y-145525888D01*
X101544848Y-145511000D01*
X128197233Y-145511000D01*
X128272080Y-145525888D01*
X128346927Y-145511000D01*
X128346932Y-145511000D01*
X128568617Y-145466904D01*
X128820009Y-145298929D01*
X128862411Y-145235470D01*
X129265158Y-144832723D01*
X129173588Y-145293080D01*
X129288841Y-145872498D01*
X129617055Y-146363705D01*
X129936158Y-146576923D01*
X129806322Y-146637897D01*
X129416035Y-147066156D01*
X129246204Y-147476190D01*
X129367525Y-147706080D01*
X130560680Y-147706080D01*
X130560680Y-147686080D01*
X130814680Y-147686080D01*
X130814680Y-147706080D01*
X130834680Y-147706080D01*
X130834680Y-147960080D01*
X130814680Y-147960080D01*
X130814680Y-149153899D01*
X131044572Y-149274566D01*
X131569038Y-149028263D01*
X131956327Y-148603294D01*
X132157055Y-148903705D01*
X132648262Y-149231919D01*
X133081424Y-149318080D01*
X133373936Y-149318080D01*
X133807098Y-149231919D01*
X134298305Y-148903705D01*
X134626519Y-148412498D01*
X134741772Y-147833080D01*
X134626519Y-147253662D01*
X134298305Y-146762455D01*
X133999919Y-146563080D01*
X134298305Y-146363705D01*
X134626519Y-145872498D01*
X134741772Y-145293080D01*
X134626519Y-144713662D01*
X134298305Y-144222455D01*
X133999919Y-144023080D01*
X134298305Y-143823705D01*
X134626519Y-143332498D01*
X134741772Y-142753080D01*
X134626519Y-142173662D01*
X134298305Y-141682455D01*
X133979202Y-141469237D01*
X134109038Y-141408263D01*
X134499325Y-140980004D01*
X134669156Y-140569970D01*
X134547835Y-140340080D01*
X133354680Y-140340080D01*
X133354680Y-140360080D01*
X133100680Y-140360080D01*
X133100680Y-140340080D01*
X133080680Y-140340080D01*
X133080680Y-140086080D01*
X133100680Y-140086080D01*
X133100680Y-140066080D01*
X133354680Y-140066080D01*
X133354680Y-140086080D01*
X134547835Y-140086080D01*
X134669156Y-139856190D01*
X134499325Y-139446156D01*
X134109038Y-139017897D01*
X133979202Y-138956923D01*
X134298305Y-138743705D01*
X134626519Y-138252498D01*
X134741772Y-137673080D01*
X134626519Y-137093662D01*
X134298305Y-136602455D01*
X133979202Y-136389237D01*
X134109038Y-136328263D01*
X134499325Y-135900004D01*
X134669156Y-135489970D01*
X134547835Y-135260080D01*
X133354680Y-135260080D01*
X133354680Y-135280080D01*
X133100680Y-135280080D01*
X133100680Y-135260080D01*
X133080680Y-135260080D01*
X133080680Y-135006080D01*
X133100680Y-135006080D01*
X133100680Y-134986080D01*
X133354680Y-134986080D01*
X133354680Y-135006080D01*
X134547835Y-135006080D01*
X134669156Y-134776190D01*
X134499325Y-134366156D01*
X134109038Y-133937897D01*
X133979202Y-133876923D01*
X134298305Y-133663705D01*
X134626519Y-133172498D01*
X134741772Y-132593080D01*
X134626519Y-132013662D01*
X134298305Y-131522455D01*
X133999919Y-131323080D01*
X134298305Y-131123705D01*
X134626519Y-130632498D01*
X134741772Y-130053080D01*
X134626519Y-129473662D01*
X134298305Y-128982455D01*
X133999919Y-128783080D01*
X134298305Y-128583705D01*
X134626519Y-128092498D01*
X134741772Y-127513080D01*
X134626519Y-126933662D01*
X134298305Y-126442455D01*
X133999919Y-126243080D01*
X134298305Y-126043705D01*
X134626519Y-125552498D01*
X134741772Y-124973080D01*
X134626519Y-124393662D01*
X134298305Y-123902455D01*
X133979202Y-123689237D01*
X134109038Y-123628263D01*
X134499325Y-123200004D01*
X134669156Y-122789970D01*
X134547835Y-122560080D01*
X133354680Y-122560080D01*
X133354680Y-122580080D01*
X133100680Y-122580080D01*
X133100680Y-122560080D01*
X133080680Y-122560080D01*
X133080680Y-122306080D01*
X133100680Y-122306080D01*
X133100680Y-122286080D01*
X133354680Y-122286080D01*
X133354680Y-122306080D01*
X134547835Y-122306080D01*
X134669156Y-122076190D01*
X134499325Y-121666156D01*
X134109038Y-121237897D01*
X133979202Y-121176923D01*
X134298305Y-120963705D01*
X134626519Y-120472498D01*
X134741772Y-119893080D01*
X134626519Y-119313662D01*
X134298305Y-118822455D01*
X133999919Y-118623080D01*
X134298305Y-118423705D01*
X134626519Y-117932498D01*
X134741772Y-117353080D01*
X134626519Y-116773662D01*
X134298305Y-116282455D01*
X133979202Y-116069237D01*
X134109038Y-116008263D01*
X134499325Y-115580004D01*
X134669156Y-115169970D01*
X134547835Y-114940080D01*
X133354680Y-114940080D01*
X133354680Y-114960080D01*
X133100680Y-114960080D01*
X133100680Y-114940080D01*
X133080680Y-114940080D01*
X133080680Y-114686080D01*
X133100680Y-114686080D01*
X133100680Y-114666080D01*
X133354680Y-114666080D01*
X133354680Y-114686080D01*
X134547835Y-114686080D01*
X134669156Y-114456190D01*
X134499325Y-114046156D01*
X134109038Y-113617897D01*
X133979202Y-113556923D01*
X134298305Y-113343705D01*
X134626519Y-112852498D01*
X134741772Y-112273080D01*
X134626519Y-111693662D01*
X134298305Y-111202455D01*
X133999919Y-111003080D01*
X134298305Y-110803705D01*
X134626519Y-110312498D01*
X134741772Y-109733080D01*
X134626519Y-109153662D01*
X134298305Y-108662455D01*
X133999919Y-108463080D01*
X134298305Y-108263705D01*
X134626519Y-107772498D01*
X134741772Y-107193080D01*
X134626519Y-106613662D01*
X134298305Y-106122455D01*
X133979202Y-105909237D01*
X134109038Y-105848263D01*
X134499325Y-105420004D01*
X134669156Y-105009970D01*
X134547835Y-104780080D01*
X133354680Y-104780080D01*
X133354680Y-104800080D01*
X133100680Y-104800080D01*
X133100680Y-104780080D01*
X133080680Y-104780080D01*
X133080680Y-104526080D01*
X133100680Y-104526080D01*
X133100680Y-104506080D01*
X133354680Y-104506080D01*
X133354680Y-104526080D01*
X134547835Y-104526080D01*
X134669156Y-104296190D01*
X134499325Y-103886156D01*
X134109038Y-103457897D01*
X133979202Y-103396923D01*
X134298305Y-103183705D01*
X134626519Y-102692498D01*
X134741772Y-102113080D01*
X134626519Y-101533662D01*
X134298305Y-101042455D01*
X133999919Y-100843080D01*
X134298305Y-100643705D01*
X134626519Y-100152498D01*
X134741772Y-99573080D01*
X134626519Y-98993662D01*
X134298305Y-98502455D01*
X133807098Y-98174241D01*
X133373936Y-98088080D01*
X133081424Y-98088080D01*
X132648262Y-98174241D01*
X132157055Y-98502455D01*
X132144864Y-98520699D01*
X132135837Y-98475315D01*
X131995489Y-98265271D01*
X131785445Y-98124923D01*
X131537680Y-98075640D01*
X129837680Y-98075640D01*
X129589915Y-98124923D01*
X129379871Y-98265271D01*
X129239523Y-98475315D01*
X129197202Y-98688080D01*
X128585000Y-98688080D01*
X128585000Y-97271372D01*
X128602337Y-97184212D01*
X128585000Y-97097052D01*
X128585000Y-97097048D01*
X128533652Y-96838903D01*
X128435494Y-96692000D01*
X128387424Y-96620058D01*
X128387423Y-96620057D01*
X128338049Y-96546164D01*
X128264156Y-96496790D01*
X126845094Y-95077729D01*
X126795718Y-95003833D01*
X126502979Y-94808230D01*
X126244834Y-94756882D01*
X126244830Y-94756882D01*
X126157669Y-94739545D01*
X126070508Y-94756882D01*
X122856128Y-94756882D01*
X122807478Y-94684073D01*
X122597434Y-94543725D01*
X122349669Y-94494442D01*
X120849669Y-94494442D01*
X120601904Y-94543725D01*
X120469969Y-94631882D01*
X119979369Y-94631882D01*
X119847434Y-94543725D01*
X119599669Y-94494442D01*
X118099669Y-94494442D01*
X117851904Y-94543725D01*
X117641860Y-94684073D01*
X117501512Y-94894117D01*
X117452229Y-95141882D01*
X117452229Y-96056882D01*
X117412828Y-96056882D01*
X117325668Y-96039545D01*
X117238509Y-96056882D01*
X117238504Y-96056882D01*
X116980359Y-96108230D01*
X116851821Y-96194117D01*
X116761514Y-96254458D01*
X116761513Y-96254459D01*
X116687620Y-96303833D01*
X116638246Y-96377726D01*
X115309973Y-97706000D01*
X105123018Y-97706000D01*
X105035857Y-97688663D01*
X104948696Y-97706000D01*
X104948692Y-97706000D01*
X104690547Y-97757348D01*
X104471702Y-97903576D01*
X104471701Y-97903577D01*
X104397808Y-97952951D01*
X104348434Y-98026844D01*
X103075847Y-99299432D01*
X103001951Y-99348808D01*
X102806348Y-99641548D01*
X102755000Y-99899693D01*
X102755000Y-99899696D01*
X102737663Y-99986857D01*
X102755000Y-100074018D01*
X102755001Y-103322379D01*
X102542235Y-103364700D01*
X102332191Y-103505048D01*
X102191843Y-103715092D01*
X102142560Y-103962857D01*
X102142560Y-105662857D01*
X102191843Y-105910622D01*
X102332191Y-106120666D01*
X102542235Y-106261014D01*
X102790000Y-106310297D01*
X104490000Y-106310297D01*
X104737765Y-106261014D01*
X104947809Y-106120666D01*
X105088157Y-105910622D01*
X105097184Y-105865238D01*
X105109375Y-105883482D01*
X105600582Y-106211696D01*
X106033744Y-106297857D01*
X106326256Y-106297857D01*
X106759418Y-106211696D01*
X107250625Y-105883482D01*
X107450000Y-105585096D01*
X107649375Y-105883482D01*
X107960001Y-106091035D01*
X107960000Y-107066198D01*
X100595199Y-114431000D01*
X85984847Y-114431000D01*
X85910000Y-114416112D01*
X85835153Y-114431000D01*
X85835148Y-114431000D01*
X85613463Y-114475096D01*
X85362071Y-114643071D01*
X85319671Y-114706527D01*
X81155528Y-118870671D01*
X81092072Y-118913071D01*
X81049672Y-118976527D01*
X81049671Y-118976528D01*
X80924097Y-119164463D01*
X80865112Y-119461000D01*
X80185000Y-119461000D01*
X80185000Y-100073947D01*
X92346658Y-100073947D01*
X92460621Y-100353773D01*
X93115629Y-100601170D01*
X93815451Y-100579075D01*
X94359379Y-100353773D01*
X94473342Y-100073947D01*
X97426658Y-100073947D01*
X97540621Y-100353773D01*
X98195629Y-100601170D01*
X98895451Y-100579075D01*
X99439379Y-100353773D01*
X99553342Y-100073947D01*
X98490000Y-99010605D01*
X97426658Y-100073947D01*
X94473342Y-100073947D01*
X93410000Y-99010605D01*
X92346658Y-100073947D01*
X80185000Y-100073947D01*
X80185000Y-98536629D01*
X91639830Y-98536629D01*
X91661925Y-99236451D01*
X91887227Y-99780379D01*
X92167053Y-99894342D01*
X93230395Y-98831000D01*
X93589605Y-98831000D01*
X94652947Y-99894342D01*
X94932773Y-99780379D01*
X95180170Y-99125371D01*
X95161583Y-98536629D01*
X96719830Y-98536629D01*
X96741925Y-99236451D01*
X96967227Y-99780379D01*
X97247053Y-99894342D01*
X98310395Y-98831000D01*
X98669605Y-98831000D01*
X99732947Y-99894342D01*
X100012773Y-99780379D01*
X100260170Y-99125371D01*
X100238075Y-98425549D01*
X100012773Y-97881621D01*
X99732947Y-97767658D01*
X98669605Y-98831000D01*
X98310395Y-98831000D01*
X97247053Y-97767658D01*
X96967227Y-97881621D01*
X96719830Y-98536629D01*
X95161583Y-98536629D01*
X95158075Y-98425549D01*
X94932773Y-97881621D01*
X94652947Y-97767658D01*
X93589605Y-98831000D01*
X93230395Y-98831000D01*
X92167053Y-97767658D01*
X91887227Y-97881621D01*
X91639830Y-98536629D01*
X80185000Y-98536629D01*
X80185000Y-97588053D01*
X92346658Y-97588053D01*
X93410000Y-98651395D01*
X94473342Y-97588053D01*
X94359379Y-97308227D01*
X93704371Y-97060830D01*
X93004549Y-97082925D01*
X92460621Y-97308227D01*
X92346658Y-97588053D01*
X80185000Y-97588053D01*
X80185000Y-94312159D01*
X80965000Y-94312159D01*
X80965000Y-95101841D01*
X81267199Y-95831412D01*
X81825588Y-96389801D01*
X82555159Y-96692000D01*
X83344841Y-96692000D01*
X84074412Y-96389801D01*
X84503407Y-95960806D01*
X94290000Y-95960806D01*
X94290000Y-96621194D01*
X94542720Y-97231314D01*
X95009686Y-97698280D01*
X95619806Y-97951000D01*
X96280194Y-97951000D01*
X96890314Y-97698280D01*
X97000541Y-97588053D01*
X97426658Y-97588053D01*
X98490000Y-98651395D01*
X99553342Y-97588053D01*
X99439379Y-97308227D01*
X98784371Y-97060830D01*
X98084549Y-97082925D01*
X97540621Y-97308227D01*
X97426658Y-97588053D01*
X97000541Y-97588053D01*
X97357280Y-97231314D01*
X97610000Y-96621194D01*
X97610000Y-95960806D01*
X97357280Y-95350686D01*
X97000541Y-94993947D01*
X97426658Y-94993947D01*
X97540621Y-95273773D01*
X98195629Y-95521170D01*
X98895451Y-95499075D01*
X99439379Y-95273773D01*
X99553342Y-94993947D01*
X98490000Y-93930605D01*
X97426658Y-94993947D01*
X97000541Y-94993947D01*
X96890314Y-94883720D01*
X96280194Y-94631000D01*
X95619806Y-94631000D01*
X95009686Y-94883720D01*
X94542720Y-95350686D01*
X94290000Y-95960806D01*
X84503407Y-95960806D01*
X84632801Y-95831412D01*
X84935000Y-95101841D01*
X84935000Y-94993947D01*
X92346658Y-94993947D01*
X92460621Y-95273773D01*
X93115629Y-95521170D01*
X93815451Y-95499075D01*
X94359379Y-95273773D01*
X94473342Y-94993947D01*
X93410000Y-93930605D01*
X92346658Y-94993947D01*
X84935000Y-94993947D01*
X84935000Y-94312159D01*
X84632801Y-93582588D01*
X84506842Y-93456629D01*
X91639830Y-93456629D01*
X91661925Y-94156451D01*
X91887227Y-94700379D01*
X92167053Y-94814342D01*
X93230395Y-93751000D01*
X93589605Y-93751000D01*
X94652947Y-94814342D01*
X94932773Y-94700379D01*
X95180170Y-94045371D01*
X95161583Y-93456629D01*
X96719830Y-93456629D01*
X96741925Y-94156451D01*
X96967227Y-94700379D01*
X97247053Y-94814342D01*
X98310395Y-93751000D01*
X98669605Y-93751000D01*
X99732947Y-94814342D01*
X100012773Y-94700379D01*
X100166957Y-94292159D01*
X106975000Y-94292159D01*
X106975000Y-95081841D01*
X107277199Y-95811412D01*
X107835588Y-96369801D01*
X108565159Y-96672000D01*
X109354841Y-96672000D01*
X110084412Y-96369801D01*
X110642801Y-95811412D01*
X110945000Y-95081841D01*
X110945000Y-94312159D01*
X129965000Y-94312159D01*
X129965000Y-95101841D01*
X130267199Y-95831412D01*
X130825588Y-96389801D01*
X131555159Y-96692000D01*
X132344841Y-96692000D01*
X133074412Y-96389801D01*
X133632801Y-95831412D01*
X133935000Y-95101841D01*
X133935000Y-94312159D01*
X133632801Y-93582588D01*
X133074412Y-93024199D01*
X132344841Y-92722000D01*
X131555159Y-92722000D01*
X130825588Y-93024199D01*
X130267199Y-93582588D01*
X129965000Y-94312159D01*
X110945000Y-94312159D01*
X110945000Y-94292159D01*
X110642801Y-93562588D01*
X110084412Y-93004199D01*
X109354841Y-92702000D01*
X108565159Y-92702000D01*
X107835588Y-93004199D01*
X107277199Y-93562588D01*
X106975000Y-94292159D01*
X100166957Y-94292159D01*
X100260170Y-94045371D01*
X100238075Y-93345549D01*
X100012773Y-92801621D01*
X99732947Y-92687658D01*
X98669605Y-93751000D01*
X98310395Y-93751000D01*
X97247053Y-92687658D01*
X96967227Y-92801621D01*
X96719830Y-93456629D01*
X95161583Y-93456629D01*
X95158075Y-93345549D01*
X94932773Y-92801621D01*
X94652947Y-92687658D01*
X93589605Y-93751000D01*
X93230395Y-93751000D01*
X92167053Y-92687658D01*
X91887227Y-92801621D01*
X91639830Y-93456629D01*
X84506842Y-93456629D01*
X84074412Y-93024199D01*
X83344841Y-92722000D01*
X82555159Y-92722000D01*
X81825588Y-93024199D01*
X81267199Y-93582588D01*
X80965000Y-94312159D01*
X80185000Y-94312159D01*
X80185000Y-92508053D01*
X92346658Y-92508053D01*
X93410000Y-93571395D01*
X94473342Y-92508053D01*
X97426658Y-92508053D01*
X98490000Y-93571395D01*
X99553342Y-92508053D01*
X99439379Y-92228227D01*
X98784371Y-91980830D01*
X98084549Y-92002925D01*
X97540621Y-92228227D01*
X97426658Y-92508053D01*
X94473342Y-92508053D01*
X94359379Y-92228227D01*
X93704371Y-91980830D01*
X93004549Y-92002925D01*
X92460621Y-92228227D01*
X92346658Y-92508053D01*
X80185000Y-92508053D01*
X80185000Y-91926000D01*
X135215000Y-91926000D01*
X135215001Y-155456000D01*
G36*
X110189375Y-105883482D02*
X110500000Y-106091035D01*
X110500001Y-107526197D01*
X101595199Y-116431000D01*
X86984846Y-116431000D01*
X86909999Y-116416112D01*
X86835152Y-116431000D01*
X86835148Y-116431000D01*
X86613463Y-116475096D01*
X86613461Y-116475097D01*
X86613462Y-116475097D01*
X86425526Y-116600671D01*
X86425524Y-116600673D01*
X86362071Y-116643071D01*
X86319673Y-116706524D01*
X83197199Y-119829000D01*
X83133740Y-119871402D01*
X82965765Y-120122795D01*
X82921669Y-120344480D01*
X82921669Y-120344484D01*
X82906781Y-120419331D01*
X82921669Y-120494178D01*
X82921670Y-123115817D01*
X82906781Y-123190669D01*
X82965766Y-123487206D01*
X83012539Y-123557206D01*
X83133741Y-123738598D01*
X83197197Y-123780998D01*
X87453669Y-128037471D01*
X87453670Y-134391865D01*
X84914537Y-136931000D01*
X84728178Y-136931000D01*
X84520625Y-136620375D01*
X84222239Y-136421000D01*
X84520625Y-136221625D01*
X84724226Y-135916915D01*
X84769338Y-135925888D01*
X84844185Y-135911000D01*
X84844190Y-135911000D01*
X85065875Y-135866904D01*
X85317267Y-135698929D01*
X85359669Y-135635470D01*
X86666142Y-134328998D01*
X86729598Y-134286598D01*
X86843361Y-134116340D01*
X86897573Y-134035207D01*
X86918138Y-133931819D01*
X86941669Y-133813521D01*
X86941669Y-133813517D01*
X86956557Y-133738669D01*
X86941669Y-133663821D01*
X86941669Y-128813516D01*
X86956557Y-128738669D01*
X86941669Y-128663822D01*
X86941669Y-128663817D01*
X86897573Y-128442132D01*
X86729598Y-128190740D01*
X86666142Y-128148340D01*
X82400000Y-123882199D01*
X82400000Y-119775801D01*
X86224802Y-115951000D01*
X100835153Y-115951000D01*
X100910000Y-115965888D01*
X100984847Y-115951000D01*
X100984852Y-115951000D01*
X101206537Y-115906904D01*
X101457929Y-115738929D01*
X101500331Y-115675470D01*
X109204473Y-107971329D01*
X109267929Y-107928929D01*
X109435904Y-107677537D01*
X109480000Y-107455852D01*
X109480000Y-107455847D01*
X109494888Y-107381000D01*
X109480000Y-107306153D01*
X109480000Y-106091035D01*
X109790625Y-105883482D01*
X109990000Y-105585096D01*
X110189375Y-105883482D01*
X110189375Y-105883482D01*
G37*
X110189375Y-105883482D02*
X110500000Y-106091035D01*
X110500001Y-107526197D01*
X101595199Y-116431000D01*
X86984846Y-116431000D01*
X86909999Y-116416112D01*
X86835152Y-116431000D01*
X86835148Y-116431000D01*
X86613463Y-116475096D01*
X86613461Y-116475097D01*
X86613462Y-116475097D01*
X86425526Y-116600671D01*
X86425524Y-116600673D01*
X86362071Y-116643071D01*
X86319673Y-116706524D01*
X83197199Y-119829000D01*
X83133740Y-119871402D01*
X82965765Y-120122795D01*
X82921669Y-120344480D01*
X82921669Y-120344484D01*
X82906781Y-120419331D01*
X82921669Y-120494178D01*
X82921670Y-123115817D01*
X82906781Y-123190669D01*
X82965766Y-123487206D01*
X83012539Y-123557206D01*
X83133741Y-123738598D01*
X83197197Y-123780998D01*
X87453669Y-128037471D01*
X87453670Y-134391865D01*
X84914537Y-136931000D01*
X84728178Y-136931000D01*
X84520625Y-136620375D01*
X84222239Y-136421000D01*
X84520625Y-136221625D01*
X84724226Y-135916915D01*
X84769338Y-135925888D01*
X84844185Y-135911000D01*
X84844190Y-135911000D01*
X85065875Y-135866904D01*
X85317267Y-135698929D01*
X85359669Y-135635470D01*
X86666142Y-134328998D01*
X86729598Y-134286598D01*
X86843361Y-134116340D01*
X86897573Y-134035207D01*
X86918138Y-133931819D01*
X86941669Y-133813521D01*
X86941669Y-133813517D01*
X86956557Y-133738669D01*
X86941669Y-133663821D01*
X86941669Y-128813516D01*
X86956557Y-128738669D01*
X86941669Y-128663822D01*
X86941669Y-128663817D01*
X86897573Y-128442132D01*
X86729598Y-128190740D01*
X86666142Y-128148340D01*
X82400000Y-123882199D01*
X82400000Y-119775801D01*
X86224802Y-115951000D01*
X100835153Y-115951000D01*
X100910000Y-115965888D01*
X100984847Y-115951000D01*
X100984852Y-115951000D01*
X101206537Y-115906904D01*
X101457929Y-115738929D01*
X101500331Y-115675470D01*
X109204473Y-107971329D01*
X109267929Y-107928929D01*
X109435904Y-107677537D01*
X109480000Y-107455852D01*
X109480000Y-107455847D01*
X109494888Y-107381000D01*
X109480000Y-107306153D01*
X109480000Y-106091035D01*
X109790625Y-105883482D01*
X109990000Y-105585096D01*
X110189375Y-105883482D01*
G36*
X120373419Y-98114882D02*
X121472669Y-98114882D01*
X121472669Y-98094882D01*
X121726669Y-98094882D01*
X121726669Y-98114882D01*
X122825919Y-98114882D01*
X122949111Y-97991690D01*
X123015000Y-98057579D01*
X123015001Y-99574420D01*
X122283422Y-100306000D01*
X106587016Y-100306000D01*
X106499856Y-100288663D01*
X106412697Y-100306000D01*
X106412692Y-100306000D01*
X106154547Y-100357348D01*
X105861808Y-100552951D01*
X105812433Y-100626846D01*
X105615847Y-100823432D01*
X105541951Y-100872808D01*
X105346348Y-101165548D01*
X105295000Y-101423693D01*
X105295000Y-101423696D01*
X105277663Y-101510857D01*
X105295000Y-101598018D01*
X105295001Y-103618201D01*
X105109375Y-103742232D01*
X105097184Y-103760476D01*
X105088157Y-103715092D01*
X104947809Y-103505048D01*
X104737765Y-103364700D01*
X104525000Y-103322379D01*
X104525000Y-100353435D01*
X105402436Y-99476000D01*
X115589390Y-99476000D01*
X115676551Y-99493337D01*
X115763712Y-99476000D01*
X115763716Y-99476000D01*
X116021861Y-99424652D01*
X116314600Y-99229049D01*
X116363976Y-99155153D01*
X116991497Y-98527632D01*
X117464669Y-98527632D01*
X117464669Y-98868191D01*
X117561342Y-99101580D01*
X117739970Y-99280209D01*
X117973359Y-99376882D01*
X118563919Y-99376882D01*
X118722669Y-99218132D01*
X118722669Y-98368882D01*
X118976669Y-98368882D01*
X118976669Y-99218132D01*
X119135419Y-99376882D01*
X119725979Y-99376882D01*
X119959368Y-99280209D01*
X120137996Y-99101580D01*
X120224669Y-98892333D01*
X120311342Y-99101580D01*
X120489970Y-99280209D01*
X120723359Y-99376882D01*
X121313919Y-99376882D01*
X121472669Y-99218132D01*
X121472669Y-98368882D01*
X121726669Y-98368882D01*
X121726669Y-99218132D01*
X121885419Y-99376882D01*
X122475979Y-99376882D01*
X122709368Y-99280209D01*
X122887996Y-99101580D01*
X122984669Y-98868191D01*
X122984669Y-98527632D01*
X122825919Y-98368882D01*
X121726669Y-98368882D01*
X121472669Y-98368882D01*
X120373419Y-98368882D01*
X120224669Y-98517632D01*
X120075919Y-98368882D01*
X118976669Y-98368882D01*
X118722669Y-98368882D01*
X117623419Y-98368882D01*
X117464669Y-98527632D01*
X116991497Y-98527632D01*
X117513833Y-98005296D01*
X117623419Y-98114882D01*
X118722669Y-98114882D01*
X118722669Y-98094882D01*
X118976669Y-98094882D01*
X118976669Y-98114882D01*
X120075919Y-98114882D01*
X120224669Y-97966132D01*
X120373419Y-98114882D01*
X120373419Y-98114882D01*
G37*
X120373419Y-98114882D02*
X121472669Y-98114882D01*
X121472669Y-98094882D01*
X121726669Y-98094882D01*
X121726669Y-98114882D01*
X122825919Y-98114882D01*
X122949111Y-97991690D01*
X123015000Y-98057579D01*
X123015001Y-99574420D01*
X122283422Y-100306000D01*
X106587016Y-100306000D01*
X106499856Y-100288663D01*
X106412697Y-100306000D01*
X106412692Y-100306000D01*
X106154547Y-100357348D01*
X105861808Y-100552951D01*
X105812433Y-100626846D01*
X105615847Y-100823432D01*
X105541951Y-100872808D01*
X105346348Y-101165548D01*
X105295000Y-101423693D01*
X105295000Y-101423696D01*
X105277663Y-101510857D01*
X105295000Y-101598018D01*
X105295001Y-103618201D01*
X105109375Y-103742232D01*
X105097184Y-103760476D01*
X105088157Y-103715092D01*
X104947809Y-103505048D01*
X104737765Y-103364700D01*
X104525000Y-103322379D01*
X104525000Y-100353435D01*
X105402436Y-99476000D01*
X115589390Y-99476000D01*
X115676551Y-99493337D01*
X115763712Y-99476000D01*
X115763716Y-99476000D01*
X116021861Y-99424652D01*
X116314600Y-99229049D01*
X116363976Y-99155153D01*
X116991497Y-98527632D01*
X117464669Y-98527632D01*
X117464669Y-98868191D01*
X117561342Y-99101580D01*
X117739970Y-99280209D01*
X117973359Y-99376882D01*
X118563919Y-99376882D01*
X118722669Y-99218132D01*
X118722669Y-98368882D01*
X118976669Y-98368882D01*
X118976669Y-99218132D01*
X119135419Y-99376882D01*
X119725979Y-99376882D01*
X119959368Y-99280209D01*
X120137996Y-99101580D01*
X120224669Y-98892333D01*
X120311342Y-99101580D01*
X120489970Y-99280209D01*
X120723359Y-99376882D01*
X121313919Y-99376882D01*
X121472669Y-99218132D01*
X121472669Y-98368882D01*
X121726669Y-98368882D01*
X121726669Y-99218132D01*
X121885419Y-99376882D01*
X122475979Y-99376882D01*
X122709368Y-99280209D01*
X122887996Y-99101580D01*
X122984669Y-98868191D01*
X122984669Y-98527632D01*
X122825919Y-98368882D01*
X121726669Y-98368882D01*
X121472669Y-98368882D01*
X120373419Y-98368882D01*
X120224669Y-98517632D01*
X120075919Y-98368882D01*
X118976669Y-98368882D01*
X118722669Y-98368882D01*
X117623419Y-98368882D01*
X117464669Y-98527632D01*
X116991497Y-98527632D01*
X117513833Y-98005296D01*
X117623419Y-98114882D01*
X118722669Y-98114882D01*
X118722669Y-98094882D01*
X118976669Y-98094882D01*
X118976669Y-98114882D01*
X120075919Y-98114882D01*
X120224669Y-97966132D01*
X120373419Y-98114882D01*
G04 #@! TD*
M02*
