G04 #@! TF.GenerationSoftware,KiCad,Pcbnew,(5.0.2)-1*
G04 #@! TF.CreationDate,2019-12-29T11:54:00+01:00*
G04 #@! TF.ProjectId,LoRaAPRS-GW-RPI_V20,4c6f5261-4150-4525-932d-47572d525049,rev?*
G04 #@! TF.SameCoordinates,Original*
G04 #@! TF.FileFunction,Soldermask,Top*
G04 #@! TF.FilePolarity,Negative*
%FSLAX46Y46*%
G04 Gerber Fmt 4.6, Leading zero omitted, Abs format (unit mm)*
G04 Created by KiCad (PCBNEW (5.0.2)-1) date 29.12.2019 11:54:00*
%MOMM*%
%LPD*%
G01*
G04 APERTURE LIST*
%ADD10C,0.100000*%
G04 APERTURE END LIST*
D10*
G36*
X83221233Y-151325893D02*
X83311457Y-151343839D01*
X83417067Y-151387585D01*
X83566421Y-151449449D01*
X83795889Y-151602774D01*
X83991026Y-151797911D01*
X84144351Y-152027379D01*
X84249961Y-152282344D01*
X84303800Y-152553012D01*
X84303800Y-152828988D01*
X84249961Y-153099656D01*
X84144351Y-153354621D01*
X83991026Y-153584089D01*
X83795889Y-153779226D01*
X83566421Y-153932551D01*
X83417067Y-153994415D01*
X83311457Y-154038161D01*
X83221233Y-154056107D01*
X83040788Y-154092000D01*
X82764812Y-154092000D01*
X82584367Y-154056107D01*
X82494143Y-154038161D01*
X82388533Y-153994415D01*
X82239179Y-153932551D01*
X82009711Y-153779226D01*
X81814574Y-153584089D01*
X81661249Y-153354621D01*
X81555639Y-153099656D01*
X81501800Y-152828988D01*
X81501800Y-152553012D01*
X81555639Y-152282344D01*
X81661249Y-152027379D01*
X81814574Y-151797911D01*
X82009711Y-151602774D01*
X82239179Y-151449449D01*
X82388533Y-151387585D01*
X82494143Y-151343839D01*
X82584367Y-151325893D01*
X82764812Y-151290000D01*
X83040788Y-151290000D01*
X83221233Y-151325893D01*
X83221233Y-151325893D01*
G37*
G36*
X109227433Y-151325893D02*
X109317657Y-151343839D01*
X109423267Y-151387585D01*
X109572621Y-151449449D01*
X109802089Y-151602774D01*
X109997226Y-151797911D01*
X110150551Y-152027379D01*
X110256161Y-152282344D01*
X110310000Y-152553012D01*
X110310000Y-152828988D01*
X110256161Y-153099656D01*
X110150551Y-153354621D01*
X109997226Y-153584089D01*
X109802089Y-153779226D01*
X109572621Y-153932551D01*
X109423267Y-153994415D01*
X109317657Y-154038161D01*
X109227433Y-154056107D01*
X109046988Y-154092000D01*
X108771012Y-154092000D01*
X108590567Y-154056107D01*
X108500343Y-154038161D01*
X108394733Y-153994415D01*
X108245379Y-153932551D01*
X108015911Y-153779226D01*
X107820774Y-153584089D01*
X107667449Y-153354621D01*
X107561839Y-153099656D01*
X107508000Y-152828988D01*
X107508000Y-152553012D01*
X107561839Y-152282344D01*
X107667449Y-152027379D01*
X107820774Y-151797911D01*
X108015911Y-151602774D01*
X108245379Y-151449449D01*
X108394733Y-151387585D01*
X108500343Y-151343839D01*
X108590567Y-151325893D01*
X108771012Y-151290000D01*
X109046988Y-151290000D01*
X109227433Y-151325893D01*
X109227433Y-151325893D01*
G37*
G36*
X132268433Y-151325893D02*
X132358657Y-151343839D01*
X132464267Y-151387585D01*
X132613621Y-151449449D01*
X132843089Y-151602774D01*
X133038226Y-151797911D01*
X133191551Y-152027379D01*
X133297161Y-152282344D01*
X133351000Y-152553012D01*
X133351000Y-152828988D01*
X133297161Y-153099656D01*
X133191551Y-153354621D01*
X133038226Y-153584089D01*
X132843089Y-153779226D01*
X132613621Y-153932551D01*
X132464267Y-153994415D01*
X132358657Y-154038161D01*
X132268433Y-154056107D01*
X132087988Y-154092000D01*
X131812012Y-154092000D01*
X131631567Y-154056107D01*
X131541343Y-154038161D01*
X131435733Y-153994415D01*
X131286379Y-153932551D01*
X131056911Y-153779226D01*
X130861774Y-153584089D01*
X130708449Y-153354621D01*
X130602839Y-153099656D01*
X130549000Y-152828988D01*
X130549000Y-152553012D01*
X130602839Y-152282344D01*
X130708449Y-152027379D01*
X130861774Y-151797911D01*
X131056911Y-151602774D01*
X131286379Y-151449449D01*
X131435733Y-151387585D01*
X131541343Y-151343839D01*
X131631567Y-151325893D01*
X131812012Y-151290000D01*
X132087988Y-151290000D01*
X132268433Y-151325893D01*
X132268433Y-151325893D01*
G37*
G36*
X91198228Y-147742703D02*
X91353100Y-147806853D01*
X91492481Y-147899985D01*
X91611015Y-148018519D01*
X91704147Y-148157900D01*
X91768297Y-148312772D01*
X91801000Y-148477184D01*
X91801000Y-148644816D01*
X91768297Y-148809228D01*
X91704147Y-148964100D01*
X91611015Y-149103481D01*
X91492481Y-149222015D01*
X91353100Y-149315147D01*
X91198228Y-149379297D01*
X91033816Y-149412000D01*
X90866184Y-149412000D01*
X90701772Y-149379297D01*
X90546900Y-149315147D01*
X90407519Y-149222015D01*
X90288985Y-149103481D01*
X90195853Y-148964100D01*
X90131703Y-148809228D01*
X90099000Y-148644816D01*
X90099000Y-148477184D01*
X90131703Y-148312772D01*
X90195853Y-148157900D01*
X90288985Y-148018519D01*
X90407519Y-147899985D01*
X90546900Y-147806853D01*
X90701772Y-147742703D01*
X90866184Y-147710000D01*
X91033816Y-147710000D01*
X91198228Y-147742703D01*
X91198228Y-147742703D01*
G37*
G36*
X87698228Y-147742703D02*
X87853100Y-147806853D01*
X87992481Y-147899985D01*
X88111015Y-148018519D01*
X88204147Y-148157900D01*
X88268297Y-148312772D01*
X88301000Y-148477184D01*
X88301000Y-148644816D01*
X88268297Y-148809228D01*
X88204147Y-148964100D01*
X88111015Y-149103481D01*
X87992481Y-149222015D01*
X87853100Y-149315147D01*
X87698228Y-149379297D01*
X87533816Y-149412000D01*
X87366184Y-149412000D01*
X87201772Y-149379297D01*
X87046900Y-149315147D01*
X86907519Y-149222015D01*
X86788985Y-149103481D01*
X86695853Y-148964100D01*
X86631703Y-148809228D01*
X86599000Y-148644816D01*
X86599000Y-148477184D01*
X86631703Y-148312772D01*
X86695853Y-148157900D01*
X86788985Y-148018519D01*
X86907519Y-147899985D01*
X87046900Y-147806853D01*
X87201772Y-147742703D01*
X87366184Y-147710000D01*
X87533816Y-147710000D01*
X87698228Y-147742703D01*
X87698228Y-147742703D01*
G37*
G36*
X107616821Y-147722313D02*
X107616824Y-147722314D01*
X107616825Y-147722314D01*
X107777239Y-147770975D01*
X107777241Y-147770976D01*
X107777244Y-147770977D01*
X107925078Y-147849995D01*
X108054659Y-147956341D01*
X108161005Y-148085922D01*
X108240023Y-148233756D01*
X108240024Y-148233759D01*
X108240025Y-148233761D01*
X108271060Y-148336071D01*
X108288687Y-148394179D01*
X108305117Y-148561000D01*
X108288687Y-148727821D01*
X108288686Y-148727824D01*
X108288686Y-148727825D01*
X108263993Y-148809228D01*
X108240023Y-148888244D01*
X108161005Y-149036078D01*
X108054659Y-149165659D01*
X107925078Y-149272005D01*
X107777244Y-149351023D01*
X107777241Y-149351024D01*
X107777239Y-149351025D01*
X107616825Y-149399686D01*
X107616824Y-149399686D01*
X107616821Y-149399687D01*
X107491804Y-149412000D01*
X107408196Y-149412000D01*
X107283179Y-149399687D01*
X107283176Y-149399686D01*
X107283175Y-149399686D01*
X107122761Y-149351025D01*
X107122759Y-149351024D01*
X107122756Y-149351023D01*
X106974922Y-149272005D01*
X106845341Y-149165659D01*
X106738995Y-149036078D01*
X106659977Y-148888244D01*
X106636008Y-148809228D01*
X106611314Y-148727825D01*
X106611314Y-148727824D01*
X106611313Y-148727821D01*
X106594883Y-148561000D01*
X106611313Y-148394179D01*
X106628940Y-148336071D01*
X106659975Y-148233761D01*
X106659976Y-148233759D01*
X106659977Y-148233756D01*
X106738995Y-148085922D01*
X106845341Y-147956341D01*
X106974922Y-147849995D01*
X107122756Y-147770977D01*
X107122759Y-147770976D01*
X107122761Y-147770975D01*
X107283175Y-147722314D01*
X107283176Y-147722314D01*
X107283179Y-147722313D01*
X107408196Y-147710000D01*
X107491804Y-147710000D01*
X107616821Y-147722313D01*
X107616821Y-147722313D01*
G37*
G36*
X100616821Y-147722313D02*
X100616824Y-147722314D01*
X100616825Y-147722314D01*
X100777239Y-147770975D01*
X100777241Y-147770976D01*
X100777244Y-147770977D01*
X100925078Y-147849995D01*
X101054659Y-147956341D01*
X101161005Y-148085922D01*
X101240023Y-148233756D01*
X101240024Y-148233759D01*
X101240025Y-148233761D01*
X101271060Y-148336071D01*
X101288687Y-148394179D01*
X101305117Y-148561000D01*
X101288687Y-148727821D01*
X101288686Y-148727824D01*
X101288686Y-148727825D01*
X101263993Y-148809228D01*
X101240023Y-148888244D01*
X101161005Y-149036078D01*
X101054659Y-149165659D01*
X100925078Y-149272005D01*
X100777244Y-149351023D01*
X100777241Y-149351024D01*
X100777239Y-149351025D01*
X100616825Y-149399686D01*
X100616824Y-149399686D01*
X100616821Y-149399687D01*
X100491804Y-149412000D01*
X100408196Y-149412000D01*
X100283179Y-149399687D01*
X100283176Y-149399686D01*
X100283175Y-149399686D01*
X100122761Y-149351025D01*
X100122759Y-149351024D01*
X100122756Y-149351023D01*
X99974922Y-149272005D01*
X99845341Y-149165659D01*
X99738995Y-149036078D01*
X99659977Y-148888244D01*
X99636008Y-148809228D01*
X99611314Y-148727825D01*
X99611314Y-148727824D01*
X99611313Y-148727821D01*
X99594883Y-148561000D01*
X99611313Y-148394179D01*
X99628940Y-148336071D01*
X99659975Y-148233761D01*
X99659976Y-148233759D01*
X99659977Y-148233756D01*
X99738995Y-148085922D01*
X99845341Y-147956341D01*
X99974922Y-147849995D01*
X100122756Y-147770977D01*
X100122759Y-147770976D01*
X100122761Y-147770975D01*
X100283175Y-147722314D01*
X100283176Y-147722314D01*
X100283179Y-147722313D01*
X100408196Y-147710000D01*
X100491804Y-147710000D01*
X100616821Y-147722313D01*
X100616821Y-147722313D01*
G37*
G36*
X114616821Y-147722313D02*
X114616824Y-147722314D01*
X114616825Y-147722314D01*
X114777239Y-147770975D01*
X114777241Y-147770976D01*
X114777244Y-147770977D01*
X114925078Y-147849995D01*
X115054659Y-147956341D01*
X115161005Y-148085922D01*
X115240023Y-148233756D01*
X115240024Y-148233759D01*
X115240025Y-148233761D01*
X115271060Y-148336071D01*
X115288687Y-148394179D01*
X115305117Y-148561000D01*
X115288687Y-148727821D01*
X115288686Y-148727824D01*
X115288686Y-148727825D01*
X115263993Y-148809228D01*
X115240023Y-148888244D01*
X115161005Y-149036078D01*
X115054659Y-149165659D01*
X114925078Y-149272005D01*
X114777244Y-149351023D01*
X114777241Y-149351024D01*
X114777239Y-149351025D01*
X114616825Y-149399686D01*
X114616824Y-149399686D01*
X114616821Y-149399687D01*
X114491804Y-149412000D01*
X114408196Y-149412000D01*
X114283179Y-149399687D01*
X114283176Y-149399686D01*
X114283175Y-149399686D01*
X114122761Y-149351025D01*
X114122759Y-149351024D01*
X114122756Y-149351023D01*
X113974922Y-149272005D01*
X113845341Y-149165659D01*
X113738995Y-149036078D01*
X113659977Y-148888244D01*
X113636008Y-148809228D01*
X113611314Y-148727825D01*
X113611314Y-148727824D01*
X113611313Y-148727821D01*
X113594883Y-148561000D01*
X113611313Y-148394179D01*
X113628940Y-148336071D01*
X113659975Y-148233761D01*
X113659976Y-148233759D01*
X113659977Y-148233756D01*
X113738995Y-148085922D01*
X113845341Y-147956341D01*
X113974922Y-147849995D01*
X114122756Y-147770977D01*
X114122759Y-147770976D01*
X114122761Y-147770975D01*
X114283175Y-147722314D01*
X114283176Y-147722314D01*
X114283179Y-147722313D01*
X114408196Y-147710000D01*
X114491804Y-147710000D01*
X114616821Y-147722313D01*
X114616821Y-147722313D01*
G37*
G36*
X111116821Y-147722313D02*
X111116824Y-147722314D01*
X111116825Y-147722314D01*
X111277239Y-147770975D01*
X111277241Y-147770976D01*
X111277244Y-147770977D01*
X111425078Y-147849995D01*
X111554659Y-147956341D01*
X111661005Y-148085922D01*
X111740023Y-148233756D01*
X111740024Y-148233759D01*
X111740025Y-148233761D01*
X111771060Y-148336071D01*
X111788687Y-148394179D01*
X111805117Y-148561000D01*
X111788687Y-148727821D01*
X111788686Y-148727824D01*
X111788686Y-148727825D01*
X111763993Y-148809228D01*
X111740023Y-148888244D01*
X111661005Y-149036078D01*
X111554659Y-149165659D01*
X111425078Y-149272005D01*
X111277244Y-149351023D01*
X111277241Y-149351024D01*
X111277239Y-149351025D01*
X111116825Y-149399686D01*
X111116824Y-149399686D01*
X111116821Y-149399687D01*
X110991804Y-149412000D01*
X110908196Y-149412000D01*
X110783179Y-149399687D01*
X110783176Y-149399686D01*
X110783175Y-149399686D01*
X110622761Y-149351025D01*
X110622759Y-149351024D01*
X110622756Y-149351023D01*
X110474922Y-149272005D01*
X110345341Y-149165659D01*
X110238995Y-149036078D01*
X110159977Y-148888244D01*
X110136008Y-148809228D01*
X110111314Y-148727825D01*
X110111314Y-148727824D01*
X110111313Y-148727821D01*
X110094883Y-148561000D01*
X110111313Y-148394179D01*
X110128940Y-148336071D01*
X110159975Y-148233761D01*
X110159976Y-148233759D01*
X110159977Y-148233756D01*
X110238995Y-148085922D01*
X110345341Y-147956341D01*
X110474922Y-147849995D01*
X110622756Y-147770977D01*
X110622759Y-147770976D01*
X110622761Y-147770975D01*
X110783175Y-147722314D01*
X110783176Y-147722314D01*
X110783179Y-147722313D01*
X110908196Y-147710000D01*
X110991804Y-147710000D01*
X111116821Y-147722313D01*
X111116821Y-147722313D01*
G37*
G36*
X104116821Y-147722313D02*
X104116824Y-147722314D01*
X104116825Y-147722314D01*
X104277239Y-147770975D01*
X104277241Y-147770976D01*
X104277244Y-147770977D01*
X104425078Y-147849995D01*
X104554659Y-147956341D01*
X104661005Y-148085922D01*
X104740023Y-148233756D01*
X104740024Y-148233759D01*
X104740025Y-148233761D01*
X104771060Y-148336071D01*
X104788687Y-148394179D01*
X104805117Y-148561000D01*
X104788687Y-148727821D01*
X104788686Y-148727824D01*
X104788686Y-148727825D01*
X104763993Y-148809228D01*
X104740023Y-148888244D01*
X104661005Y-149036078D01*
X104554659Y-149165659D01*
X104425078Y-149272005D01*
X104277244Y-149351023D01*
X104277241Y-149351024D01*
X104277239Y-149351025D01*
X104116825Y-149399686D01*
X104116824Y-149399686D01*
X104116821Y-149399687D01*
X103991804Y-149412000D01*
X103908196Y-149412000D01*
X103783179Y-149399687D01*
X103783176Y-149399686D01*
X103783175Y-149399686D01*
X103622761Y-149351025D01*
X103622759Y-149351024D01*
X103622756Y-149351023D01*
X103474922Y-149272005D01*
X103345341Y-149165659D01*
X103238995Y-149036078D01*
X103159977Y-148888244D01*
X103136008Y-148809228D01*
X103111314Y-148727825D01*
X103111314Y-148727824D01*
X103111313Y-148727821D01*
X103094883Y-148561000D01*
X103111313Y-148394179D01*
X103128940Y-148336071D01*
X103159975Y-148233761D01*
X103159976Y-148233759D01*
X103159977Y-148233756D01*
X103238995Y-148085922D01*
X103345341Y-147956341D01*
X103474922Y-147849995D01*
X103622756Y-147770977D01*
X103622759Y-147770976D01*
X103622761Y-147770975D01*
X103783175Y-147722314D01*
X103783176Y-147722314D01*
X103783179Y-147722313D01*
X103908196Y-147710000D01*
X103991804Y-147710000D01*
X104116821Y-147722313D01*
X104116821Y-147722313D01*
G37*
G36*
X130798122Y-146938598D02*
X130864307Y-146945117D01*
X130977533Y-146979464D01*
X131034147Y-146996637D01*
X131172767Y-147070732D01*
X131190671Y-147080302D01*
X131226409Y-147109632D01*
X131327866Y-147192894D01*
X131411128Y-147294351D01*
X131440458Y-147330089D01*
X131440459Y-147330091D01*
X131524123Y-147486613D01*
X131524123Y-147486614D01*
X131575643Y-147656453D01*
X131593039Y-147833080D01*
X131575643Y-148009707D01*
X131552523Y-148085922D01*
X131524123Y-148179547D01*
X131452912Y-148312772D01*
X131440458Y-148336071D01*
X131411128Y-148371809D01*
X131327866Y-148473266D01*
X131226409Y-148556528D01*
X131190671Y-148585858D01*
X131190669Y-148585859D01*
X131034147Y-148669523D01*
X130977533Y-148686696D01*
X130864307Y-148721043D01*
X130798122Y-148727562D01*
X130731940Y-148734080D01*
X130643420Y-148734080D01*
X130577238Y-148727562D01*
X130511053Y-148721043D01*
X130397827Y-148686696D01*
X130341213Y-148669523D01*
X130184691Y-148585859D01*
X130184689Y-148585858D01*
X130148951Y-148556528D01*
X130047494Y-148473266D01*
X129964232Y-148371809D01*
X129934902Y-148336071D01*
X129922448Y-148312772D01*
X129851237Y-148179547D01*
X129822837Y-148085922D01*
X129799717Y-148009707D01*
X129782321Y-147833080D01*
X129799717Y-147656453D01*
X129851237Y-147486614D01*
X129851237Y-147486613D01*
X129934901Y-147330091D01*
X129934902Y-147330089D01*
X129964232Y-147294351D01*
X130047494Y-147192894D01*
X130148951Y-147109632D01*
X130184689Y-147080302D01*
X130202593Y-147070732D01*
X130341213Y-146996637D01*
X130397827Y-146979464D01*
X130511053Y-146945117D01*
X130577238Y-146938598D01*
X130643420Y-146932080D01*
X130731940Y-146932080D01*
X130798122Y-146938598D01*
X130798122Y-146938598D01*
G37*
G36*
X133338122Y-146938598D02*
X133404307Y-146945117D01*
X133517533Y-146979464D01*
X133574147Y-146996637D01*
X133712767Y-147070732D01*
X133730671Y-147080302D01*
X133766409Y-147109632D01*
X133867866Y-147192894D01*
X133951128Y-147294351D01*
X133980458Y-147330089D01*
X133980459Y-147330091D01*
X134064123Y-147486613D01*
X134064123Y-147486614D01*
X134115643Y-147656453D01*
X134133039Y-147833080D01*
X134115643Y-148009707D01*
X134092523Y-148085922D01*
X134064123Y-148179547D01*
X133992912Y-148312772D01*
X133980458Y-148336071D01*
X133951128Y-148371809D01*
X133867866Y-148473266D01*
X133766409Y-148556528D01*
X133730671Y-148585858D01*
X133730669Y-148585859D01*
X133574147Y-148669523D01*
X133517533Y-148686696D01*
X133404307Y-148721043D01*
X133338122Y-148727562D01*
X133271940Y-148734080D01*
X133183420Y-148734080D01*
X133117238Y-148727562D01*
X133051053Y-148721043D01*
X132937827Y-148686696D01*
X132881213Y-148669523D01*
X132724691Y-148585859D01*
X132724689Y-148585858D01*
X132688951Y-148556528D01*
X132587494Y-148473266D01*
X132504232Y-148371809D01*
X132474902Y-148336071D01*
X132462448Y-148312772D01*
X132391237Y-148179547D01*
X132362837Y-148085922D01*
X132339717Y-148009707D01*
X132322321Y-147833080D01*
X132339717Y-147656453D01*
X132391237Y-147486614D01*
X132391237Y-147486613D01*
X132474901Y-147330091D01*
X132474902Y-147330089D01*
X132504232Y-147294351D01*
X132587494Y-147192894D01*
X132688951Y-147109632D01*
X132724689Y-147080302D01*
X132742593Y-147070732D01*
X132881213Y-146996637D01*
X132937827Y-146979464D01*
X133051053Y-146945117D01*
X133117238Y-146938598D01*
X133183420Y-146932080D01*
X133271940Y-146932080D01*
X133338122Y-146938598D01*
X133338122Y-146938598D01*
G37*
G36*
X133338123Y-144398599D02*
X133404307Y-144405117D01*
X133517533Y-144439464D01*
X133574147Y-144456637D01*
X133712767Y-144530732D01*
X133730671Y-144540302D01*
X133766409Y-144569632D01*
X133867866Y-144652894D01*
X133951128Y-144754351D01*
X133980458Y-144790089D01*
X133980459Y-144790091D01*
X134064123Y-144946613D01*
X134064123Y-144946614D01*
X134115643Y-145116453D01*
X134133039Y-145293080D01*
X134115643Y-145469707D01*
X134081296Y-145582933D01*
X134064123Y-145639547D01*
X133990028Y-145778167D01*
X133980458Y-145796071D01*
X133951128Y-145831809D01*
X133867866Y-145933266D01*
X133766409Y-146016528D01*
X133730671Y-146045858D01*
X133730669Y-146045859D01*
X133574147Y-146129523D01*
X133517533Y-146146696D01*
X133404307Y-146181043D01*
X133338122Y-146187562D01*
X133271940Y-146194080D01*
X133183420Y-146194080D01*
X133117238Y-146187562D01*
X133051053Y-146181043D01*
X132937827Y-146146696D01*
X132881213Y-146129523D01*
X132724691Y-146045859D01*
X132724689Y-146045858D01*
X132688951Y-146016528D01*
X132587494Y-145933266D01*
X132504232Y-145831809D01*
X132474902Y-145796071D01*
X132465332Y-145778167D01*
X132391237Y-145639547D01*
X132374064Y-145582933D01*
X132339717Y-145469707D01*
X132322321Y-145293080D01*
X132339717Y-145116453D01*
X132391237Y-144946614D01*
X132391237Y-144946613D01*
X132474901Y-144790091D01*
X132474902Y-144790089D01*
X132504232Y-144754351D01*
X132587494Y-144652894D01*
X132688951Y-144569632D01*
X132724689Y-144540302D01*
X132742593Y-144530732D01*
X132881213Y-144456637D01*
X132937827Y-144439464D01*
X133051053Y-144405117D01*
X133117237Y-144398599D01*
X133183420Y-144392080D01*
X133271940Y-144392080D01*
X133338123Y-144398599D01*
X133338123Y-144398599D01*
G37*
G36*
X130798123Y-144398599D02*
X130864307Y-144405117D01*
X130977533Y-144439464D01*
X131034147Y-144456637D01*
X131172767Y-144530732D01*
X131190671Y-144540302D01*
X131226409Y-144569632D01*
X131327866Y-144652894D01*
X131411128Y-144754351D01*
X131440458Y-144790089D01*
X131440459Y-144790091D01*
X131524123Y-144946613D01*
X131524123Y-144946614D01*
X131575643Y-145116453D01*
X131593039Y-145293080D01*
X131575643Y-145469707D01*
X131541296Y-145582933D01*
X131524123Y-145639547D01*
X131450028Y-145778167D01*
X131440458Y-145796071D01*
X131411128Y-145831809D01*
X131327866Y-145933266D01*
X131226409Y-146016528D01*
X131190671Y-146045858D01*
X131190669Y-146045859D01*
X131034147Y-146129523D01*
X130977533Y-146146696D01*
X130864307Y-146181043D01*
X130798122Y-146187562D01*
X130731940Y-146194080D01*
X130643420Y-146194080D01*
X130577238Y-146187562D01*
X130511053Y-146181043D01*
X130397827Y-146146696D01*
X130341213Y-146129523D01*
X130184691Y-146045859D01*
X130184689Y-146045858D01*
X130148951Y-146016528D01*
X130047494Y-145933266D01*
X129964232Y-145831809D01*
X129934902Y-145796071D01*
X129925332Y-145778167D01*
X129851237Y-145639547D01*
X129834064Y-145582933D01*
X129799717Y-145469707D01*
X129782321Y-145293080D01*
X129799717Y-145116453D01*
X129851237Y-144946614D01*
X129851237Y-144946613D01*
X129934901Y-144790091D01*
X129934902Y-144790089D01*
X129964232Y-144754351D01*
X130047494Y-144652894D01*
X130148951Y-144569632D01*
X130184689Y-144540302D01*
X130202593Y-144530732D01*
X130341213Y-144456637D01*
X130397827Y-144439464D01*
X130511053Y-144405117D01*
X130577237Y-144398599D01*
X130643420Y-144392080D01*
X130731940Y-144392080D01*
X130798123Y-144398599D01*
X130798123Y-144398599D01*
G37*
G36*
X130798123Y-141858599D02*
X130864307Y-141865117D01*
X130977533Y-141899464D01*
X131034147Y-141916637D01*
X131172767Y-141990732D01*
X131190671Y-142000302D01*
X131226409Y-142029632D01*
X131327866Y-142112894D01*
X131411128Y-142214351D01*
X131440458Y-142250089D01*
X131440459Y-142250091D01*
X131524123Y-142406613D01*
X131524123Y-142406614D01*
X131575643Y-142576453D01*
X131593039Y-142753080D01*
X131575643Y-142929707D01*
X131541296Y-143042933D01*
X131524123Y-143099547D01*
X131450028Y-143238167D01*
X131440458Y-143256071D01*
X131411128Y-143291809D01*
X131327866Y-143393266D01*
X131226409Y-143476528D01*
X131190671Y-143505858D01*
X131190669Y-143505859D01*
X131034147Y-143589523D01*
X130977533Y-143606696D01*
X130864307Y-143641043D01*
X130798123Y-143647561D01*
X130731940Y-143654080D01*
X130643420Y-143654080D01*
X130577237Y-143647561D01*
X130511053Y-143641043D01*
X130397827Y-143606696D01*
X130341213Y-143589523D01*
X130184691Y-143505859D01*
X130184689Y-143505858D01*
X130148951Y-143476528D01*
X130047494Y-143393266D01*
X129964232Y-143291809D01*
X129934902Y-143256071D01*
X129925332Y-143238167D01*
X129851237Y-143099547D01*
X129834064Y-143042933D01*
X129799717Y-142929707D01*
X129782321Y-142753080D01*
X129799717Y-142576453D01*
X129851237Y-142406614D01*
X129851237Y-142406613D01*
X129934901Y-142250091D01*
X129934902Y-142250089D01*
X129964232Y-142214351D01*
X130047494Y-142112894D01*
X130148951Y-142029632D01*
X130184689Y-142000302D01*
X130202593Y-141990732D01*
X130341213Y-141916637D01*
X130397827Y-141899464D01*
X130511053Y-141865117D01*
X130577237Y-141858599D01*
X130643420Y-141852080D01*
X130731940Y-141852080D01*
X130798123Y-141858599D01*
X130798123Y-141858599D01*
G37*
G36*
X133338123Y-141858599D02*
X133404307Y-141865117D01*
X133517533Y-141899464D01*
X133574147Y-141916637D01*
X133712767Y-141990732D01*
X133730671Y-142000302D01*
X133766409Y-142029632D01*
X133867866Y-142112894D01*
X133951128Y-142214351D01*
X133980458Y-142250089D01*
X133980459Y-142250091D01*
X134064123Y-142406613D01*
X134064123Y-142406614D01*
X134115643Y-142576453D01*
X134133039Y-142753080D01*
X134115643Y-142929707D01*
X134081296Y-143042933D01*
X134064123Y-143099547D01*
X133990028Y-143238167D01*
X133980458Y-143256071D01*
X133951128Y-143291809D01*
X133867866Y-143393266D01*
X133766409Y-143476528D01*
X133730671Y-143505858D01*
X133730669Y-143505859D01*
X133574147Y-143589523D01*
X133517533Y-143606696D01*
X133404307Y-143641043D01*
X133338123Y-143647561D01*
X133271940Y-143654080D01*
X133183420Y-143654080D01*
X133117237Y-143647561D01*
X133051053Y-143641043D01*
X132937827Y-143606696D01*
X132881213Y-143589523D01*
X132724691Y-143505859D01*
X132724689Y-143505858D01*
X132688951Y-143476528D01*
X132587494Y-143393266D01*
X132504232Y-143291809D01*
X132474902Y-143256071D01*
X132465332Y-143238167D01*
X132391237Y-143099547D01*
X132374064Y-143042933D01*
X132339717Y-142929707D01*
X132322321Y-142753080D01*
X132339717Y-142576453D01*
X132391237Y-142406614D01*
X132391237Y-142406613D01*
X132474901Y-142250091D01*
X132474902Y-142250089D01*
X132504232Y-142214351D01*
X132587494Y-142112894D01*
X132688951Y-142029632D01*
X132724689Y-142000302D01*
X132742593Y-141990732D01*
X132881213Y-141916637D01*
X132937827Y-141899464D01*
X133051053Y-141865117D01*
X133117237Y-141858599D01*
X133183420Y-141852080D01*
X133271940Y-141852080D01*
X133338123Y-141858599D01*
X133338123Y-141858599D01*
G37*
G36*
X91116821Y-140102313D02*
X91116824Y-140102314D01*
X91116825Y-140102314D01*
X91277239Y-140150975D01*
X91277241Y-140150976D01*
X91277244Y-140150977D01*
X91425078Y-140229995D01*
X91554659Y-140336341D01*
X91661005Y-140465922D01*
X91740023Y-140613756D01*
X91740024Y-140613759D01*
X91740025Y-140613761D01*
X91771060Y-140716071D01*
X91788687Y-140774179D01*
X91805117Y-140941000D01*
X91788687Y-141107821D01*
X91788686Y-141107824D01*
X91788686Y-141107825D01*
X91763993Y-141189228D01*
X91740023Y-141268244D01*
X91661005Y-141416078D01*
X91554659Y-141545659D01*
X91425078Y-141652005D01*
X91277244Y-141731023D01*
X91277241Y-141731024D01*
X91277239Y-141731025D01*
X91116825Y-141779686D01*
X91116824Y-141779686D01*
X91116821Y-141779687D01*
X90991804Y-141792000D01*
X90908196Y-141792000D01*
X90783179Y-141779687D01*
X90783176Y-141779686D01*
X90783175Y-141779686D01*
X90622761Y-141731025D01*
X90622759Y-141731024D01*
X90622756Y-141731023D01*
X90474922Y-141652005D01*
X90345341Y-141545659D01*
X90238995Y-141416078D01*
X90159977Y-141268244D01*
X90136008Y-141189228D01*
X90111314Y-141107825D01*
X90111314Y-141107824D01*
X90111313Y-141107821D01*
X90094883Y-140941000D01*
X90111313Y-140774179D01*
X90128940Y-140716071D01*
X90159975Y-140613761D01*
X90159976Y-140613759D01*
X90159977Y-140613756D01*
X90238995Y-140465922D01*
X90345341Y-140336341D01*
X90474922Y-140229995D01*
X90622756Y-140150977D01*
X90622759Y-140150976D01*
X90622761Y-140150975D01*
X90783175Y-140102314D01*
X90783176Y-140102314D01*
X90783179Y-140102313D01*
X90908196Y-140090000D01*
X90991804Y-140090000D01*
X91116821Y-140102313D01*
X91116821Y-140102313D01*
G37*
G36*
X111198228Y-140122703D02*
X111353100Y-140186853D01*
X111492481Y-140279985D01*
X111611015Y-140398519D01*
X111704147Y-140537900D01*
X111768297Y-140692772D01*
X111801000Y-140857184D01*
X111801000Y-141024816D01*
X111768297Y-141189228D01*
X111704147Y-141344100D01*
X111611015Y-141483481D01*
X111492481Y-141602015D01*
X111353100Y-141695147D01*
X111198228Y-141759297D01*
X111033816Y-141792000D01*
X110866184Y-141792000D01*
X110701772Y-141759297D01*
X110546900Y-141695147D01*
X110407519Y-141602015D01*
X110288985Y-141483481D01*
X110195853Y-141344100D01*
X110131703Y-141189228D01*
X110099000Y-141024816D01*
X110099000Y-140857184D01*
X110131703Y-140692772D01*
X110195853Y-140537900D01*
X110288985Y-140398519D01*
X110407519Y-140279985D01*
X110546900Y-140186853D01*
X110701772Y-140122703D01*
X110866184Y-140090000D01*
X111033816Y-140090000D01*
X111198228Y-140122703D01*
X111198228Y-140122703D01*
G37*
G36*
X114698228Y-140122703D02*
X114853100Y-140186853D01*
X114992481Y-140279985D01*
X115111015Y-140398519D01*
X115204147Y-140537900D01*
X115268297Y-140692772D01*
X115301000Y-140857184D01*
X115301000Y-141024816D01*
X115268297Y-141189228D01*
X115204147Y-141344100D01*
X115111015Y-141483481D01*
X114992481Y-141602015D01*
X114853100Y-141695147D01*
X114698228Y-141759297D01*
X114533816Y-141792000D01*
X114366184Y-141792000D01*
X114201772Y-141759297D01*
X114046900Y-141695147D01*
X113907519Y-141602015D01*
X113788985Y-141483481D01*
X113695853Y-141344100D01*
X113631703Y-141189228D01*
X113599000Y-141024816D01*
X113599000Y-140857184D01*
X113631703Y-140692772D01*
X113695853Y-140537900D01*
X113788985Y-140398519D01*
X113907519Y-140279985D01*
X114046900Y-140186853D01*
X114201772Y-140122703D01*
X114366184Y-140090000D01*
X114533816Y-140090000D01*
X114698228Y-140122703D01*
X114698228Y-140122703D01*
G37*
G36*
X104198228Y-140122703D02*
X104353100Y-140186853D01*
X104492481Y-140279985D01*
X104611015Y-140398519D01*
X104704147Y-140537900D01*
X104768297Y-140692772D01*
X104801000Y-140857184D01*
X104801000Y-141024816D01*
X104768297Y-141189228D01*
X104704147Y-141344100D01*
X104611015Y-141483481D01*
X104492481Y-141602015D01*
X104353100Y-141695147D01*
X104198228Y-141759297D01*
X104033816Y-141792000D01*
X103866184Y-141792000D01*
X103701772Y-141759297D01*
X103546900Y-141695147D01*
X103407519Y-141602015D01*
X103288985Y-141483481D01*
X103195853Y-141344100D01*
X103131703Y-141189228D01*
X103099000Y-141024816D01*
X103099000Y-140857184D01*
X103131703Y-140692772D01*
X103195853Y-140537900D01*
X103288985Y-140398519D01*
X103407519Y-140279985D01*
X103546900Y-140186853D01*
X103701772Y-140122703D01*
X103866184Y-140090000D01*
X104033816Y-140090000D01*
X104198228Y-140122703D01*
X104198228Y-140122703D01*
G37*
G36*
X107698228Y-140122703D02*
X107853100Y-140186853D01*
X107992481Y-140279985D01*
X108111015Y-140398519D01*
X108204147Y-140537900D01*
X108268297Y-140692772D01*
X108301000Y-140857184D01*
X108301000Y-141024816D01*
X108268297Y-141189228D01*
X108204147Y-141344100D01*
X108111015Y-141483481D01*
X107992481Y-141602015D01*
X107853100Y-141695147D01*
X107698228Y-141759297D01*
X107533816Y-141792000D01*
X107366184Y-141792000D01*
X107201772Y-141759297D01*
X107046900Y-141695147D01*
X106907519Y-141602015D01*
X106788985Y-141483481D01*
X106695853Y-141344100D01*
X106631703Y-141189228D01*
X106599000Y-141024816D01*
X106599000Y-140857184D01*
X106631703Y-140692772D01*
X106695853Y-140537900D01*
X106788985Y-140398519D01*
X106907519Y-140279985D01*
X107046900Y-140186853D01*
X107201772Y-140122703D01*
X107366184Y-140090000D01*
X107533816Y-140090000D01*
X107698228Y-140122703D01*
X107698228Y-140122703D01*
G37*
G36*
X100698228Y-140122703D02*
X100853100Y-140186853D01*
X100992481Y-140279985D01*
X101111015Y-140398519D01*
X101204147Y-140537900D01*
X101268297Y-140692772D01*
X101301000Y-140857184D01*
X101301000Y-141024816D01*
X101268297Y-141189228D01*
X101204147Y-141344100D01*
X101111015Y-141483481D01*
X100992481Y-141602015D01*
X100853100Y-141695147D01*
X100698228Y-141759297D01*
X100533816Y-141792000D01*
X100366184Y-141792000D01*
X100201772Y-141759297D01*
X100046900Y-141695147D01*
X99907519Y-141602015D01*
X99788985Y-141483481D01*
X99695853Y-141344100D01*
X99631703Y-141189228D01*
X99599000Y-141024816D01*
X99599000Y-140857184D01*
X99631703Y-140692772D01*
X99695853Y-140537900D01*
X99788985Y-140398519D01*
X99907519Y-140279985D01*
X100046900Y-140186853D01*
X100201772Y-140122703D01*
X100366184Y-140090000D01*
X100533816Y-140090000D01*
X100698228Y-140122703D01*
X100698228Y-140122703D01*
G37*
G36*
X87616821Y-140102313D02*
X87616824Y-140102314D01*
X87616825Y-140102314D01*
X87777239Y-140150975D01*
X87777241Y-140150976D01*
X87777244Y-140150977D01*
X87925078Y-140229995D01*
X88054659Y-140336341D01*
X88161005Y-140465922D01*
X88240023Y-140613756D01*
X88240024Y-140613759D01*
X88240025Y-140613761D01*
X88271060Y-140716071D01*
X88288687Y-140774179D01*
X88305117Y-140941000D01*
X88288687Y-141107821D01*
X88288686Y-141107824D01*
X88288686Y-141107825D01*
X88263993Y-141189228D01*
X88240023Y-141268244D01*
X88161005Y-141416078D01*
X88054659Y-141545659D01*
X87925078Y-141652005D01*
X87777244Y-141731023D01*
X87777241Y-141731024D01*
X87777239Y-141731025D01*
X87616825Y-141779686D01*
X87616824Y-141779686D01*
X87616821Y-141779687D01*
X87491804Y-141792000D01*
X87408196Y-141792000D01*
X87283179Y-141779687D01*
X87283176Y-141779686D01*
X87283175Y-141779686D01*
X87122761Y-141731025D01*
X87122759Y-141731024D01*
X87122756Y-141731023D01*
X86974922Y-141652005D01*
X86845341Y-141545659D01*
X86738995Y-141416078D01*
X86659977Y-141268244D01*
X86636008Y-141189228D01*
X86611314Y-141107825D01*
X86611314Y-141107824D01*
X86611313Y-141107821D01*
X86594883Y-140941000D01*
X86611313Y-140774179D01*
X86628940Y-140716071D01*
X86659975Y-140613761D01*
X86659976Y-140613759D01*
X86659977Y-140613756D01*
X86738995Y-140465922D01*
X86845341Y-140336341D01*
X86974922Y-140229995D01*
X87122756Y-140150977D01*
X87122759Y-140150976D01*
X87122761Y-140150975D01*
X87283175Y-140102314D01*
X87283176Y-140102314D01*
X87283179Y-140102313D01*
X87408196Y-140090000D01*
X87491804Y-140090000D01*
X87616821Y-140102313D01*
X87616821Y-140102313D01*
G37*
G36*
X133338123Y-139318599D02*
X133404307Y-139325117D01*
X133517533Y-139359464D01*
X133574147Y-139376637D01*
X133712767Y-139450732D01*
X133730671Y-139460302D01*
X133766409Y-139489632D01*
X133867866Y-139572894D01*
X133951128Y-139674351D01*
X133980458Y-139710089D01*
X133980459Y-139710091D01*
X134064123Y-139866613D01*
X134064123Y-139866614D01*
X134115643Y-140036453D01*
X134133039Y-140213080D01*
X134115643Y-140389707D01*
X134092523Y-140465922D01*
X134064123Y-140559547D01*
X133992912Y-140692772D01*
X133980458Y-140716071D01*
X133951128Y-140751809D01*
X133867866Y-140853266D01*
X133766409Y-140936528D01*
X133730671Y-140965858D01*
X133730669Y-140965859D01*
X133574147Y-141049523D01*
X133517533Y-141066696D01*
X133404307Y-141101043D01*
X133338123Y-141107561D01*
X133271940Y-141114080D01*
X133183420Y-141114080D01*
X133117237Y-141107561D01*
X133051053Y-141101043D01*
X132937827Y-141066696D01*
X132881213Y-141049523D01*
X132724691Y-140965859D01*
X132724689Y-140965858D01*
X132688951Y-140936528D01*
X132587494Y-140853266D01*
X132504232Y-140751809D01*
X132474902Y-140716071D01*
X132462448Y-140692772D01*
X132391237Y-140559547D01*
X132362837Y-140465922D01*
X132339717Y-140389707D01*
X132322321Y-140213080D01*
X132339717Y-140036453D01*
X132391237Y-139866614D01*
X132391237Y-139866613D01*
X132474901Y-139710091D01*
X132474902Y-139710089D01*
X132504232Y-139674351D01*
X132587494Y-139572894D01*
X132688951Y-139489632D01*
X132724689Y-139460302D01*
X132742593Y-139450732D01*
X132881213Y-139376637D01*
X132937827Y-139359464D01*
X133051053Y-139325117D01*
X133117237Y-139318599D01*
X133183420Y-139312080D01*
X133271940Y-139312080D01*
X133338123Y-139318599D01*
X133338123Y-139318599D01*
G37*
G36*
X130798123Y-139318599D02*
X130864307Y-139325117D01*
X130977533Y-139359464D01*
X131034147Y-139376637D01*
X131172767Y-139450732D01*
X131190671Y-139460302D01*
X131226409Y-139489632D01*
X131327866Y-139572894D01*
X131411128Y-139674351D01*
X131440458Y-139710089D01*
X131440459Y-139710091D01*
X131524123Y-139866613D01*
X131524123Y-139866614D01*
X131575643Y-140036453D01*
X131593039Y-140213080D01*
X131575643Y-140389707D01*
X131552523Y-140465922D01*
X131524123Y-140559547D01*
X131452912Y-140692772D01*
X131440458Y-140716071D01*
X131411128Y-140751809D01*
X131327866Y-140853266D01*
X131226409Y-140936528D01*
X131190671Y-140965858D01*
X131190669Y-140965859D01*
X131034147Y-141049523D01*
X130977533Y-141066696D01*
X130864307Y-141101043D01*
X130798123Y-141107561D01*
X130731940Y-141114080D01*
X130643420Y-141114080D01*
X130577237Y-141107561D01*
X130511053Y-141101043D01*
X130397827Y-141066696D01*
X130341213Y-141049523D01*
X130184691Y-140965859D01*
X130184689Y-140965858D01*
X130148951Y-140936528D01*
X130047494Y-140853266D01*
X129964232Y-140751809D01*
X129934902Y-140716071D01*
X129922448Y-140692772D01*
X129851237Y-140559547D01*
X129822837Y-140465922D01*
X129799717Y-140389707D01*
X129782321Y-140213080D01*
X129799717Y-140036453D01*
X129851237Y-139866614D01*
X129851237Y-139866613D01*
X129934901Y-139710091D01*
X129934902Y-139710089D01*
X129964232Y-139674351D01*
X130047494Y-139572894D01*
X130148951Y-139489632D01*
X130184689Y-139460302D01*
X130202593Y-139450732D01*
X130341213Y-139376637D01*
X130397827Y-139359464D01*
X130511053Y-139325117D01*
X130577237Y-139318599D01*
X130643420Y-139312080D01*
X130731940Y-139312080D01*
X130798123Y-139318599D01*
X130798123Y-139318599D01*
G37*
G36*
X110966565Y-136680389D02*
X111157834Y-136759615D01*
X111329976Y-136874637D01*
X111476363Y-137021024D01*
X111591385Y-137193166D01*
X111670611Y-137384435D01*
X111711000Y-137587484D01*
X111711000Y-137794516D01*
X111670611Y-137997565D01*
X111591385Y-138188834D01*
X111476363Y-138360976D01*
X111329976Y-138507363D01*
X111157834Y-138622385D01*
X110966565Y-138701611D01*
X110763516Y-138742000D01*
X110556484Y-138742000D01*
X110353435Y-138701611D01*
X110162166Y-138622385D01*
X109990024Y-138507363D01*
X109843637Y-138360976D01*
X109728615Y-138188834D01*
X109649389Y-137997565D01*
X109609000Y-137794516D01*
X109609000Y-137587484D01*
X109649389Y-137384435D01*
X109728615Y-137193166D01*
X109843637Y-137021024D01*
X109990024Y-136874637D01*
X110162166Y-136759615D01*
X110353435Y-136680389D01*
X110556484Y-136640000D01*
X110763516Y-136640000D01*
X110966565Y-136680389D01*
X110966565Y-136680389D01*
G37*
G36*
X94256565Y-136680389D02*
X94447834Y-136759615D01*
X94619976Y-136874637D01*
X94766363Y-137021024D01*
X94881385Y-137193166D01*
X94960611Y-137384435D01*
X95001000Y-137587484D01*
X95001000Y-137794516D01*
X94960611Y-137997565D01*
X94881385Y-138188834D01*
X94766363Y-138360976D01*
X94619976Y-138507363D01*
X94447834Y-138622385D01*
X94256565Y-138701611D01*
X94053516Y-138742000D01*
X93846484Y-138742000D01*
X93643435Y-138701611D01*
X93452166Y-138622385D01*
X93280024Y-138507363D01*
X93133637Y-138360976D01*
X93018615Y-138188834D01*
X92939389Y-137997565D01*
X92899000Y-137794516D01*
X92899000Y-137587484D01*
X92939389Y-137384435D01*
X93018615Y-137193166D01*
X93133637Y-137021024D01*
X93280024Y-136874637D01*
X93452166Y-136759615D01*
X93643435Y-136680389D01*
X93846484Y-136640000D01*
X94053516Y-136640000D01*
X94256565Y-136680389D01*
X94256565Y-136680389D01*
G37*
G36*
X100756565Y-136680389D02*
X100947834Y-136759615D01*
X101119976Y-136874637D01*
X101266363Y-137021024D01*
X101381385Y-137193166D01*
X101460611Y-137384435D01*
X101501000Y-137587484D01*
X101501000Y-137794516D01*
X101460611Y-137997565D01*
X101381385Y-138188834D01*
X101266363Y-138360976D01*
X101119976Y-138507363D01*
X100947834Y-138622385D01*
X100756565Y-138701611D01*
X100553516Y-138742000D01*
X100346484Y-138742000D01*
X100143435Y-138701611D01*
X99952166Y-138622385D01*
X99780024Y-138507363D01*
X99633637Y-138360976D01*
X99518615Y-138188834D01*
X99439389Y-137997565D01*
X99399000Y-137794516D01*
X99399000Y-137587484D01*
X99439389Y-137384435D01*
X99518615Y-137193166D01*
X99633637Y-137021024D01*
X99780024Y-136874637D01*
X99952166Y-136759615D01*
X100143435Y-136680389D01*
X100346484Y-136640000D01*
X100553516Y-136640000D01*
X100756565Y-136680389D01*
X100756565Y-136680389D01*
G37*
G36*
X121256565Y-136680389D02*
X121447834Y-136759615D01*
X121619976Y-136874637D01*
X121766363Y-137021024D01*
X121881385Y-137193166D01*
X121960611Y-137384435D01*
X122001000Y-137587484D01*
X122001000Y-137794516D01*
X121960611Y-137997565D01*
X121881385Y-138188834D01*
X121766363Y-138360976D01*
X121619976Y-138507363D01*
X121447834Y-138622385D01*
X121256565Y-138701611D01*
X121053516Y-138742000D01*
X120846484Y-138742000D01*
X120643435Y-138701611D01*
X120452166Y-138622385D01*
X120280024Y-138507363D01*
X120133637Y-138360976D01*
X120018615Y-138188834D01*
X119939389Y-137997565D01*
X119899000Y-137794516D01*
X119899000Y-137587484D01*
X119939389Y-137384435D01*
X120018615Y-137193166D01*
X120133637Y-137021024D01*
X120280024Y-136874637D01*
X120452166Y-136759615D01*
X120643435Y-136680389D01*
X120846484Y-136640000D01*
X121053516Y-136640000D01*
X121256565Y-136680389D01*
X121256565Y-136680389D01*
G37*
G36*
X114756565Y-136680389D02*
X114947834Y-136759615D01*
X115119976Y-136874637D01*
X115266363Y-137021024D01*
X115381385Y-137193166D01*
X115460611Y-137384435D01*
X115501000Y-137587484D01*
X115501000Y-137794516D01*
X115460611Y-137997565D01*
X115381385Y-138188834D01*
X115266363Y-138360976D01*
X115119976Y-138507363D01*
X114947834Y-138622385D01*
X114756565Y-138701611D01*
X114553516Y-138742000D01*
X114346484Y-138742000D01*
X114143435Y-138701611D01*
X113952166Y-138622385D01*
X113780024Y-138507363D01*
X113633637Y-138360976D01*
X113518615Y-138188834D01*
X113439389Y-137997565D01*
X113399000Y-137794516D01*
X113399000Y-137587484D01*
X113439389Y-137384435D01*
X113518615Y-137193166D01*
X113633637Y-137021024D01*
X113780024Y-136874637D01*
X113952166Y-136759615D01*
X114143435Y-136680389D01*
X114346484Y-136640000D01*
X114553516Y-136640000D01*
X114756565Y-136680389D01*
X114756565Y-136680389D01*
G37*
G36*
X104466565Y-136680389D02*
X104657834Y-136759615D01*
X104829976Y-136874637D01*
X104976363Y-137021024D01*
X105091385Y-137193166D01*
X105170611Y-137384435D01*
X105211000Y-137587484D01*
X105211000Y-137794516D01*
X105170611Y-137997565D01*
X105091385Y-138188834D01*
X104976363Y-138360976D01*
X104829976Y-138507363D01*
X104657834Y-138622385D01*
X104466565Y-138701611D01*
X104263516Y-138742000D01*
X104056484Y-138742000D01*
X103853435Y-138701611D01*
X103662166Y-138622385D01*
X103490024Y-138507363D01*
X103343637Y-138360976D01*
X103228615Y-138188834D01*
X103149389Y-137997565D01*
X103109000Y-137794516D01*
X103109000Y-137587484D01*
X103149389Y-137384435D01*
X103228615Y-137193166D01*
X103343637Y-137021024D01*
X103490024Y-136874637D01*
X103662166Y-136759615D01*
X103853435Y-136680389D01*
X104056484Y-136640000D01*
X104263516Y-136640000D01*
X104466565Y-136680389D01*
X104466565Y-136680389D01*
G37*
G36*
X83560442Y-136796518D02*
X83626627Y-136803037D01*
X83737392Y-136836637D01*
X83796467Y-136854557D01*
X83919465Y-136920302D01*
X83952991Y-136938222D01*
X83988729Y-136967552D01*
X84090186Y-137050814D01*
X84173448Y-137152271D01*
X84202778Y-137188009D01*
X84202779Y-137188011D01*
X84286443Y-137344533D01*
X84286443Y-137344534D01*
X84337963Y-137514373D01*
X84355359Y-137691000D01*
X84337963Y-137867627D01*
X84303616Y-137980853D01*
X84286443Y-138037467D01*
X84212358Y-138176069D01*
X84202778Y-138193991D01*
X84173448Y-138229729D01*
X84090186Y-138331186D01*
X83988729Y-138414448D01*
X83952991Y-138443778D01*
X83952989Y-138443779D01*
X83796467Y-138527443D01*
X83739853Y-138544616D01*
X83626627Y-138578963D01*
X83560442Y-138585482D01*
X83494260Y-138592000D01*
X83405740Y-138592000D01*
X83339558Y-138585482D01*
X83273373Y-138578963D01*
X83160147Y-138544616D01*
X83103533Y-138527443D01*
X82947011Y-138443779D01*
X82947009Y-138443778D01*
X82911271Y-138414448D01*
X82809814Y-138331186D01*
X82726552Y-138229729D01*
X82697222Y-138193991D01*
X82687642Y-138176069D01*
X82613557Y-138037467D01*
X82596384Y-137980853D01*
X82562037Y-137867627D01*
X82544641Y-137691000D01*
X82562037Y-137514373D01*
X82613557Y-137344534D01*
X82613557Y-137344533D01*
X82697221Y-137188011D01*
X82697222Y-137188009D01*
X82726552Y-137152271D01*
X82809814Y-137050814D01*
X82911271Y-136967552D01*
X82947009Y-136938222D01*
X82980535Y-136920302D01*
X83103533Y-136854557D01*
X83162608Y-136836637D01*
X83273373Y-136803037D01*
X83339558Y-136796518D01*
X83405740Y-136790000D01*
X83494260Y-136790000D01*
X83560442Y-136796518D01*
X83560442Y-136796518D01*
G37*
G36*
X133338123Y-136778599D02*
X133404307Y-136785117D01*
X133517533Y-136819464D01*
X133574147Y-136836637D01*
X133712767Y-136910732D01*
X133730671Y-136920302D01*
X133752505Y-136938221D01*
X133867866Y-137032894D01*
X133951128Y-137134351D01*
X133980458Y-137170089D01*
X133980459Y-137170091D01*
X134064123Y-137326613D01*
X134064123Y-137326614D01*
X134115643Y-137496453D01*
X134133039Y-137673080D01*
X134115643Y-137849707D01*
X134110207Y-137867627D01*
X134064123Y-138019547D01*
X134054544Y-138037467D01*
X133980458Y-138176071D01*
X133965753Y-138193989D01*
X133867866Y-138313266D01*
X133766409Y-138396528D01*
X133730671Y-138425858D01*
X133730669Y-138425859D01*
X133574147Y-138509523D01*
X133517533Y-138526696D01*
X133404307Y-138561043D01*
X133338123Y-138567561D01*
X133271940Y-138574080D01*
X133183420Y-138574080D01*
X133117237Y-138567561D01*
X133051053Y-138561043D01*
X132937827Y-138526696D01*
X132881213Y-138509523D01*
X132724691Y-138425859D01*
X132724689Y-138425858D01*
X132688951Y-138396528D01*
X132587494Y-138313266D01*
X132489607Y-138193989D01*
X132474902Y-138176071D01*
X132400816Y-138037467D01*
X132391237Y-138019547D01*
X132345153Y-137867627D01*
X132339717Y-137849707D01*
X132322321Y-137673080D01*
X132339717Y-137496453D01*
X132391237Y-137326614D01*
X132391237Y-137326613D01*
X132474901Y-137170091D01*
X132474902Y-137170089D01*
X132504232Y-137134351D01*
X132587494Y-137032894D01*
X132702855Y-136938221D01*
X132724689Y-136920302D01*
X132742593Y-136910732D01*
X132881213Y-136836637D01*
X132937827Y-136819464D01*
X133051053Y-136785117D01*
X133117237Y-136778599D01*
X133183420Y-136772080D01*
X133271940Y-136772080D01*
X133338123Y-136778599D01*
X133338123Y-136778599D01*
G37*
G36*
X130798123Y-136778599D02*
X130864307Y-136785117D01*
X130977533Y-136819464D01*
X131034147Y-136836637D01*
X131172767Y-136910732D01*
X131190671Y-136920302D01*
X131212505Y-136938221D01*
X131327866Y-137032894D01*
X131411128Y-137134351D01*
X131440458Y-137170089D01*
X131440459Y-137170091D01*
X131524123Y-137326613D01*
X131524123Y-137326614D01*
X131575643Y-137496453D01*
X131593039Y-137673080D01*
X131575643Y-137849707D01*
X131570207Y-137867627D01*
X131524123Y-138019547D01*
X131514544Y-138037467D01*
X131440458Y-138176071D01*
X131425753Y-138193989D01*
X131327866Y-138313266D01*
X131226409Y-138396528D01*
X131190671Y-138425858D01*
X131190669Y-138425859D01*
X131034147Y-138509523D01*
X130977533Y-138526696D01*
X130864307Y-138561043D01*
X130798123Y-138567561D01*
X130731940Y-138574080D01*
X130643420Y-138574080D01*
X130577237Y-138567561D01*
X130511053Y-138561043D01*
X130397827Y-138526696D01*
X130341213Y-138509523D01*
X130184691Y-138425859D01*
X130184689Y-138425858D01*
X130148951Y-138396528D01*
X130047494Y-138313266D01*
X129949607Y-138193989D01*
X129934902Y-138176071D01*
X129860816Y-138037467D01*
X129851237Y-138019547D01*
X129805153Y-137867627D01*
X129799717Y-137849707D01*
X129782321Y-137673080D01*
X129799717Y-137496453D01*
X129851237Y-137326614D01*
X129851237Y-137326613D01*
X129934901Y-137170091D01*
X129934902Y-137170089D01*
X129964232Y-137134351D01*
X130047494Y-137032894D01*
X130162855Y-136938221D01*
X130184689Y-136920302D01*
X130202593Y-136910732D01*
X130341213Y-136836637D01*
X130397827Y-136819464D01*
X130511053Y-136785117D01*
X130577237Y-136778599D01*
X130643420Y-136772080D01*
X130731940Y-136772080D01*
X130798123Y-136778599D01*
X130798123Y-136778599D01*
G37*
G36*
X83560443Y-134256519D02*
X83626627Y-134263037D01*
X83737392Y-134296637D01*
X83796467Y-134314557D01*
X83919465Y-134380302D01*
X83952991Y-134398222D01*
X83988729Y-134427552D01*
X84090186Y-134510814D01*
X84173448Y-134612271D01*
X84202778Y-134648009D01*
X84202779Y-134648011D01*
X84286443Y-134804533D01*
X84286443Y-134804534D01*
X84337963Y-134974373D01*
X84355359Y-135151000D01*
X84337963Y-135327627D01*
X84303616Y-135440853D01*
X84286443Y-135497467D01*
X84212358Y-135636069D01*
X84202778Y-135653991D01*
X84173448Y-135689729D01*
X84090186Y-135791186D01*
X83988729Y-135874448D01*
X83952991Y-135903778D01*
X83952989Y-135903779D01*
X83796467Y-135987443D01*
X83739853Y-136004616D01*
X83626627Y-136038963D01*
X83560442Y-136045482D01*
X83494260Y-136052000D01*
X83405740Y-136052000D01*
X83339558Y-136045482D01*
X83273373Y-136038963D01*
X83160147Y-136004616D01*
X83103533Y-135987443D01*
X82947011Y-135903779D01*
X82947009Y-135903778D01*
X82911271Y-135874448D01*
X82809814Y-135791186D01*
X82726552Y-135689729D01*
X82697222Y-135653991D01*
X82687642Y-135636069D01*
X82613557Y-135497467D01*
X82596384Y-135440853D01*
X82562037Y-135327627D01*
X82544641Y-135151000D01*
X82562037Y-134974373D01*
X82613557Y-134804534D01*
X82613557Y-134804533D01*
X82697221Y-134648011D01*
X82697222Y-134648009D01*
X82726552Y-134612271D01*
X82809814Y-134510814D01*
X82911271Y-134427552D01*
X82947009Y-134398222D01*
X82980535Y-134380302D01*
X83103533Y-134314557D01*
X83162608Y-134296637D01*
X83273373Y-134263037D01*
X83339557Y-134256519D01*
X83405740Y-134250000D01*
X83494260Y-134250000D01*
X83560443Y-134256519D01*
X83560443Y-134256519D01*
G37*
G36*
X133338122Y-134238598D02*
X133404307Y-134245117D01*
X133517533Y-134279464D01*
X133574147Y-134296637D01*
X133607672Y-134314557D01*
X133730671Y-134380302D01*
X133752505Y-134398221D01*
X133867866Y-134492894D01*
X133951128Y-134594351D01*
X133980458Y-134630089D01*
X133980459Y-134630091D01*
X134064123Y-134786613D01*
X134064123Y-134786614D01*
X134115643Y-134956453D01*
X134133039Y-135133080D01*
X134115643Y-135309707D01*
X134110207Y-135327627D01*
X134064123Y-135479547D01*
X134054544Y-135497467D01*
X133980458Y-135636071D01*
X133965753Y-135653989D01*
X133867866Y-135773266D01*
X133766409Y-135856528D01*
X133730671Y-135885858D01*
X133730669Y-135885859D01*
X133574147Y-135969523D01*
X133517533Y-135986696D01*
X133404307Y-136021043D01*
X133338123Y-136027561D01*
X133271940Y-136034080D01*
X133183420Y-136034080D01*
X133117237Y-136027561D01*
X133051053Y-136021043D01*
X132937827Y-135986696D01*
X132881213Y-135969523D01*
X132724691Y-135885859D01*
X132724689Y-135885858D01*
X132688951Y-135856528D01*
X132587494Y-135773266D01*
X132489607Y-135653989D01*
X132474902Y-135636071D01*
X132400816Y-135497467D01*
X132391237Y-135479547D01*
X132345153Y-135327627D01*
X132339717Y-135309707D01*
X132322321Y-135133080D01*
X132339717Y-134956453D01*
X132391237Y-134786614D01*
X132391237Y-134786613D01*
X132474901Y-134630091D01*
X132474902Y-134630089D01*
X132504232Y-134594351D01*
X132587494Y-134492894D01*
X132702855Y-134398221D01*
X132724689Y-134380302D01*
X132847688Y-134314557D01*
X132881213Y-134296637D01*
X132937827Y-134279464D01*
X133051053Y-134245117D01*
X133117238Y-134238598D01*
X133183420Y-134232080D01*
X133271940Y-134232080D01*
X133338122Y-134238598D01*
X133338122Y-134238598D01*
G37*
G36*
X130798122Y-134238598D02*
X130864307Y-134245117D01*
X130977533Y-134279464D01*
X131034147Y-134296637D01*
X131067672Y-134314557D01*
X131190671Y-134380302D01*
X131212505Y-134398221D01*
X131327866Y-134492894D01*
X131411128Y-134594351D01*
X131440458Y-134630089D01*
X131440459Y-134630091D01*
X131524123Y-134786613D01*
X131524123Y-134786614D01*
X131575643Y-134956453D01*
X131593039Y-135133080D01*
X131575643Y-135309707D01*
X131570207Y-135327627D01*
X131524123Y-135479547D01*
X131514544Y-135497467D01*
X131440458Y-135636071D01*
X131425753Y-135653989D01*
X131327866Y-135773266D01*
X131226409Y-135856528D01*
X131190671Y-135885858D01*
X131190669Y-135885859D01*
X131034147Y-135969523D01*
X130977533Y-135986696D01*
X130864307Y-136021043D01*
X130798123Y-136027561D01*
X130731940Y-136034080D01*
X130643420Y-136034080D01*
X130577237Y-136027561D01*
X130511053Y-136021043D01*
X130397827Y-135986696D01*
X130341213Y-135969523D01*
X130184691Y-135885859D01*
X130184689Y-135885858D01*
X130148951Y-135856528D01*
X130047494Y-135773266D01*
X129949607Y-135653989D01*
X129934902Y-135636071D01*
X129860816Y-135497467D01*
X129851237Y-135479547D01*
X129805153Y-135327627D01*
X129799717Y-135309707D01*
X129782321Y-135133080D01*
X129799717Y-134956453D01*
X129851237Y-134786614D01*
X129851237Y-134786613D01*
X129934901Y-134630091D01*
X129934902Y-134630089D01*
X129964232Y-134594351D01*
X130047494Y-134492894D01*
X130162855Y-134398221D01*
X130184689Y-134380302D01*
X130307688Y-134314557D01*
X130341213Y-134296637D01*
X130397827Y-134279464D01*
X130511053Y-134245117D01*
X130577238Y-134238598D01*
X130643420Y-134232080D01*
X130731940Y-134232080D01*
X130798122Y-134238598D01*
X130798122Y-134238598D01*
G37*
G36*
X104466565Y-132180389D02*
X104657834Y-132259615D01*
X104829976Y-132374637D01*
X104976363Y-132521024D01*
X105091385Y-132693166D01*
X105170611Y-132884435D01*
X105211000Y-133087484D01*
X105211000Y-133294516D01*
X105170611Y-133497565D01*
X105091385Y-133688834D01*
X104976363Y-133860976D01*
X104829976Y-134007363D01*
X104657834Y-134122385D01*
X104466565Y-134201611D01*
X104263516Y-134242000D01*
X104056484Y-134242000D01*
X103853435Y-134201611D01*
X103662166Y-134122385D01*
X103490024Y-134007363D01*
X103343637Y-133860976D01*
X103228615Y-133688834D01*
X103149389Y-133497565D01*
X103109000Y-133294516D01*
X103109000Y-133087484D01*
X103149389Y-132884435D01*
X103228615Y-132693166D01*
X103343637Y-132521024D01*
X103490024Y-132374637D01*
X103662166Y-132259615D01*
X103853435Y-132180389D01*
X104056484Y-132140000D01*
X104263516Y-132140000D01*
X104466565Y-132180389D01*
X104466565Y-132180389D01*
G37*
G36*
X121256565Y-132180389D02*
X121447834Y-132259615D01*
X121619976Y-132374637D01*
X121766363Y-132521024D01*
X121881385Y-132693166D01*
X121960611Y-132884435D01*
X122001000Y-133087484D01*
X122001000Y-133294516D01*
X121960611Y-133497565D01*
X121881385Y-133688834D01*
X121766363Y-133860976D01*
X121619976Y-134007363D01*
X121447834Y-134122385D01*
X121256565Y-134201611D01*
X121053516Y-134242000D01*
X120846484Y-134242000D01*
X120643435Y-134201611D01*
X120452166Y-134122385D01*
X120280024Y-134007363D01*
X120133637Y-133860976D01*
X120018615Y-133688834D01*
X119939389Y-133497565D01*
X119899000Y-133294516D01*
X119899000Y-133087484D01*
X119939389Y-132884435D01*
X120018615Y-132693166D01*
X120133637Y-132521024D01*
X120280024Y-132374637D01*
X120452166Y-132259615D01*
X120643435Y-132180389D01*
X120846484Y-132140000D01*
X121053516Y-132140000D01*
X121256565Y-132180389D01*
X121256565Y-132180389D01*
G37*
G36*
X114756565Y-132180389D02*
X114947834Y-132259615D01*
X115119976Y-132374637D01*
X115266363Y-132521024D01*
X115381385Y-132693166D01*
X115460611Y-132884435D01*
X115501000Y-133087484D01*
X115501000Y-133294516D01*
X115460611Y-133497565D01*
X115381385Y-133688834D01*
X115266363Y-133860976D01*
X115119976Y-134007363D01*
X114947834Y-134122385D01*
X114756565Y-134201611D01*
X114553516Y-134242000D01*
X114346484Y-134242000D01*
X114143435Y-134201611D01*
X113952166Y-134122385D01*
X113780024Y-134007363D01*
X113633637Y-133860976D01*
X113518615Y-133688834D01*
X113439389Y-133497565D01*
X113399000Y-133294516D01*
X113399000Y-133087484D01*
X113439389Y-132884435D01*
X113518615Y-132693166D01*
X113633637Y-132521024D01*
X113780024Y-132374637D01*
X113952166Y-132259615D01*
X114143435Y-132180389D01*
X114346484Y-132140000D01*
X114553516Y-132140000D01*
X114756565Y-132180389D01*
X114756565Y-132180389D01*
G37*
G36*
X100756565Y-132180389D02*
X100947834Y-132259615D01*
X101119976Y-132374637D01*
X101266363Y-132521024D01*
X101381385Y-132693166D01*
X101460611Y-132884435D01*
X101501000Y-133087484D01*
X101501000Y-133294516D01*
X101460611Y-133497565D01*
X101381385Y-133688834D01*
X101266363Y-133860976D01*
X101119976Y-134007363D01*
X100947834Y-134122385D01*
X100756565Y-134201611D01*
X100553516Y-134242000D01*
X100346484Y-134242000D01*
X100143435Y-134201611D01*
X99952166Y-134122385D01*
X99780024Y-134007363D01*
X99633637Y-133860976D01*
X99518615Y-133688834D01*
X99439389Y-133497565D01*
X99399000Y-133294516D01*
X99399000Y-133087484D01*
X99439389Y-132884435D01*
X99518615Y-132693166D01*
X99633637Y-132521024D01*
X99780024Y-132374637D01*
X99952166Y-132259615D01*
X100143435Y-132180389D01*
X100346484Y-132140000D01*
X100553516Y-132140000D01*
X100756565Y-132180389D01*
X100756565Y-132180389D01*
G37*
G36*
X94256565Y-132180389D02*
X94447834Y-132259615D01*
X94619976Y-132374637D01*
X94766363Y-132521024D01*
X94881385Y-132693166D01*
X94960611Y-132884435D01*
X95001000Y-133087484D01*
X95001000Y-133294516D01*
X94960611Y-133497565D01*
X94881385Y-133688834D01*
X94766363Y-133860976D01*
X94619976Y-134007363D01*
X94447834Y-134122385D01*
X94256565Y-134201611D01*
X94053516Y-134242000D01*
X93846484Y-134242000D01*
X93643435Y-134201611D01*
X93452166Y-134122385D01*
X93280024Y-134007363D01*
X93133637Y-133860976D01*
X93018615Y-133688834D01*
X92939389Y-133497565D01*
X92899000Y-133294516D01*
X92899000Y-133087484D01*
X92939389Y-132884435D01*
X93018615Y-132693166D01*
X93133637Y-132521024D01*
X93280024Y-132374637D01*
X93452166Y-132259615D01*
X93643435Y-132180389D01*
X93846484Y-132140000D01*
X94053516Y-132140000D01*
X94256565Y-132180389D01*
X94256565Y-132180389D01*
G37*
G36*
X110966565Y-132180389D02*
X111157834Y-132259615D01*
X111329976Y-132374637D01*
X111476363Y-132521024D01*
X111591385Y-132693166D01*
X111670611Y-132884435D01*
X111711000Y-133087484D01*
X111711000Y-133294516D01*
X111670611Y-133497565D01*
X111591385Y-133688834D01*
X111476363Y-133860976D01*
X111329976Y-134007363D01*
X111157834Y-134122385D01*
X110966565Y-134201611D01*
X110763516Y-134242000D01*
X110556484Y-134242000D01*
X110353435Y-134201611D01*
X110162166Y-134122385D01*
X109990024Y-134007363D01*
X109843637Y-133860976D01*
X109728615Y-133688834D01*
X109649389Y-133497565D01*
X109609000Y-133294516D01*
X109609000Y-133087484D01*
X109649389Y-132884435D01*
X109728615Y-132693166D01*
X109843637Y-132521024D01*
X109990024Y-132374637D01*
X110162166Y-132259615D01*
X110353435Y-132180389D01*
X110556484Y-132140000D01*
X110763516Y-132140000D01*
X110966565Y-132180389D01*
X110966565Y-132180389D01*
G37*
G36*
X83560443Y-131716519D02*
X83626627Y-131723037D01*
X83737392Y-131756637D01*
X83796467Y-131774557D01*
X83919465Y-131840302D01*
X83952991Y-131858222D01*
X83988729Y-131887552D01*
X84090186Y-131970814D01*
X84173448Y-132072271D01*
X84202778Y-132108009D01*
X84202779Y-132108011D01*
X84286443Y-132264533D01*
X84286443Y-132264534D01*
X84337963Y-132434373D01*
X84355359Y-132611000D01*
X84337963Y-132787627D01*
X84308597Y-132884435D01*
X84286443Y-132957467D01*
X84216946Y-133087484D01*
X84202778Y-133113991D01*
X84173448Y-133149729D01*
X84090186Y-133251186D01*
X83988729Y-133334448D01*
X83952991Y-133363778D01*
X83952989Y-133363779D01*
X83796467Y-133447443D01*
X83739853Y-133464616D01*
X83626627Y-133498963D01*
X83560443Y-133505481D01*
X83494260Y-133512000D01*
X83405740Y-133512000D01*
X83339557Y-133505481D01*
X83273373Y-133498963D01*
X83160147Y-133464616D01*
X83103533Y-133447443D01*
X82947011Y-133363779D01*
X82947009Y-133363778D01*
X82911271Y-133334448D01*
X82809814Y-133251186D01*
X82726552Y-133149729D01*
X82697222Y-133113991D01*
X82683054Y-133087484D01*
X82613557Y-132957467D01*
X82591403Y-132884435D01*
X82562037Y-132787627D01*
X82544641Y-132611000D01*
X82562037Y-132434373D01*
X82613557Y-132264534D01*
X82613557Y-132264533D01*
X82697221Y-132108011D01*
X82697222Y-132108009D01*
X82726552Y-132072271D01*
X82809814Y-131970814D01*
X82911271Y-131887552D01*
X82947009Y-131858222D01*
X82980535Y-131840302D01*
X83103533Y-131774557D01*
X83162608Y-131756637D01*
X83273373Y-131723037D01*
X83339557Y-131716519D01*
X83405740Y-131710000D01*
X83494260Y-131710000D01*
X83560443Y-131716519D01*
X83560443Y-131716519D01*
G37*
G36*
X133338122Y-131698598D02*
X133404307Y-131705117D01*
X133517533Y-131739464D01*
X133574147Y-131756637D01*
X133607672Y-131774557D01*
X133730671Y-131840302D01*
X133752505Y-131858221D01*
X133867866Y-131952894D01*
X133951128Y-132054351D01*
X133980458Y-132090089D01*
X133980459Y-132090091D01*
X134064123Y-132246613D01*
X134064123Y-132246614D01*
X134115643Y-132416453D01*
X134133039Y-132593080D01*
X134115643Y-132769707D01*
X134110207Y-132787627D01*
X134064123Y-132939547D01*
X134054544Y-132957467D01*
X133980458Y-133096071D01*
X133965753Y-133113989D01*
X133867866Y-133233266D01*
X133766409Y-133316528D01*
X133730671Y-133345858D01*
X133730669Y-133345859D01*
X133574147Y-133429523D01*
X133517533Y-133446696D01*
X133404307Y-133481043D01*
X133338122Y-133487562D01*
X133271940Y-133494080D01*
X133183420Y-133494080D01*
X133117238Y-133487562D01*
X133051053Y-133481043D01*
X132937827Y-133446696D01*
X132881213Y-133429523D01*
X132724691Y-133345859D01*
X132724689Y-133345858D01*
X132688951Y-133316528D01*
X132587494Y-133233266D01*
X132489607Y-133113989D01*
X132474902Y-133096071D01*
X132400816Y-132957467D01*
X132391237Y-132939547D01*
X132345153Y-132787627D01*
X132339717Y-132769707D01*
X132322321Y-132593080D01*
X132339717Y-132416453D01*
X132391237Y-132246614D01*
X132391237Y-132246613D01*
X132474901Y-132090091D01*
X132474902Y-132090089D01*
X132504232Y-132054351D01*
X132587494Y-131952894D01*
X132702855Y-131858221D01*
X132724689Y-131840302D01*
X132847688Y-131774557D01*
X132881213Y-131756637D01*
X132937827Y-131739464D01*
X133051053Y-131705117D01*
X133117238Y-131698598D01*
X133183420Y-131692080D01*
X133271940Y-131692080D01*
X133338122Y-131698598D01*
X133338122Y-131698598D01*
G37*
G36*
X130798122Y-131698598D02*
X130864307Y-131705117D01*
X130977533Y-131739464D01*
X131034147Y-131756637D01*
X131067672Y-131774557D01*
X131190671Y-131840302D01*
X131212505Y-131858221D01*
X131327866Y-131952894D01*
X131411128Y-132054351D01*
X131440458Y-132090089D01*
X131440459Y-132090091D01*
X131524123Y-132246613D01*
X131524123Y-132246614D01*
X131575643Y-132416453D01*
X131593039Y-132593080D01*
X131575643Y-132769707D01*
X131570207Y-132787627D01*
X131524123Y-132939547D01*
X131514544Y-132957467D01*
X131440458Y-133096071D01*
X131425753Y-133113989D01*
X131327866Y-133233266D01*
X131226409Y-133316528D01*
X131190671Y-133345858D01*
X131190669Y-133345859D01*
X131034147Y-133429523D01*
X130977533Y-133446696D01*
X130864307Y-133481043D01*
X130798122Y-133487562D01*
X130731940Y-133494080D01*
X130643420Y-133494080D01*
X130577238Y-133487562D01*
X130511053Y-133481043D01*
X130397827Y-133446696D01*
X130341213Y-133429523D01*
X130184691Y-133345859D01*
X130184689Y-133345858D01*
X130148951Y-133316528D01*
X130047494Y-133233266D01*
X129949607Y-133113989D01*
X129934902Y-133096071D01*
X129860816Y-132957467D01*
X129851237Y-132939547D01*
X129805153Y-132787627D01*
X129799717Y-132769707D01*
X129782321Y-132593080D01*
X129799717Y-132416453D01*
X129851237Y-132246614D01*
X129851237Y-132246613D01*
X129934901Y-132090091D01*
X129934902Y-132090089D01*
X129964232Y-132054351D01*
X130047494Y-131952894D01*
X130162855Y-131858221D01*
X130184689Y-131840302D01*
X130307688Y-131774557D01*
X130341213Y-131756637D01*
X130397827Y-131739464D01*
X130511053Y-131705117D01*
X130577238Y-131698598D01*
X130643420Y-131692080D01*
X130731940Y-131692080D01*
X130798122Y-131698598D01*
X130798122Y-131698598D01*
G37*
G36*
X84351000Y-130972000D02*
X82549000Y-130972000D01*
X82549000Y-129170000D01*
X84351000Y-129170000D01*
X84351000Y-130972000D01*
X84351000Y-130972000D01*
G37*
G36*
X133338123Y-129158599D02*
X133404307Y-129165117D01*
X133517533Y-129199464D01*
X133574147Y-129216637D01*
X133712767Y-129290732D01*
X133730671Y-129300302D01*
X133766409Y-129329632D01*
X133867866Y-129412894D01*
X133951128Y-129514351D01*
X133980458Y-129550089D01*
X133980459Y-129550091D01*
X134064123Y-129706613D01*
X134064123Y-129706614D01*
X134115643Y-129876453D01*
X134133039Y-130053080D01*
X134115643Y-130229707D01*
X134081296Y-130342933D01*
X134064123Y-130399547D01*
X133990028Y-130538167D01*
X133980458Y-130556071D01*
X133951128Y-130591809D01*
X133867866Y-130693266D01*
X133766409Y-130776528D01*
X133730671Y-130805858D01*
X133730669Y-130805859D01*
X133574147Y-130889523D01*
X133517533Y-130906696D01*
X133404307Y-130941043D01*
X133338123Y-130947561D01*
X133271940Y-130954080D01*
X133183420Y-130954080D01*
X133117237Y-130947561D01*
X133051053Y-130941043D01*
X132937827Y-130906696D01*
X132881213Y-130889523D01*
X132724691Y-130805859D01*
X132724689Y-130805858D01*
X132688951Y-130776528D01*
X132587494Y-130693266D01*
X132504232Y-130591809D01*
X132474902Y-130556071D01*
X132465332Y-130538167D01*
X132391237Y-130399547D01*
X132374064Y-130342933D01*
X132339717Y-130229707D01*
X132322321Y-130053080D01*
X132339717Y-129876453D01*
X132391237Y-129706614D01*
X132391237Y-129706613D01*
X132474901Y-129550091D01*
X132474902Y-129550089D01*
X132504232Y-129514351D01*
X132587494Y-129412894D01*
X132688951Y-129329632D01*
X132724689Y-129300302D01*
X132742593Y-129290732D01*
X132881213Y-129216637D01*
X132937827Y-129199464D01*
X133051053Y-129165117D01*
X133117237Y-129158599D01*
X133183420Y-129152080D01*
X133271940Y-129152080D01*
X133338123Y-129158599D01*
X133338123Y-129158599D01*
G37*
G36*
X130798123Y-129158599D02*
X130864307Y-129165117D01*
X130977533Y-129199464D01*
X131034147Y-129216637D01*
X131172767Y-129290732D01*
X131190671Y-129300302D01*
X131226409Y-129329632D01*
X131327866Y-129412894D01*
X131411128Y-129514351D01*
X131440458Y-129550089D01*
X131440459Y-129550091D01*
X131524123Y-129706613D01*
X131524123Y-129706614D01*
X131575643Y-129876453D01*
X131593039Y-130053080D01*
X131575643Y-130229707D01*
X131541296Y-130342933D01*
X131524123Y-130399547D01*
X131450028Y-130538167D01*
X131440458Y-130556071D01*
X131411128Y-130591809D01*
X131327866Y-130693266D01*
X131226409Y-130776528D01*
X131190671Y-130805858D01*
X131190669Y-130805859D01*
X131034147Y-130889523D01*
X130977533Y-130906696D01*
X130864307Y-130941043D01*
X130798123Y-130947561D01*
X130731940Y-130954080D01*
X130643420Y-130954080D01*
X130577237Y-130947561D01*
X130511053Y-130941043D01*
X130397827Y-130906696D01*
X130341213Y-130889523D01*
X130184691Y-130805859D01*
X130184689Y-130805858D01*
X130148951Y-130776528D01*
X130047494Y-130693266D01*
X129964232Y-130591809D01*
X129934902Y-130556071D01*
X129925332Y-130538167D01*
X129851237Y-130399547D01*
X129834064Y-130342933D01*
X129799717Y-130229707D01*
X129782321Y-130053080D01*
X129799717Y-129876453D01*
X129851237Y-129706614D01*
X129851237Y-129706613D01*
X129934901Y-129550091D01*
X129934902Y-129550089D01*
X129964232Y-129514351D01*
X130047494Y-129412894D01*
X130148951Y-129329632D01*
X130184689Y-129300302D01*
X130202593Y-129290732D01*
X130341213Y-129216637D01*
X130397827Y-129199464D01*
X130511053Y-129165117D01*
X130577237Y-129158599D01*
X130643420Y-129152080D01*
X130731940Y-129152080D01*
X130798123Y-129158599D01*
X130798123Y-129158599D01*
G37*
G36*
X96256565Y-127302246D02*
X96447834Y-127381472D01*
X96619976Y-127496494D01*
X96766363Y-127642881D01*
X96881385Y-127815023D01*
X96960611Y-128006292D01*
X97001000Y-128209341D01*
X97001000Y-128416373D01*
X96960611Y-128619422D01*
X96881385Y-128810691D01*
X96766363Y-128982833D01*
X96619976Y-129129220D01*
X96447834Y-129244242D01*
X96256565Y-129323468D01*
X96053516Y-129363857D01*
X95846484Y-129363857D01*
X95643435Y-129323468D01*
X95452166Y-129244242D01*
X95280024Y-129129220D01*
X95133637Y-128982833D01*
X95018615Y-128810691D01*
X94939389Y-128619422D01*
X94899000Y-128416373D01*
X94899000Y-128209341D01*
X94939389Y-128006292D01*
X95018615Y-127815023D01*
X95133637Y-127642881D01*
X95280024Y-127496494D01*
X95452166Y-127381472D01*
X95643435Y-127302246D01*
X95846484Y-127261857D01*
X96053516Y-127261857D01*
X96256565Y-127302246D01*
X96256565Y-127302246D01*
G37*
G36*
X119256565Y-127302246D02*
X119447834Y-127381472D01*
X119619976Y-127496494D01*
X119766363Y-127642881D01*
X119881385Y-127815023D01*
X119960611Y-128006292D01*
X120001000Y-128209341D01*
X120001000Y-128416373D01*
X119960611Y-128619422D01*
X119881385Y-128810691D01*
X119766363Y-128982833D01*
X119619976Y-129129220D01*
X119447834Y-129244242D01*
X119256565Y-129323468D01*
X119053516Y-129363857D01*
X118846484Y-129363857D01*
X118643435Y-129323468D01*
X118452166Y-129244242D01*
X118280024Y-129129220D01*
X118133637Y-128982833D01*
X118018615Y-128810691D01*
X117939389Y-128619422D01*
X117899000Y-128416373D01*
X117899000Y-128209341D01*
X117939389Y-128006292D01*
X118018615Y-127815023D01*
X118133637Y-127642881D01*
X118280024Y-127496494D01*
X118452166Y-127381472D01*
X118643435Y-127302246D01*
X118846484Y-127261857D01*
X119053516Y-127261857D01*
X119256565Y-127302246D01*
X119256565Y-127302246D01*
G37*
G36*
X133338122Y-126618598D02*
X133404307Y-126625117D01*
X133517533Y-126659464D01*
X133574147Y-126676637D01*
X133712767Y-126750732D01*
X133730671Y-126760302D01*
X133766409Y-126789632D01*
X133867866Y-126872894D01*
X133951128Y-126974351D01*
X133980458Y-127010089D01*
X133980459Y-127010091D01*
X134064123Y-127166613D01*
X134064123Y-127166614D01*
X134115643Y-127336453D01*
X134133039Y-127513080D01*
X134115643Y-127689707D01*
X134081296Y-127802933D01*
X134064123Y-127859547D01*
X133990028Y-127998167D01*
X133980458Y-128016071D01*
X133951128Y-128051809D01*
X133867866Y-128153266D01*
X133766409Y-128236528D01*
X133730671Y-128265858D01*
X133730669Y-128265859D01*
X133574147Y-128349523D01*
X133517533Y-128366696D01*
X133404307Y-128401043D01*
X133338122Y-128407562D01*
X133271940Y-128414080D01*
X133183420Y-128414080D01*
X133117238Y-128407562D01*
X133051053Y-128401043D01*
X132937827Y-128366696D01*
X132881213Y-128349523D01*
X132724691Y-128265859D01*
X132724689Y-128265858D01*
X132688951Y-128236528D01*
X132587494Y-128153266D01*
X132504232Y-128051809D01*
X132474902Y-128016071D01*
X132465332Y-127998167D01*
X132391237Y-127859547D01*
X132374064Y-127802933D01*
X132339717Y-127689707D01*
X132322321Y-127513080D01*
X132339717Y-127336453D01*
X132391237Y-127166614D01*
X132391237Y-127166613D01*
X132474901Y-127010091D01*
X132474902Y-127010089D01*
X132504232Y-126974351D01*
X132587494Y-126872894D01*
X132688951Y-126789632D01*
X132724689Y-126760302D01*
X132742593Y-126750732D01*
X132881213Y-126676637D01*
X132937827Y-126659464D01*
X133051053Y-126625117D01*
X133117238Y-126618598D01*
X133183420Y-126612080D01*
X133271940Y-126612080D01*
X133338122Y-126618598D01*
X133338122Y-126618598D01*
G37*
G36*
X130798122Y-126618598D02*
X130864307Y-126625117D01*
X130977533Y-126659464D01*
X131034147Y-126676637D01*
X131172767Y-126750732D01*
X131190671Y-126760302D01*
X131226409Y-126789632D01*
X131327866Y-126872894D01*
X131411128Y-126974351D01*
X131440458Y-127010089D01*
X131440459Y-127010091D01*
X131524123Y-127166613D01*
X131524123Y-127166614D01*
X131575643Y-127336453D01*
X131593039Y-127513080D01*
X131575643Y-127689707D01*
X131541296Y-127802933D01*
X131524123Y-127859547D01*
X131450028Y-127998167D01*
X131440458Y-128016071D01*
X131411128Y-128051809D01*
X131327866Y-128153266D01*
X131226409Y-128236528D01*
X131190671Y-128265858D01*
X131190669Y-128265859D01*
X131034147Y-128349523D01*
X130977533Y-128366696D01*
X130864307Y-128401043D01*
X130798122Y-128407562D01*
X130731940Y-128414080D01*
X130643420Y-128414080D01*
X130577238Y-128407562D01*
X130511053Y-128401043D01*
X130397827Y-128366696D01*
X130341213Y-128349523D01*
X130184691Y-128265859D01*
X130184689Y-128265858D01*
X130148951Y-128236528D01*
X130047494Y-128153266D01*
X129964232Y-128051809D01*
X129934902Y-128016071D01*
X129925332Y-127998167D01*
X129851237Y-127859547D01*
X129834064Y-127802933D01*
X129799717Y-127689707D01*
X129782321Y-127513080D01*
X129799717Y-127336453D01*
X129851237Y-127166614D01*
X129851237Y-127166613D01*
X129934901Y-127010091D01*
X129934902Y-127010089D01*
X129964232Y-126974351D01*
X130047494Y-126872894D01*
X130148951Y-126789632D01*
X130184689Y-126760302D01*
X130202593Y-126750732D01*
X130341213Y-126676637D01*
X130397827Y-126659464D01*
X130511053Y-126625117D01*
X130577238Y-126618598D01*
X130643420Y-126612080D01*
X130731940Y-126612080D01*
X130798122Y-126618598D01*
X130798122Y-126618598D01*
G37*
G36*
X133338122Y-124078598D02*
X133404307Y-124085117D01*
X133517533Y-124119464D01*
X133574147Y-124136637D01*
X133712767Y-124210732D01*
X133730671Y-124220302D01*
X133766409Y-124249632D01*
X133867866Y-124332894D01*
X133951128Y-124434351D01*
X133980458Y-124470089D01*
X133980459Y-124470091D01*
X134064123Y-124626613D01*
X134064123Y-124626614D01*
X134115643Y-124796453D01*
X134133039Y-124973080D01*
X134115643Y-125149707D01*
X134099898Y-125201610D01*
X134064123Y-125319547D01*
X133990028Y-125458167D01*
X133980458Y-125476071D01*
X133951128Y-125511809D01*
X133867866Y-125613266D01*
X133766409Y-125696528D01*
X133730671Y-125725858D01*
X133730669Y-125725859D01*
X133574147Y-125809523D01*
X133517533Y-125826696D01*
X133404307Y-125861043D01*
X133338122Y-125867562D01*
X133271940Y-125874080D01*
X133183420Y-125874080D01*
X133117238Y-125867562D01*
X133051053Y-125861043D01*
X132937827Y-125826696D01*
X132881213Y-125809523D01*
X132724691Y-125725859D01*
X132724689Y-125725858D01*
X132688951Y-125696528D01*
X132587494Y-125613266D01*
X132504232Y-125511809D01*
X132474902Y-125476071D01*
X132465332Y-125458167D01*
X132391237Y-125319547D01*
X132355462Y-125201610D01*
X132339717Y-125149707D01*
X132322321Y-124973080D01*
X132339717Y-124796453D01*
X132391237Y-124626614D01*
X132391237Y-124626613D01*
X132474901Y-124470091D01*
X132474902Y-124470089D01*
X132504232Y-124434351D01*
X132587494Y-124332894D01*
X132688951Y-124249632D01*
X132724689Y-124220302D01*
X132742593Y-124210732D01*
X132881213Y-124136637D01*
X132937827Y-124119464D01*
X133051053Y-124085117D01*
X133117238Y-124078598D01*
X133183420Y-124072080D01*
X133271940Y-124072080D01*
X133338122Y-124078598D01*
X133338122Y-124078598D01*
G37*
G36*
X130798122Y-124078598D02*
X130864307Y-124085117D01*
X130977533Y-124119464D01*
X131034147Y-124136637D01*
X131172767Y-124210732D01*
X131190671Y-124220302D01*
X131226409Y-124249632D01*
X131327866Y-124332894D01*
X131411128Y-124434351D01*
X131440458Y-124470089D01*
X131440459Y-124470091D01*
X131524123Y-124626613D01*
X131524123Y-124626614D01*
X131575643Y-124796453D01*
X131593039Y-124973080D01*
X131575643Y-125149707D01*
X131559898Y-125201610D01*
X131524123Y-125319547D01*
X131450028Y-125458167D01*
X131440458Y-125476071D01*
X131411128Y-125511809D01*
X131327866Y-125613266D01*
X131226409Y-125696528D01*
X131190671Y-125725858D01*
X131190669Y-125725859D01*
X131034147Y-125809523D01*
X130977533Y-125826696D01*
X130864307Y-125861043D01*
X130798122Y-125867562D01*
X130731940Y-125874080D01*
X130643420Y-125874080D01*
X130577238Y-125867562D01*
X130511053Y-125861043D01*
X130397827Y-125826696D01*
X130341213Y-125809523D01*
X130184691Y-125725859D01*
X130184689Y-125725858D01*
X130148951Y-125696528D01*
X130047494Y-125613266D01*
X129964232Y-125511809D01*
X129934902Y-125476071D01*
X129925332Y-125458167D01*
X129851237Y-125319547D01*
X129815462Y-125201610D01*
X129799717Y-125149707D01*
X129782321Y-124973080D01*
X129799717Y-124796453D01*
X129851237Y-124626614D01*
X129851237Y-124626613D01*
X129934901Y-124470091D01*
X129934902Y-124470089D01*
X129964232Y-124434351D01*
X130047494Y-124332894D01*
X130148951Y-124249632D01*
X130184689Y-124220302D01*
X130202593Y-124210732D01*
X130341213Y-124136637D01*
X130397827Y-124119464D01*
X130511053Y-124085117D01*
X130577238Y-124078598D01*
X130643420Y-124072080D01*
X130731940Y-124072080D01*
X130798122Y-124078598D01*
X130798122Y-124078598D01*
G37*
G36*
X127756565Y-123180389D02*
X127947834Y-123259615D01*
X128119976Y-123374637D01*
X128266363Y-123521024D01*
X128381385Y-123693166D01*
X128460611Y-123884435D01*
X128501000Y-124087484D01*
X128501000Y-124294516D01*
X128460611Y-124497565D01*
X128381385Y-124688834D01*
X128266363Y-124860976D01*
X128119976Y-125007363D01*
X127947834Y-125122385D01*
X127756565Y-125201611D01*
X127553516Y-125242000D01*
X127346484Y-125242000D01*
X127143435Y-125201611D01*
X126952166Y-125122385D01*
X126780024Y-125007363D01*
X126633637Y-124860976D01*
X126518615Y-124688834D01*
X126439389Y-124497565D01*
X126399000Y-124294516D01*
X126399000Y-124087484D01*
X126439389Y-123884435D01*
X126518615Y-123693166D01*
X126633637Y-123521024D01*
X126780024Y-123374637D01*
X126952166Y-123259615D01*
X127143435Y-123180389D01*
X127346484Y-123140000D01*
X127553516Y-123140000D01*
X127756565Y-123180389D01*
X127756565Y-123180389D01*
G37*
G36*
X123256565Y-123180389D02*
X123447834Y-123259615D01*
X123619976Y-123374637D01*
X123766363Y-123521024D01*
X123881385Y-123693166D01*
X123960611Y-123884435D01*
X124001000Y-124087484D01*
X124001000Y-124294516D01*
X123960611Y-124497565D01*
X123881385Y-124688834D01*
X123766363Y-124860976D01*
X123619976Y-125007363D01*
X123447834Y-125122385D01*
X123256565Y-125201611D01*
X123053516Y-125242000D01*
X122846484Y-125242000D01*
X122643435Y-125201611D01*
X122452166Y-125122385D01*
X122280024Y-125007363D01*
X122133637Y-124860976D01*
X122018615Y-124688834D01*
X121939389Y-124497565D01*
X121899000Y-124294516D01*
X121899000Y-124087484D01*
X121939389Y-123884435D01*
X122018615Y-123693166D01*
X122133637Y-123521024D01*
X122280024Y-123374637D01*
X122452166Y-123259615D01*
X122643435Y-123180389D01*
X122846484Y-123140000D01*
X123053516Y-123140000D01*
X123256565Y-123180389D01*
X123256565Y-123180389D01*
G37*
G36*
X133338123Y-121538599D02*
X133404307Y-121545117D01*
X133517533Y-121579464D01*
X133574147Y-121596637D01*
X133712767Y-121670732D01*
X133730671Y-121680302D01*
X133766409Y-121709632D01*
X133867866Y-121792894D01*
X133951128Y-121894351D01*
X133980458Y-121930089D01*
X133980459Y-121930091D01*
X134064123Y-122086613D01*
X134064123Y-122086614D01*
X134115643Y-122256453D01*
X134133039Y-122433080D01*
X134115643Y-122609707D01*
X134081296Y-122722933D01*
X134064123Y-122779547D01*
X133990028Y-122918167D01*
X133980458Y-122936071D01*
X133951128Y-122971809D01*
X133867866Y-123073266D01*
X133786549Y-123140000D01*
X133730671Y-123185858D01*
X133730669Y-123185859D01*
X133574147Y-123269523D01*
X133517533Y-123286696D01*
X133404307Y-123321043D01*
X133338123Y-123327561D01*
X133271940Y-123334080D01*
X133183420Y-123334080D01*
X133117237Y-123327561D01*
X133051053Y-123321043D01*
X132937827Y-123286696D01*
X132881213Y-123269523D01*
X132724691Y-123185859D01*
X132724689Y-123185858D01*
X132668811Y-123140000D01*
X132587494Y-123073266D01*
X132504232Y-122971809D01*
X132474902Y-122936071D01*
X132465332Y-122918167D01*
X132391237Y-122779547D01*
X132374064Y-122722933D01*
X132339717Y-122609707D01*
X132322321Y-122433080D01*
X132339717Y-122256453D01*
X132391237Y-122086614D01*
X132391237Y-122086613D01*
X132474901Y-121930091D01*
X132474902Y-121930089D01*
X132504232Y-121894351D01*
X132587494Y-121792894D01*
X132688951Y-121709632D01*
X132724689Y-121680302D01*
X132742593Y-121670732D01*
X132881213Y-121596637D01*
X132937827Y-121579464D01*
X133051053Y-121545117D01*
X133117237Y-121538599D01*
X133183420Y-121532080D01*
X133271940Y-121532080D01*
X133338123Y-121538599D01*
X133338123Y-121538599D01*
G37*
G36*
X130798123Y-121538599D02*
X130864307Y-121545117D01*
X130977533Y-121579464D01*
X131034147Y-121596637D01*
X131172767Y-121670732D01*
X131190671Y-121680302D01*
X131226409Y-121709632D01*
X131327866Y-121792894D01*
X131411128Y-121894351D01*
X131440458Y-121930089D01*
X131440459Y-121930091D01*
X131524123Y-122086613D01*
X131524123Y-122086614D01*
X131575643Y-122256453D01*
X131593039Y-122433080D01*
X131575643Y-122609707D01*
X131541296Y-122722933D01*
X131524123Y-122779547D01*
X131450028Y-122918167D01*
X131440458Y-122936071D01*
X131411128Y-122971809D01*
X131327866Y-123073266D01*
X131246549Y-123140000D01*
X131190671Y-123185858D01*
X131190669Y-123185859D01*
X131034147Y-123269523D01*
X130977533Y-123286696D01*
X130864307Y-123321043D01*
X130798123Y-123327561D01*
X130731940Y-123334080D01*
X130643420Y-123334080D01*
X130577237Y-123327561D01*
X130511053Y-123321043D01*
X130397827Y-123286696D01*
X130341213Y-123269523D01*
X130184691Y-123185859D01*
X130184689Y-123185858D01*
X130128811Y-123140000D01*
X130047494Y-123073266D01*
X129964232Y-122971809D01*
X129934902Y-122936071D01*
X129925332Y-122918167D01*
X129851237Y-122779547D01*
X129834064Y-122722933D01*
X129799717Y-122609707D01*
X129782321Y-122433080D01*
X129799717Y-122256453D01*
X129851237Y-122086614D01*
X129851237Y-122086613D01*
X129934901Y-121930091D01*
X129934902Y-121930089D01*
X129964232Y-121894351D01*
X130047494Y-121792894D01*
X130148951Y-121709632D01*
X130184689Y-121680302D01*
X130202593Y-121670732D01*
X130341213Y-121596637D01*
X130397827Y-121579464D01*
X130511053Y-121545117D01*
X130577237Y-121538599D01*
X130643420Y-121532080D01*
X130731940Y-121532080D01*
X130798123Y-121538599D01*
X130798123Y-121538599D01*
G37*
G36*
X133338123Y-118998599D02*
X133404307Y-119005117D01*
X133517533Y-119039464D01*
X133574147Y-119056637D01*
X133712767Y-119130732D01*
X133730671Y-119140302D01*
X133766409Y-119169632D01*
X133867866Y-119252894D01*
X133951128Y-119354351D01*
X133980458Y-119390089D01*
X133980459Y-119390091D01*
X134064123Y-119546613D01*
X134064123Y-119546614D01*
X134115643Y-119716453D01*
X134133039Y-119893080D01*
X134115643Y-120069707D01*
X134081296Y-120182933D01*
X134064123Y-120239547D01*
X133990028Y-120378167D01*
X133980458Y-120396071D01*
X133951128Y-120431809D01*
X133867866Y-120533266D01*
X133766409Y-120616528D01*
X133730671Y-120645858D01*
X133730669Y-120645859D01*
X133574147Y-120729523D01*
X133517533Y-120746696D01*
X133404307Y-120781043D01*
X133338122Y-120787562D01*
X133271940Y-120794080D01*
X133183420Y-120794080D01*
X133117238Y-120787562D01*
X133051053Y-120781043D01*
X132937827Y-120746696D01*
X132881213Y-120729523D01*
X132724691Y-120645859D01*
X132724689Y-120645858D01*
X132688951Y-120616528D01*
X132587494Y-120533266D01*
X132504232Y-120431809D01*
X132474902Y-120396071D01*
X132465332Y-120378167D01*
X132391237Y-120239547D01*
X132374064Y-120182933D01*
X132339717Y-120069707D01*
X132322321Y-119893080D01*
X132339717Y-119716453D01*
X132391237Y-119546614D01*
X132391237Y-119546613D01*
X132474901Y-119390091D01*
X132474902Y-119390089D01*
X132504232Y-119354351D01*
X132587494Y-119252894D01*
X132688951Y-119169632D01*
X132724689Y-119140302D01*
X132742593Y-119130732D01*
X132881213Y-119056637D01*
X132937827Y-119039464D01*
X133051053Y-119005117D01*
X133117237Y-118998599D01*
X133183420Y-118992080D01*
X133271940Y-118992080D01*
X133338123Y-118998599D01*
X133338123Y-118998599D01*
G37*
G36*
X130798123Y-118998599D02*
X130864307Y-119005117D01*
X130977533Y-119039464D01*
X131034147Y-119056637D01*
X131172767Y-119130732D01*
X131190671Y-119140302D01*
X131226409Y-119169632D01*
X131327866Y-119252894D01*
X131411128Y-119354351D01*
X131440458Y-119390089D01*
X131440459Y-119390091D01*
X131524123Y-119546613D01*
X131524123Y-119546614D01*
X131575643Y-119716453D01*
X131593039Y-119893080D01*
X131575643Y-120069707D01*
X131541296Y-120182933D01*
X131524123Y-120239547D01*
X131450028Y-120378167D01*
X131440458Y-120396071D01*
X131411128Y-120431809D01*
X131327866Y-120533266D01*
X131226409Y-120616528D01*
X131190671Y-120645858D01*
X131190669Y-120645859D01*
X131034147Y-120729523D01*
X130977533Y-120746696D01*
X130864307Y-120781043D01*
X130798122Y-120787562D01*
X130731940Y-120794080D01*
X130643420Y-120794080D01*
X130577238Y-120787562D01*
X130511053Y-120781043D01*
X130397827Y-120746696D01*
X130341213Y-120729523D01*
X130184691Y-120645859D01*
X130184689Y-120645858D01*
X130148951Y-120616528D01*
X130047494Y-120533266D01*
X129964232Y-120431809D01*
X129934902Y-120396071D01*
X129925332Y-120378167D01*
X129851237Y-120239547D01*
X129834064Y-120182933D01*
X129799717Y-120069707D01*
X129782321Y-119893080D01*
X129799717Y-119716453D01*
X129851237Y-119546614D01*
X129851237Y-119546613D01*
X129934901Y-119390091D01*
X129934902Y-119390089D01*
X129964232Y-119354351D01*
X130047494Y-119252894D01*
X130148951Y-119169632D01*
X130184689Y-119140302D01*
X130202593Y-119130732D01*
X130341213Y-119056637D01*
X130397827Y-119039464D01*
X130511053Y-119005117D01*
X130577237Y-118998599D01*
X130643420Y-118992080D01*
X130731940Y-118992080D01*
X130798123Y-118998599D01*
X130798123Y-118998599D01*
G37*
G36*
X127756565Y-116680389D02*
X127947834Y-116759615D01*
X128119976Y-116874637D01*
X128266363Y-117021024D01*
X128381385Y-117193166D01*
X128460611Y-117384435D01*
X128501000Y-117587484D01*
X128501000Y-117794516D01*
X128460611Y-117997565D01*
X128381385Y-118188834D01*
X128266363Y-118360976D01*
X128119976Y-118507363D01*
X127947834Y-118622385D01*
X127756565Y-118701611D01*
X127553516Y-118742000D01*
X127346484Y-118742000D01*
X127143435Y-118701611D01*
X126952166Y-118622385D01*
X126780024Y-118507363D01*
X126633637Y-118360976D01*
X126518615Y-118188834D01*
X126439389Y-117997565D01*
X126399000Y-117794516D01*
X126399000Y-117587484D01*
X126439389Y-117384435D01*
X126518615Y-117193166D01*
X126633637Y-117021024D01*
X126780024Y-116874637D01*
X126952166Y-116759615D01*
X127143435Y-116680389D01*
X127346484Y-116640000D01*
X127553516Y-116640000D01*
X127756565Y-116680389D01*
X127756565Y-116680389D01*
G37*
G36*
X123256565Y-116680389D02*
X123447834Y-116759615D01*
X123619976Y-116874637D01*
X123766363Y-117021024D01*
X123881385Y-117193166D01*
X123960611Y-117384435D01*
X124001000Y-117587484D01*
X124001000Y-117794516D01*
X123960611Y-117997565D01*
X123881385Y-118188834D01*
X123766363Y-118360976D01*
X123619976Y-118507363D01*
X123447834Y-118622385D01*
X123256565Y-118701611D01*
X123053516Y-118742000D01*
X122846484Y-118742000D01*
X122643435Y-118701611D01*
X122452166Y-118622385D01*
X122280024Y-118507363D01*
X122133637Y-118360976D01*
X122018615Y-118188834D01*
X121939389Y-117997565D01*
X121899000Y-117794516D01*
X121899000Y-117587484D01*
X121939389Y-117384435D01*
X122018615Y-117193166D01*
X122133637Y-117021024D01*
X122280024Y-116874637D01*
X122452166Y-116759615D01*
X122643435Y-116680389D01*
X122846484Y-116640000D01*
X123053516Y-116640000D01*
X123256565Y-116680389D01*
X123256565Y-116680389D01*
G37*
G36*
X130798122Y-116458598D02*
X130864307Y-116465117D01*
X130977533Y-116499464D01*
X131034147Y-116516637D01*
X131172767Y-116590732D01*
X131190671Y-116600302D01*
X131226409Y-116629632D01*
X131327866Y-116712894D01*
X131411128Y-116814351D01*
X131440458Y-116850089D01*
X131440459Y-116850091D01*
X131524123Y-117006613D01*
X131524123Y-117006614D01*
X131575643Y-117176453D01*
X131593039Y-117353080D01*
X131575643Y-117529707D01*
X131558116Y-117587486D01*
X131524123Y-117699547D01*
X131473361Y-117794514D01*
X131440458Y-117856071D01*
X131411128Y-117891809D01*
X131327866Y-117993266D01*
X131226409Y-118076528D01*
X131190671Y-118105858D01*
X131190669Y-118105859D01*
X131034147Y-118189523D01*
X130977533Y-118206696D01*
X130864307Y-118241043D01*
X130798123Y-118247561D01*
X130731940Y-118254080D01*
X130643420Y-118254080D01*
X130577237Y-118247561D01*
X130511053Y-118241043D01*
X130397827Y-118206696D01*
X130341213Y-118189523D01*
X130184691Y-118105859D01*
X130184689Y-118105858D01*
X130148951Y-118076528D01*
X130047494Y-117993266D01*
X129964232Y-117891809D01*
X129934902Y-117856071D01*
X129901999Y-117794514D01*
X129851237Y-117699547D01*
X129817244Y-117587486D01*
X129799717Y-117529707D01*
X129782321Y-117353080D01*
X129799717Y-117176453D01*
X129851237Y-117006614D01*
X129851237Y-117006613D01*
X129934901Y-116850091D01*
X129934902Y-116850089D01*
X129964232Y-116814351D01*
X130047494Y-116712894D01*
X130148951Y-116629632D01*
X130184689Y-116600302D01*
X130202593Y-116590732D01*
X130341213Y-116516637D01*
X130397827Y-116499464D01*
X130511053Y-116465117D01*
X130577238Y-116458598D01*
X130643420Y-116452080D01*
X130731940Y-116452080D01*
X130798122Y-116458598D01*
X130798122Y-116458598D01*
G37*
G36*
X133338122Y-116458598D02*
X133404307Y-116465117D01*
X133517533Y-116499464D01*
X133574147Y-116516637D01*
X133712767Y-116590732D01*
X133730671Y-116600302D01*
X133766409Y-116629632D01*
X133867866Y-116712894D01*
X133951128Y-116814351D01*
X133980458Y-116850089D01*
X133980459Y-116850091D01*
X134064123Y-117006613D01*
X134064123Y-117006614D01*
X134115643Y-117176453D01*
X134133039Y-117353080D01*
X134115643Y-117529707D01*
X134098116Y-117587486D01*
X134064123Y-117699547D01*
X134013361Y-117794514D01*
X133980458Y-117856071D01*
X133951128Y-117891809D01*
X133867866Y-117993266D01*
X133766409Y-118076528D01*
X133730671Y-118105858D01*
X133730669Y-118105859D01*
X133574147Y-118189523D01*
X133517533Y-118206696D01*
X133404307Y-118241043D01*
X133338123Y-118247561D01*
X133271940Y-118254080D01*
X133183420Y-118254080D01*
X133117237Y-118247561D01*
X133051053Y-118241043D01*
X132937827Y-118206696D01*
X132881213Y-118189523D01*
X132724691Y-118105859D01*
X132724689Y-118105858D01*
X132688951Y-118076528D01*
X132587494Y-117993266D01*
X132504232Y-117891809D01*
X132474902Y-117856071D01*
X132441999Y-117794514D01*
X132391237Y-117699547D01*
X132357244Y-117587486D01*
X132339717Y-117529707D01*
X132322321Y-117353080D01*
X132339717Y-117176453D01*
X132391237Y-117006614D01*
X132391237Y-117006613D01*
X132474901Y-116850091D01*
X132474902Y-116850089D01*
X132504232Y-116814351D01*
X132587494Y-116712894D01*
X132688951Y-116629632D01*
X132724689Y-116600302D01*
X132742593Y-116590732D01*
X132881213Y-116516637D01*
X132937827Y-116499464D01*
X133051053Y-116465117D01*
X133117238Y-116458598D01*
X133183420Y-116452080D01*
X133271940Y-116452080D01*
X133338122Y-116458598D01*
X133338122Y-116458598D01*
G37*
G36*
X133338122Y-113918598D02*
X133404307Y-113925117D01*
X133517533Y-113959464D01*
X133574147Y-113976637D01*
X133712767Y-114050732D01*
X133730671Y-114060302D01*
X133766409Y-114089632D01*
X133867866Y-114172894D01*
X133951128Y-114274351D01*
X133980458Y-114310089D01*
X133980459Y-114310091D01*
X134064123Y-114466613D01*
X134064123Y-114466614D01*
X134115643Y-114636453D01*
X134133039Y-114813080D01*
X134115643Y-114989707D01*
X134081296Y-115102933D01*
X134064123Y-115159547D01*
X134030535Y-115222384D01*
X133980458Y-115316071D01*
X133959178Y-115342000D01*
X133867866Y-115453266D01*
X133766409Y-115536528D01*
X133730671Y-115565858D01*
X133730669Y-115565859D01*
X133574147Y-115649523D01*
X133517533Y-115666696D01*
X133404307Y-115701043D01*
X133338123Y-115707561D01*
X133271940Y-115714080D01*
X133183420Y-115714080D01*
X133117237Y-115707561D01*
X133051053Y-115701043D01*
X132937827Y-115666696D01*
X132881213Y-115649523D01*
X132724691Y-115565859D01*
X132724689Y-115565858D01*
X132688951Y-115536528D01*
X132587494Y-115453266D01*
X132496182Y-115342000D01*
X132474902Y-115316071D01*
X132424825Y-115222384D01*
X132391237Y-115159547D01*
X132374064Y-115102933D01*
X132339717Y-114989707D01*
X132322321Y-114813080D01*
X132339717Y-114636453D01*
X132391237Y-114466614D01*
X132391237Y-114466613D01*
X132474901Y-114310091D01*
X132474902Y-114310089D01*
X132504232Y-114274351D01*
X132587494Y-114172894D01*
X132688951Y-114089632D01*
X132724689Y-114060302D01*
X132742593Y-114050732D01*
X132881213Y-113976637D01*
X132937827Y-113959464D01*
X133051053Y-113925117D01*
X133117238Y-113918598D01*
X133183420Y-113912080D01*
X133271940Y-113912080D01*
X133338122Y-113918598D01*
X133338122Y-113918598D01*
G37*
G36*
X130798122Y-113918598D02*
X130864307Y-113925117D01*
X130977533Y-113959464D01*
X131034147Y-113976637D01*
X131172767Y-114050732D01*
X131190671Y-114060302D01*
X131226409Y-114089632D01*
X131327866Y-114172894D01*
X131411128Y-114274351D01*
X131440458Y-114310089D01*
X131440459Y-114310091D01*
X131524123Y-114466613D01*
X131524123Y-114466614D01*
X131575643Y-114636453D01*
X131593039Y-114813080D01*
X131575643Y-114989707D01*
X131541296Y-115102933D01*
X131524123Y-115159547D01*
X131490535Y-115222384D01*
X131440458Y-115316071D01*
X131419178Y-115342000D01*
X131327866Y-115453266D01*
X131226409Y-115536528D01*
X131190671Y-115565858D01*
X131190669Y-115565859D01*
X131034147Y-115649523D01*
X130977533Y-115666696D01*
X130864307Y-115701043D01*
X130798123Y-115707561D01*
X130731940Y-115714080D01*
X130643420Y-115714080D01*
X130577237Y-115707561D01*
X130511053Y-115701043D01*
X130397827Y-115666696D01*
X130341213Y-115649523D01*
X130184691Y-115565859D01*
X130184689Y-115565858D01*
X130148951Y-115536528D01*
X130047494Y-115453266D01*
X129956182Y-115342000D01*
X129934902Y-115316071D01*
X129884825Y-115222384D01*
X129851237Y-115159547D01*
X129834064Y-115102933D01*
X129799717Y-114989707D01*
X129782321Y-114813080D01*
X129799717Y-114636453D01*
X129851237Y-114466614D01*
X129851237Y-114466613D01*
X129934901Y-114310091D01*
X129934902Y-114310089D01*
X129964232Y-114274351D01*
X130047494Y-114172894D01*
X130148951Y-114089632D01*
X130184689Y-114060302D01*
X130202593Y-114050732D01*
X130341213Y-113976637D01*
X130397827Y-113959464D01*
X130511053Y-113925117D01*
X130577238Y-113918598D01*
X130643420Y-113912080D01*
X130731940Y-113912080D01*
X130798122Y-113918598D01*
X130798122Y-113918598D01*
G37*
G36*
X127756565Y-113280389D02*
X127947834Y-113359615D01*
X128119976Y-113474637D01*
X128266363Y-113621024D01*
X128381385Y-113793166D01*
X128460611Y-113984435D01*
X128501000Y-114187484D01*
X128501000Y-114394516D01*
X128460611Y-114597565D01*
X128381385Y-114788834D01*
X128266363Y-114960976D01*
X128119976Y-115107363D01*
X127947834Y-115222385D01*
X127756565Y-115301611D01*
X127553516Y-115342000D01*
X127346484Y-115342000D01*
X127143435Y-115301611D01*
X126952166Y-115222385D01*
X126780024Y-115107363D01*
X126633637Y-114960976D01*
X126518615Y-114788834D01*
X126439389Y-114597565D01*
X126399000Y-114394516D01*
X126399000Y-114187484D01*
X126439389Y-113984435D01*
X126518615Y-113793166D01*
X126633637Y-113621024D01*
X126780024Y-113474637D01*
X126952166Y-113359615D01*
X127143435Y-113280389D01*
X127346484Y-113240000D01*
X127553516Y-113240000D01*
X127756565Y-113280389D01*
X127756565Y-113280389D01*
G37*
G36*
X123256565Y-113280389D02*
X123447834Y-113359615D01*
X123619976Y-113474637D01*
X123766363Y-113621024D01*
X123881385Y-113793166D01*
X123960611Y-113984435D01*
X124001000Y-114187484D01*
X124001000Y-114394516D01*
X123960611Y-114597565D01*
X123881385Y-114788834D01*
X123766363Y-114960976D01*
X123619976Y-115107363D01*
X123447834Y-115222385D01*
X123256565Y-115301611D01*
X123053516Y-115342000D01*
X122846484Y-115342000D01*
X122643435Y-115301611D01*
X122452166Y-115222385D01*
X122280024Y-115107363D01*
X122133637Y-114960976D01*
X122018615Y-114788834D01*
X121939389Y-114597565D01*
X121899000Y-114394516D01*
X121899000Y-114187484D01*
X121939389Y-113984435D01*
X122018615Y-113793166D01*
X122133637Y-113621024D01*
X122280024Y-113474637D01*
X122452166Y-113359615D01*
X122643435Y-113280389D01*
X122846484Y-113240000D01*
X123053516Y-113240000D01*
X123256565Y-113280389D01*
X123256565Y-113280389D01*
G37*
G36*
X133338122Y-111378598D02*
X133404307Y-111385117D01*
X133517533Y-111419464D01*
X133574147Y-111436637D01*
X133712767Y-111510732D01*
X133730671Y-111520302D01*
X133766409Y-111549632D01*
X133867866Y-111632894D01*
X133951128Y-111734351D01*
X133980458Y-111770089D01*
X133980459Y-111770091D01*
X134064123Y-111926613D01*
X134064123Y-111926614D01*
X134115643Y-112096453D01*
X134133039Y-112273080D01*
X134115643Y-112449707D01*
X134081296Y-112562933D01*
X134064123Y-112619547D01*
X133990028Y-112758167D01*
X133980458Y-112776071D01*
X133951128Y-112811809D01*
X133867866Y-112913266D01*
X133766409Y-112996528D01*
X133730671Y-113025858D01*
X133730669Y-113025859D01*
X133574147Y-113109523D01*
X133517533Y-113126696D01*
X133404307Y-113161043D01*
X133338122Y-113167562D01*
X133271940Y-113174080D01*
X133183420Y-113174080D01*
X133117238Y-113167562D01*
X133051053Y-113161043D01*
X132937827Y-113126696D01*
X132881213Y-113109523D01*
X132724691Y-113025859D01*
X132724689Y-113025858D01*
X132688951Y-112996528D01*
X132587494Y-112913266D01*
X132504232Y-112811809D01*
X132474902Y-112776071D01*
X132465332Y-112758167D01*
X132391237Y-112619547D01*
X132374064Y-112562933D01*
X132339717Y-112449707D01*
X132322321Y-112273080D01*
X132339717Y-112096453D01*
X132391237Y-111926614D01*
X132391237Y-111926613D01*
X132474901Y-111770091D01*
X132474902Y-111770089D01*
X132504232Y-111734351D01*
X132587494Y-111632894D01*
X132688951Y-111549632D01*
X132724689Y-111520302D01*
X132742593Y-111510732D01*
X132881213Y-111436637D01*
X132937827Y-111419464D01*
X133051053Y-111385117D01*
X133117238Y-111378598D01*
X133183420Y-111372080D01*
X133271940Y-111372080D01*
X133338122Y-111378598D01*
X133338122Y-111378598D01*
G37*
G36*
X130798122Y-111378598D02*
X130864307Y-111385117D01*
X130977533Y-111419464D01*
X131034147Y-111436637D01*
X131172767Y-111510732D01*
X131190671Y-111520302D01*
X131226409Y-111549632D01*
X131327866Y-111632894D01*
X131411128Y-111734351D01*
X131440458Y-111770089D01*
X131440459Y-111770091D01*
X131524123Y-111926613D01*
X131524123Y-111926614D01*
X131575643Y-112096453D01*
X131593039Y-112273080D01*
X131575643Y-112449707D01*
X131541296Y-112562933D01*
X131524123Y-112619547D01*
X131450028Y-112758167D01*
X131440458Y-112776071D01*
X131411128Y-112811809D01*
X131327866Y-112913266D01*
X131226409Y-112996528D01*
X131190671Y-113025858D01*
X131190669Y-113025859D01*
X131034147Y-113109523D01*
X130977533Y-113126696D01*
X130864307Y-113161043D01*
X130798122Y-113167562D01*
X130731940Y-113174080D01*
X130643420Y-113174080D01*
X130577238Y-113167562D01*
X130511053Y-113161043D01*
X130397827Y-113126696D01*
X130341213Y-113109523D01*
X130184691Y-113025859D01*
X130184689Y-113025858D01*
X130148951Y-112996528D01*
X130047494Y-112913266D01*
X129964232Y-112811809D01*
X129934902Y-112776071D01*
X129925332Y-112758167D01*
X129851237Y-112619547D01*
X129834064Y-112562933D01*
X129799717Y-112449707D01*
X129782321Y-112273080D01*
X129799717Y-112096453D01*
X129851237Y-111926614D01*
X129851237Y-111926613D01*
X129934901Y-111770091D01*
X129934902Y-111770089D01*
X129964232Y-111734351D01*
X130047494Y-111632894D01*
X130148951Y-111549632D01*
X130184689Y-111520302D01*
X130202593Y-111510732D01*
X130341213Y-111436637D01*
X130397827Y-111419464D01*
X130511053Y-111385117D01*
X130577238Y-111378598D01*
X130643420Y-111372080D01*
X130731940Y-111372080D01*
X130798122Y-111378598D01*
X130798122Y-111378598D01*
G37*
G36*
X130798123Y-108838599D02*
X130864307Y-108845117D01*
X130977533Y-108879464D01*
X131034147Y-108896637D01*
X131172767Y-108970732D01*
X131190671Y-108980302D01*
X131226409Y-109009632D01*
X131327866Y-109092894D01*
X131411128Y-109194351D01*
X131440458Y-109230089D01*
X131440459Y-109230091D01*
X131524123Y-109386613D01*
X131524123Y-109386614D01*
X131575643Y-109556453D01*
X131593039Y-109733080D01*
X131575643Y-109909707D01*
X131541296Y-110022933D01*
X131524123Y-110079547D01*
X131450028Y-110218167D01*
X131440458Y-110236071D01*
X131411128Y-110271809D01*
X131327866Y-110373266D01*
X131226409Y-110456528D01*
X131190671Y-110485858D01*
X131190669Y-110485859D01*
X131034147Y-110569523D01*
X130977533Y-110586696D01*
X130864307Y-110621043D01*
X130798122Y-110627562D01*
X130731940Y-110634080D01*
X130643420Y-110634080D01*
X130577238Y-110627562D01*
X130511053Y-110621043D01*
X130397827Y-110586696D01*
X130341213Y-110569523D01*
X130184691Y-110485859D01*
X130184689Y-110485858D01*
X130148951Y-110456528D01*
X130047494Y-110373266D01*
X129964232Y-110271809D01*
X129934902Y-110236071D01*
X129925332Y-110218167D01*
X129851237Y-110079547D01*
X129834064Y-110022933D01*
X129799717Y-109909707D01*
X129782321Y-109733080D01*
X129799717Y-109556453D01*
X129851237Y-109386614D01*
X129851237Y-109386613D01*
X129934901Y-109230091D01*
X129934902Y-109230089D01*
X129964232Y-109194351D01*
X130047494Y-109092894D01*
X130148951Y-109009632D01*
X130184689Y-108980302D01*
X130202593Y-108970732D01*
X130341213Y-108896637D01*
X130397827Y-108879464D01*
X130511053Y-108845117D01*
X130577237Y-108838599D01*
X130643420Y-108832080D01*
X130731940Y-108832080D01*
X130798123Y-108838599D01*
X130798123Y-108838599D01*
G37*
G36*
X133338123Y-108838599D02*
X133404307Y-108845117D01*
X133517533Y-108879464D01*
X133574147Y-108896637D01*
X133712767Y-108970732D01*
X133730671Y-108980302D01*
X133766409Y-109009632D01*
X133867866Y-109092894D01*
X133951128Y-109194351D01*
X133980458Y-109230089D01*
X133980459Y-109230091D01*
X134064123Y-109386613D01*
X134064123Y-109386614D01*
X134115643Y-109556453D01*
X134133039Y-109733080D01*
X134115643Y-109909707D01*
X134081296Y-110022933D01*
X134064123Y-110079547D01*
X133990028Y-110218167D01*
X133980458Y-110236071D01*
X133951128Y-110271809D01*
X133867866Y-110373266D01*
X133766409Y-110456528D01*
X133730671Y-110485858D01*
X133730669Y-110485859D01*
X133574147Y-110569523D01*
X133517533Y-110586696D01*
X133404307Y-110621043D01*
X133338122Y-110627562D01*
X133271940Y-110634080D01*
X133183420Y-110634080D01*
X133117238Y-110627562D01*
X133051053Y-110621043D01*
X132937827Y-110586696D01*
X132881213Y-110569523D01*
X132724691Y-110485859D01*
X132724689Y-110485858D01*
X132688951Y-110456528D01*
X132587494Y-110373266D01*
X132504232Y-110271809D01*
X132474902Y-110236071D01*
X132465332Y-110218167D01*
X132391237Y-110079547D01*
X132374064Y-110022933D01*
X132339717Y-109909707D01*
X132322321Y-109733080D01*
X132339717Y-109556453D01*
X132391237Y-109386614D01*
X132391237Y-109386613D01*
X132474901Y-109230091D01*
X132474902Y-109230089D01*
X132504232Y-109194351D01*
X132587494Y-109092894D01*
X132688951Y-109009632D01*
X132724689Y-108980302D01*
X132742593Y-108970732D01*
X132881213Y-108896637D01*
X132937827Y-108879464D01*
X133051053Y-108845117D01*
X133117237Y-108838599D01*
X133183420Y-108832080D01*
X133271940Y-108832080D01*
X133338123Y-108838599D01*
X133338123Y-108838599D01*
G37*
G36*
X127756565Y-106780389D02*
X127947834Y-106859615D01*
X128119976Y-106974637D01*
X128266363Y-107121024D01*
X128381385Y-107293166D01*
X128460611Y-107484435D01*
X128501000Y-107687484D01*
X128501000Y-107894516D01*
X128460611Y-108097565D01*
X128381385Y-108288834D01*
X128266363Y-108460976D01*
X128119976Y-108607363D01*
X127947834Y-108722385D01*
X127756565Y-108801611D01*
X127553516Y-108842000D01*
X127346484Y-108842000D01*
X127143435Y-108801611D01*
X126952166Y-108722385D01*
X126780024Y-108607363D01*
X126633637Y-108460976D01*
X126518615Y-108288834D01*
X126439389Y-108097565D01*
X126399000Y-107894516D01*
X126399000Y-107687484D01*
X126439389Y-107484435D01*
X126518615Y-107293166D01*
X126633637Y-107121024D01*
X126780024Y-106974637D01*
X126952166Y-106859615D01*
X127143435Y-106780389D01*
X127346484Y-106740000D01*
X127553516Y-106740000D01*
X127756565Y-106780389D01*
X127756565Y-106780389D01*
G37*
G36*
X123256565Y-106780389D02*
X123447834Y-106859615D01*
X123619976Y-106974637D01*
X123766363Y-107121024D01*
X123881385Y-107293166D01*
X123960611Y-107484435D01*
X124001000Y-107687484D01*
X124001000Y-107894516D01*
X123960611Y-108097565D01*
X123881385Y-108288834D01*
X123766363Y-108460976D01*
X123619976Y-108607363D01*
X123447834Y-108722385D01*
X123256565Y-108801611D01*
X123053516Y-108842000D01*
X122846484Y-108842000D01*
X122643435Y-108801611D01*
X122452166Y-108722385D01*
X122280024Y-108607363D01*
X122133637Y-108460976D01*
X122018615Y-108288834D01*
X121939389Y-108097565D01*
X121899000Y-107894516D01*
X121899000Y-107687484D01*
X121939389Y-107484435D01*
X122018615Y-107293166D01*
X122133637Y-107121024D01*
X122280024Y-106974637D01*
X122452166Y-106859615D01*
X122643435Y-106780389D01*
X122846484Y-106740000D01*
X123053516Y-106740000D01*
X123256565Y-106780389D01*
X123256565Y-106780389D01*
G37*
G36*
X133338122Y-106298598D02*
X133404307Y-106305117D01*
X133517533Y-106339464D01*
X133574147Y-106356637D01*
X133712767Y-106430732D01*
X133730671Y-106440302D01*
X133766409Y-106469632D01*
X133867866Y-106552894D01*
X133951128Y-106654351D01*
X133980458Y-106690089D01*
X133980459Y-106690091D01*
X134064123Y-106846613D01*
X134064123Y-106846614D01*
X134115643Y-107016453D01*
X134133039Y-107193080D01*
X134115643Y-107369707D01*
X134081296Y-107482933D01*
X134064123Y-107539547D01*
X133990028Y-107678167D01*
X133980458Y-107696071D01*
X133951128Y-107731809D01*
X133867866Y-107833266D01*
X133766409Y-107916528D01*
X133730671Y-107945858D01*
X133730669Y-107945859D01*
X133574147Y-108029523D01*
X133517533Y-108046696D01*
X133404307Y-108081043D01*
X133338123Y-108087561D01*
X133271940Y-108094080D01*
X133183420Y-108094080D01*
X133117237Y-108087561D01*
X133051053Y-108081043D01*
X132937827Y-108046696D01*
X132881213Y-108029523D01*
X132724691Y-107945859D01*
X132724689Y-107945858D01*
X132688951Y-107916528D01*
X132587494Y-107833266D01*
X132504232Y-107731809D01*
X132474902Y-107696071D01*
X132465332Y-107678167D01*
X132391237Y-107539547D01*
X132374064Y-107482933D01*
X132339717Y-107369707D01*
X132322321Y-107193080D01*
X132339717Y-107016453D01*
X132391237Y-106846614D01*
X132391237Y-106846613D01*
X132474901Y-106690091D01*
X132474902Y-106690089D01*
X132504232Y-106654351D01*
X132587494Y-106552894D01*
X132688951Y-106469632D01*
X132724689Y-106440302D01*
X132742593Y-106430732D01*
X132881213Y-106356637D01*
X132937827Y-106339464D01*
X133051053Y-106305117D01*
X133117238Y-106298598D01*
X133183420Y-106292080D01*
X133271940Y-106292080D01*
X133338122Y-106298598D01*
X133338122Y-106298598D01*
G37*
G36*
X130798122Y-106298598D02*
X130864307Y-106305117D01*
X130977533Y-106339464D01*
X131034147Y-106356637D01*
X131172767Y-106430732D01*
X131190671Y-106440302D01*
X131226409Y-106469632D01*
X131327866Y-106552894D01*
X131411128Y-106654351D01*
X131440458Y-106690089D01*
X131440459Y-106690091D01*
X131524123Y-106846613D01*
X131524123Y-106846614D01*
X131575643Y-107016453D01*
X131593039Y-107193080D01*
X131575643Y-107369707D01*
X131541296Y-107482933D01*
X131524123Y-107539547D01*
X131450028Y-107678167D01*
X131440458Y-107696071D01*
X131411128Y-107731809D01*
X131327866Y-107833266D01*
X131226409Y-107916528D01*
X131190671Y-107945858D01*
X131190669Y-107945859D01*
X131034147Y-108029523D01*
X130977533Y-108046696D01*
X130864307Y-108081043D01*
X130798123Y-108087561D01*
X130731940Y-108094080D01*
X130643420Y-108094080D01*
X130577237Y-108087561D01*
X130511053Y-108081043D01*
X130397827Y-108046696D01*
X130341213Y-108029523D01*
X130184691Y-107945859D01*
X130184689Y-107945858D01*
X130148951Y-107916528D01*
X130047494Y-107833266D01*
X129964232Y-107731809D01*
X129934902Y-107696071D01*
X129925332Y-107678167D01*
X129851237Y-107539547D01*
X129834064Y-107482933D01*
X129799717Y-107369707D01*
X129782321Y-107193080D01*
X129799717Y-107016453D01*
X129851237Y-106846614D01*
X129851237Y-106846613D01*
X129934901Y-106690091D01*
X129934902Y-106690089D01*
X129964232Y-106654351D01*
X130047494Y-106552894D01*
X130148951Y-106469632D01*
X130184689Y-106440302D01*
X130202593Y-106430732D01*
X130341213Y-106356637D01*
X130397827Y-106339464D01*
X130511053Y-106305117D01*
X130577238Y-106298598D01*
X130643420Y-106292080D01*
X130731940Y-106292080D01*
X130798122Y-106298598D01*
X130798122Y-106298598D01*
G37*
G36*
X108830442Y-103918375D02*
X108896627Y-103924894D01*
X109009853Y-103959241D01*
X109066467Y-103976414D01*
X109134715Y-104012894D01*
X109222991Y-104060079D01*
X109258729Y-104089409D01*
X109360186Y-104172671D01*
X109443448Y-104274128D01*
X109472778Y-104309866D01*
X109472779Y-104309868D01*
X109556443Y-104466390D01*
X109559496Y-104476455D01*
X109607963Y-104636230D01*
X109625359Y-104812857D01*
X109607963Y-104989484D01*
X109604910Y-104999547D01*
X109556443Y-105159324D01*
X109484849Y-105293265D01*
X109472778Y-105315848D01*
X109443448Y-105351586D01*
X109360186Y-105453043D01*
X109258729Y-105536305D01*
X109222991Y-105565635D01*
X109222989Y-105565636D01*
X109066467Y-105649300D01*
X109009853Y-105666473D01*
X108896627Y-105700820D01*
X108830442Y-105707339D01*
X108764260Y-105713857D01*
X108675740Y-105713857D01*
X108609557Y-105707338D01*
X108543373Y-105700820D01*
X108430147Y-105666473D01*
X108373533Y-105649300D01*
X108217011Y-105565636D01*
X108217009Y-105565635D01*
X108181271Y-105536305D01*
X108079814Y-105453043D01*
X107996552Y-105351586D01*
X107967222Y-105315848D01*
X107955151Y-105293265D01*
X107883557Y-105159324D01*
X107835090Y-104999547D01*
X107832037Y-104989484D01*
X107814641Y-104812857D01*
X107832037Y-104636230D01*
X107880504Y-104476455D01*
X107883557Y-104466390D01*
X107967221Y-104309868D01*
X107967222Y-104309866D01*
X107996552Y-104274128D01*
X108079814Y-104172671D01*
X108181271Y-104089409D01*
X108217009Y-104060079D01*
X108305285Y-104012894D01*
X108373533Y-103976414D01*
X108430147Y-103959241D01*
X108543373Y-103924894D01*
X108609558Y-103918375D01*
X108675740Y-103911857D01*
X108764260Y-103911857D01*
X108830442Y-103918375D01*
X108830442Y-103918375D01*
G37*
G36*
X111370442Y-103918375D02*
X111436627Y-103924894D01*
X111549853Y-103959241D01*
X111606467Y-103976414D01*
X111674715Y-104012894D01*
X111762991Y-104060079D01*
X111798729Y-104089409D01*
X111900186Y-104172671D01*
X111983448Y-104274128D01*
X112012778Y-104309866D01*
X112012779Y-104309868D01*
X112096443Y-104466390D01*
X112099496Y-104476455D01*
X112147963Y-104636230D01*
X112165359Y-104812857D01*
X112147963Y-104989484D01*
X112144910Y-104999547D01*
X112096443Y-105159324D01*
X112024849Y-105293265D01*
X112012778Y-105315848D01*
X111983448Y-105351586D01*
X111900186Y-105453043D01*
X111798729Y-105536305D01*
X111762991Y-105565635D01*
X111762989Y-105565636D01*
X111606467Y-105649300D01*
X111549853Y-105666473D01*
X111436627Y-105700820D01*
X111370442Y-105707339D01*
X111304260Y-105713857D01*
X111215740Y-105713857D01*
X111149557Y-105707338D01*
X111083373Y-105700820D01*
X110970147Y-105666473D01*
X110913533Y-105649300D01*
X110757011Y-105565636D01*
X110757009Y-105565635D01*
X110721271Y-105536305D01*
X110619814Y-105453043D01*
X110536552Y-105351586D01*
X110507222Y-105315848D01*
X110495151Y-105293265D01*
X110423557Y-105159324D01*
X110375090Y-104999547D01*
X110372037Y-104989484D01*
X110354641Y-104812857D01*
X110372037Y-104636230D01*
X110420504Y-104476455D01*
X110423557Y-104466390D01*
X110507221Y-104309868D01*
X110507222Y-104309866D01*
X110536552Y-104274128D01*
X110619814Y-104172671D01*
X110721271Y-104089409D01*
X110757009Y-104060079D01*
X110845285Y-104012894D01*
X110913533Y-103976414D01*
X110970147Y-103959241D01*
X111083373Y-103924894D01*
X111149558Y-103918375D01*
X111215740Y-103911857D01*
X111304260Y-103911857D01*
X111370442Y-103918375D01*
X111370442Y-103918375D01*
G37*
G36*
X106290442Y-103918375D02*
X106356627Y-103924894D01*
X106469853Y-103959241D01*
X106526467Y-103976414D01*
X106594715Y-104012894D01*
X106682991Y-104060079D01*
X106718729Y-104089409D01*
X106820186Y-104172671D01*
X106903448Y-104274128D01*
X106932778Y-104309866D01*
X106932779Y-104309868D01*
X107016443Y-104466390D01*
X107019496Y-104476455D01*
X107067963Y-104636230D01*
X107085359Y-104812857D01*
X107067963Y-104989484D01*
X107064910Y-104999547D01*
X107016443Y-105159324D01*
X106944849Y-105293265D01*
X106932778Y-105315848D01*
X106903448Y-105351586D01*
X106820186Y-105453043D01*
X106718729Y-105536305D01*
X106682991Y-105565635D01*
X106682989Y-105565636D01*
X106526467Y-105649300D01*
X106469853Y-105666473D01*
X106356627Y-105700820D01*
X106290442Y-105707339D01*
X106224260Y-105713857D01*
X106135740Y-105713857D01*
X106069557Y-105707338D01*
X106003373Y-105700820D01*
X105890147Y-105666473D01*
X105833533Y-105649300D01*
X105677011Y-105565636D01*
X105677009Y-105565635D01*
X105641271Y-105536305D01*
X105539814Y-105453043D01*
X105456552Y-105351586D01*
X105427222Y-105315848D01*
X105415151Y-105293265D01*
X105343557Y-105159324D01*
X105295090Y-104999547D01*
X105292037Y-104989484D01*
X105274641Y-104812857D01*
X105292037Y-104636230D01*
X105340504Y-104476455D01*
X105343557Y-104466390D01*
X105427221Y-104309868D01*
X105427222Y-104309866D01*
X105456552Y-104274128D01*
X105539814Y-104172671D01*
X105641271Y-104089409D01*
X105677009Y-104060079D01*
X105765285Y-104012894D01*
X105833533Y-103976414D01*
X105890147Y-103959241D01*
X106003373Y-103924894D01*
X106069558Y-103918375D01*
X106135740Y-103911857D01*
X106224260Y-103911857D01*
X106290442Y-103918375D01*
X106290442Y-103918375D01*
G37*
G36*
X104541000Y-105713857D02*
X102739000Y-105713857D01*
X102739000Y-103911857D01*
X104541000Y-103911857D01*
X104541000Y-105713857D01*
X104541000Y-105713857D01*
G37*
G36*
X130798123Y-103758599D02*
X130864307Y-103765117D01*
X130977533Y-103799464D01*
X131034147Y-103816637D01*
X131172767Y-103890732D01*
X131190671Y-103900302D01*
X131220636Y-103924894D01*
X131327866Y-104012894D01*
X131411128Y-104114351D01*
X131440458Y-104150089D01*
X131440459Y-104150091D01*
X131524123Y-104306613D01*
X131525110Y-104309868D01*
X131575643Y-104476453D01*
X131593039Y-104653080D01*
X131575643Y-104829707D01*
X131541296Y-104942933D01*
X131524123Y-104999547D01*
X131450028Y-105138167D01*
X131440458Y-105156071D01*
X131437789Y-105159323D01*
X131327866Y-105293266D01*
X131226409Y-105376528D01*
X131190671Y-105405858D01*
X131190669Y-105405859D01*
X131034147Y-105489523D01*
X130977533Y-105506696D01*
X130864307Y-105541043D01*
X130798123Y-105547561D01*
X130731940Y-105554080D01*
X130643420Y-105554080D01*
X130577237Y-105547561D01*
X130511053Y-105541043D01*
X130397827Y-105506696D01*
X130341213Y-105489523D01*
X130184691Y-105405859D01*
X130184689Y-105405858D01*
X130148951Y-105376528D01*
X130047494Y-105293266D01*
X129937571Y-105159323D01*
X129934902Y-105156071D01*
X129925332Y-105138167D01*
X129851237Y-104999547D01*
X129834064Y-104942933D01*
X129799717Y-104829707D01*
X129782321Y-104653080D01*
X129799717Y-104476453D01*
X129850250Y-104309868D01*
X129851237Y-104306613D01*
X129934901Y-104150091D01*
X129934902Y-104150089D01*
X129964232Y-104114351D01*
X130047494Y-104012894D01*
X130154724Y-103924894D01*
X130184689Y-103900302D01*
X130202593Y-103890732D01*
X130341213Y-103816637D01*
X130397827Y-103799464D01*
X130511053Y-103765117D01*
X130577238Y-103758598D01*
X130643420Y-103752080D01*
X130731940Y-103752080D01*
X130798123Y-103758599D01*
X130798123Y-103758599D01*
G37*
G36*
X133338123Y-103758599D02*
X133404307Y-103765117D01*
X133517533Y-103799464D01*
X133574147Y-103816637D01*
X133712767Y-103890732D01*
X133730671Y-103900302D01*
X133760636Y-103924894D01*
X133867866Y-104012894D01*
X133951128Y-104114351D01*
X133980458Y-104150089D01*
X133980459Y-104150091D01*
X134064123Y-104306613D01*
X134065110Y-104309868D01*
X134115643Y-104476453D01*
X134133039Y-104653080D01*
X134115643Y-104829707D01*
X134081296Y-104942933D01*
X134064123Y-104999547D01*
X133990028Y-105138167D01*
X133980458Y-105156071D01*
X133977789Y-105159323D01*
X133867866Y-105293266D01*
X133766409Y-105376528D01*
X133730671Y-105405858D01*
X133730669Y-105405859D01*
X133574147Y-105489523D01*
X133517533Y-105506696D01*
X133404307Y-105541043D01*
X133338123Y-105547561D01*
X133271940Y-105554080D01*
X133183420Y-105554080D01*
X133117237Y-105547561D01*
X133051053Y-105541043D01*
X132937827Y-105506696D01*
X132881213Y-105489523D01*
X132724691Y-105405859D01*
X132724689Y-105405858D01*
X132688951Y-105376528D01*
X132587494Y-105293266D01*
X132477571Y-105159323D01*
X132474902Y-105156071D01*
X132465332Y-105138167D01*
X132391237Y-104999547D01*
X132374064Y-104942933D01*
X132339717Y-104829707D01*
X132322321Y-104653080D01*
X132339717Y-104476453D01*
X132390250Y-104309868D01*
X132391237Y-104306613D01*
X132474901Y-104150091D01*
X132474902Y-104150089D01*
X132504232Y-104114351D01*
X132587494Y-104012894D01*
X132694724Y-103924894D01*
X132724689Y-103900302D01*
X132742593Y-103890732D01*
X132881213Y-103816637D01*
X132937827Y-103799464D01*
X133051053Y-103765117D01*
X133117238Y-103758598D01*
X133183420Y-103752080D01*
X133271940Y-103752080D01*
X133338123Y-103758599D01*
X133338123Y-103758599D01*
G37*
G36*
X130798123Y-101218599D02*
X130864307Y-101225117D01*
X130977533Y-101259464D01*
X131034147Y-101276637D01*
X131172767Y-101350732D01*
X131190671Y-101360302D01*
X131226409Y-101389632D01*
X131327866Y-101472894D01*
X131411128Y-101574351D01*
X131440458Y-101610089D01*
X131440459Y-101610091D01*
X131524123Y-101766613D01*
X131524123Y-101766614D01*
X131575643Y-101936453D01*
X131593039Y-102113080D01*
X131575643Y-102289707D01*
X131541296Y-102402933D01*
X131524123Y-102459547D01*
X131450028Y-102598167D01*
X131440458Y-102616071D01*
X131411128Y-102651809D01*
X131327866Y-102753266D01*
X131226409Y-102836528D01*
X131190671Y-102865858D01*
X131190669Y-102865859D01*
X131034147Y-102949523D01*
X130977533Y-102966696D01*
X130864307Y-103001043D01*
X130798122Y-103007562D01*
X130731940Y-103014080D01*
X130643420Y-103014080D01*
X130577238Y-103007562D01*
X130511053Y-103001043D01*
X130397827Y-102966696D01*
X130341213Y-102949523D01*
X130184691Y-102865859D01*
X130184689Y-102865858D01*
X130148951Y-102836528D01*
X130047494Y-102753266D01*
X129964232Y-102651809D01*
X129934902Y-102616071D01*
X129925332Y-102598167D01*
X129851237Y-102459547D01*
X129834064Y-102402933D01*
X129799717Y-102289707D01*
X129782321Y-102113080D01*
X129799717Y-101936453D01*
X129851237Y-101766614D01*
X129851237Y-101766613D01*
X129934901Y-101610091D01*
X129934902Y-101610089D01*
X129964232Y-101574351D01*
X130047494Y-101472894D01*
X130148951Y-101389632D01*
X130184689Y-101360302D01*
X130202593Y-101350732D01*
X130341213Y-101276637D01*
X130397827Y-101259464D01*
X130511053Y-101225117D01*
X130577237Y-101218599D01*
X130643420Y-101212080D01*
X130731940Y-101212080D01*
X130798123Y-101218599D01*
X130798123Y-101218599D01*
G37*
G36*
X133338123Y-101218599D02*
X133404307Y-101225117D01*
X133517533Y-101259464D01*
X133574147Y-101276637D01*
X133712767Y-101350732D01*
X133730671Y-101360302D01*
X133766409Y-101389632D01*
X133867866Y-101472894D01*
X133951128Y-101574351D01*
X133980458Y-101610089D01*
X133980459Y-101610091D01*
X134064123Y-101766613D01*
X134064123Y-101766614D01*
X134115643Y-101936453D01*
X134133039Y-102113080D01*
X134115643Y-102289707D01*
X134081296Y-102402933D01*
X134064123Y-102459547D01*
X133990028Y-102598167D01*
X133980458Y-102616071D01*
X133951128Y-102651809D01*
X133867866Y-102753266D01*
X133766409Y-102836528D01*
X133730671Y-102865858D01*
X133730669Y-102865859D01*
X133574147Y-102949523D01*
X133517533Y-102966696D01*
X133404307Y-103001043D01*
X133338122Y-103007562D01*
X133271940Y-103014080D01*
X133183420Y-103014080D01*
X133117238Y-103007562D01*
X133051053Y-103001043D01*
X132937827Y-102966696D01*
X132881213Y-102949523D01*
X132724691Y-102865859D01*
X132724689Y-102865858D01*
X132688951Y-102836528D01*
X132587494Y-102753266D01*
X132504232Y-102651809D01*
X132474902Y-102616071D01*
X132465332Y-102598167D01*
X132391237Y-102459547D01*
X132374064Y-102402933D01*
X132339717Y-102289707D01*
X132322321Y-102113080D01*
X132339717Y-101936453D01*
X132391237Y-101766614D01*
X132391237Y-101766613D01*
X132474901Y-101610091D01*
X132474902Y-101610089D01*
X132504232Y-101574351D01*
X132587494Y-101472894D01*
X132688951Y-101389632D01*
X132724689Y-101360302D01*
X132742593Y-101350732D01*
X132881213Y-101276637D01*
X132937827Y-101259464D01*
X133051053Y-101225117D01*
X133117237Y-101218599D01*
X133183420Y-101212080D01*
X133271940Y-101212080D01*
X133338123Y-101218599D01*
X133338123Y-101218599D01*
G37*
G36*
X131588680Y-100474080D02*
X129786680Y-100474080D01*
X129786680Y-98672080D01*
X131588680Y-98672080D01*
X131588680Y-100474080D01*
X131588680Y-100474080D01*
G37*
G36*
X133338122Y-98678598D02*
X133404307Y-98685117D01*
X133503392Y-98715174D01*
X133574147Y-98736637D01*
X133679372Y-98792882D01*
X133730671Y-98820302D01*
X133766409Y-98849632D01*
X133867866Y-98932894D01*
X133951128Y-99034351D01*
X133980458Y-99070089D01*
X133980459Y-99070091D01*
X134064123Y-99226613D01*
X134064123Y-99226614D01*
X134115643Y-99396453D01*
X134133039Y-99573080D01*
X134115643Y-99749707D01*
X134081296Y-99862933D01*
X134064123Y-99919547D01*
X134041534Y-99961807D01*
X133980458Y-100076071D01*
X133951128Y-100111809D01*
X133867866Y-100213266D01*
X133766409Y-100296528D01*
X133730671Y-100325858D01*
X133730669Y-100325859D01*
X133574147Y-100409523D01*
X133517533Y-100426696D01*
X133404307Y-100461043D01*
X133338123Y-100467561D01*
X133271940Y-100474080D01*
X133183420Y-100474080D01*
X133117237Y-100467561D01*
X133051053Y-100461043D01*
X132937827Y-100426696D01*
X132881213Y-100409523D01*
X132724691Y-100325859D01*
X132724689Y-100325858D01*
X132688951Y-100296528D01*
X132587494Y-100213266D01*
X132504232Y-100111809D01*
X132474902Y-100076071D01*
X132413826Y-99961807D01*
X132391237Y-99919547D01*
X132374064Y-99862933D01*
X132339717Y-99749707D01*
X132322321Y-99573080D01*
X132339717Y-99396453D01*
X132391237Y-99226614D01*
X132391237Y-99226613D01*
X132474901Y-99070091D01*
X132474902Y-99070089D01*
X132504232Y-99034351D01*
X132587494Y-98932894D01*
X132688951Y-98849632D01*
X132724689Y-98820302D01*
X132775988Y-98792882D01*
X132881213Y-98736637D01*
X132951968Y-98715174D01*
X133051053Y-98685117D01*
X133117237Y-98678599D01*
X133183420Y-98672080D01*
X133271940Y-98672080D01*
X133338122Y-98678598D01*
X133338122Y-98678598D01*
G37*
G36*
X98719427Y-97677597D02*
X98833027Y-97700193D01*
X99047045Y-97788842D01*
X99238358Y-97916674D01*
X99239659Y-97917543D01*
X99403457Y-98081341D01*
X99403459Y-98081344D01*
X99532158Y-98273955D01*
X99620807Y-98487973D01*
X99666000Y-98715174D01*
X99666000Y-98946826D01*
X99620807Y-99174027D01*
X99532158Y-99388045D01*
X99408521Y-99573080D01*
X99403457Y-99580659D01*
X99239659Y-99744457D01*
X99239656Y-99744459D01*
X99047045Y-99873158D01*
X98833027Y-99961807D01*
X98719426Y-99984404D01*
X98605827Y-100007000D01*
X98374173Y-100007000D01*
X98260574Y-99984404D01*
X98146973Y-99961807D01*
X97932955Y-99873158D01*
X97740344Y-99744459D01*
X97740341Y-99744457D01*
X97576543Y-99580659D01*
X97571479Y-99573080D01*
X97447842Y-99388045D01*
X97359193Y-99174027D01*
X97314000Y-98946826D01*
X97314000Y-98715174D01*
X97359193Y-98487973D01*
X97447842Y-98273955D01*
X97576541Y-98081344D01*
X97576543Y-98081341D01*
X97740341Y-97917543D01*
X97741642Y-97916674D01*
X97932955Y-97788842D01*
X98146973Y-97700193D01*
X98260574Y-97677596D01*
X98374173Y-97655000D01*
X98605827Y-97655000D01*
X98719427Y-97677597D01*
X98719427Y-97677597D01*
G37*
G36*
X93639427Y-97677597D02*
X93753027Y-97700193D01*
X93967045Y-97788842D01*
X94158358Y-97916674D01*
X94159659Y-97917543D01*
X94323457Y-98081341D01*
X94323459Y-98081344D01*
X94452158Y-98273955D01*
X94540807Y-98487973D01*
X94586000Y-98715174D01*
X94586000Y-98946826D01*
X94540807Y-99174027D01*
X94452158Y-99388045D01*
X94328521Y-99573080D01*
X94323457Y-99580659D01*
X94159659Y-99744457D01*
X94159656Y-99744459D01*
X93967045Y-99873158D01*
X93753027Y-99961807D01*
X93639426Y-99984404D01*
X93525827Y-100007000D01*
X93294173Y-100007000D01*
X93180574Y-99984404D01*
X93066973Y-99961807D01*
X92852955Y-99873158D01*
X92660344Y-99744459D01*
X92660341Y-99744457D01*
X92496543Y-99580659D01*
X92491479Y-99573080D01*
X92367842Y-99388045D01*
X92279193Y-99174027D01*
X92234000Y-98946826D01*
X92234000Y-98715174D01*
X92279193Y-98487973D01*
X92367842Y-98273955D01*
X92496541Y-98081344D01*
X92496543Y-98081341D01*
X92660341Y-97917543D01*
X92661642Y-97916674D01*
X92852955Y-97788842D01*
X93066973Y-97700193D01*
X93180574Y-97677596D01*
X93294173Y-97655000D01*
X93525827Y-97655000D01*
X93639427Y-97677597D01*
X93639427Y-97677597D01*
G37*
G36*
X119650669Y-98792882D02*
X118048669Y-98792882D01*
X118048669Y-95090882D01*
X119650669Y-95090882D01*
X119650669Y-98792882D01*
X119650669Y-98792882D01*
G37*
G36*
X122400669Y-98792882D02*
X120798669Y-98792882D01*
X120798669Y-95090882D01*
X122400669Y-95090882D01*
X122400669Y-98792882D01*
X122400669Y-98792882D01*
G37*
G36*
X96107947Y-95225338D02*
X96263858Y-95256350D01*
X96459677Y-95337461D01*
X96509306Y-95370622D01*
X96635913Y-95455218D01*
X96785782Y-95605087D01*
X96785784Y-95605090D01*
X96903539Y-95781323D01*
X96984650Y-95977142D01*
X97026000Y-96185023D01*
X97026000Y-96396977D01*
X96984650Y-96604858D01*
X96903539Y-96800677D01*
X96903538Y-96800678D01*
X96785782Y-96976913D01*
X96635913Y-97126782D01*
X96635910Y-97126784D01*
X96459677Y-97244539D01*
X96263858Y-97325650D01*
X96107947Y-97356662D01*
X96055978Y-97367000D01*
X95844022Y-97367000D01*
X95792053Y-97356662D01*
X95636142Y-97325650D01*
X95440323Y-97244539D01*
X95264090Y-97126784D01*
X95264087Y-97126782D01*
X95114218Y-96976913D01*
X94996462Y-96800678D01*
X94996461Y-96800677D01*
X94915350Y-96604858D01*
X94874000Y-96396977D01*
X94874000Y-96185023D01*
X94915350Y-95977142D01*
X94996461Y-95781323D01*
X95114216Y-95605090D01*
X95114218Y-95605087D01*
X95264087Y-95455218D01*
X95390694Y-95370622D01*
X95440323Y-95337461D01*
X95636142Y-95256350D01*
X95792053Y-95225338D01*
X95844022Y-95215000D01*
X96055978Y-95215000D01*
X96107947Y-95225338D01*
X96107947Y-95225338D01*
G37*
G36*
X83258109Y-93339839D02*
X83358657Y-93359839D01*
X83464267Y-93403585D01*
X83613621Y-93465449D01*
X83843089Y-93618774D01*
X84038226Y-93813911D01*
X84191551Y-94043379D01*
X84212530Y-94094027D01*
X84297161Y-94298343D01*
X84299091Y-94308045D01*
X84351000Y-94569012D01*
X84351000Y-94844988D01*
X84297161Y-95115656D01*
X84191551Y-95370621D01*
X84038226Y-95600089D01*
X83843089Y-95795226D01*
X83613621Y-95948551D01*
X83464267Y-96010415D01*
X83358657Y-96054161D01*
X83268433Y-96072107D01*
X83087988Y-96108000D01*
X82812012Y-96108000D01*
X82631567Y-96072107D01*
X82541343Y-96054161D01*
X82435733Y-96010415D01*
X82286379Y-95948551D01*
X82056911Y-95795226D01*
X81861774Y-95600089D01*
X81708449Y-95370621D01*
X81602839Y-95115656D01*
X81549000Y-94844988D01*
X81549000Y-94569012D01*
X81600909Y-94308045D01*
X81602839Y-94298343D01*
X81687470Y-94094027D01*
X81708449Y-94043379D01*
X81861774Y-93813911D01*
X82056911Y-93618774D01*
X82286379Y-93465449D01*
X82435733Y-93403585D01*
X82541343Y-93359839D01*
X82641891Y-93339839D01*
X82812012Y-93306000D01*
X83087988Y-93306000D01*
X83258109Y-93339839D01*
X83258109Y-93339839D01*
G37*
G36*
X132258109Y-93339839D02*
X132358657Y-93359839D01*
X132464267Y-93403585D01*
X132613621Y-93465449D01*
X132843089Y-93618774D01*
X133038226Y-93813911D01*
X133191551Y-94043379D01*
X133212530Y-94094027D01*
X133297161Y-94298343D01*
X133299091Y-94308045D01*
X133351000Y-94569012D01*
X133351000Y-94844988D01*
X133297161Y-95115656D01*
X133191551Y-95370621D01*
X133038226Y-95600089D01*
X132843089Y-95795226D01*
X132613621Y-95948551D01*
X132464267Y-96010415D01*
X132358657Y-96054161D01*
X132268433Y-96072107D01*
X132087988Y-96108000D01*
X131812012Y-96108000D01*
X131631567Y-96072107D01*
X131541343Y-96054161D01*
X131435733Y-96010415D01*
X131286379Y-95948551D01*
X131056911Y-95795226D01*
X130861774Y-95600089D01*
X130708449Y-95370621D01*
X130602839Y-95115656D01*
X130549000Y-94844988D01*
X130549000Y-94569012D01*
X130600909Y-94308045D01*
X130602839Y-94298343D01*
X130687470Y-94094027D01*
X130708449Y-94043379D01*
X130861774Y-93813911D01*
X131056911Y-93618774D01*
X131286379Y-93465449D01*
X131435733Y-93403585D01*
X131541343Y-93359839D01*
X131641891Y-93339839D01*
X131812012Y-93306000D01*
X132087988Y-93306000D01*
X132258109Y-93339839D01*
X132258109Y-93339839D01*
G37*
G36*
X109278433Y-93321893D02*
X109368657Y-93339839D01*
X109474267Y-93383585D01*
X109623621Y-93445449D01*
X109853089Y-93598774D01*
X110048226Y-93793911D01*
X110201551Y-94023379D01*
X110307161Y-94278344D01*
X110361000Y-94549012D01*
X110361000Y-94824988D01*
X110325107Y-95005433D01*
X110307161Y-95095657D01*
X110263415Y-95201267D01*
X110201551Y-95350621D01*
X110048226Y-95580089D01*
X109853089Y-95775226D01*
X109623621Y-95928551D01*
X109474267Y-95990415D01*
X109368657Y-96034161D01*
X109278433Y-96052107D01*
X109097988Y-96088000D01*
X108822012Y-96088000D01*
X108641567Y-96052107D01*
X108551343Y-96034161D01*
X108445733Y-95990415D01*
X108296379Y-95928551D01*
X108066911Y-95775226D01*
X107871774Y-95580089D01*
X107718449Y-95350621D01*
X107656585Y-95201267D01*
X107612839Y-95095657D01*
X107594893Y-95005433D01*
X107559000Y-94824988D01*
X107559000Y-94549012D01*
X107612839Y-94278344D01*
X107718449Y-94023379D01*
X107871774Y-93793911D01*
X108066911Y-93598774D01*
X108296379Y-93445449D01*
X108445733Y-93383585D01*
X108551343Y-93339839D01*
X108641567Y-93321893D01*
X108822012Y-93286000D01*
X109097988Y-93286000D01*
X109278433Y-93321893D01*
X109278433Y-93321893D01*
G37*
G36*
X98719426Y-92597596D02*
X98833027Y-92620193D01*
X99047045Y-92708842D01*
X99238358Y-92836674D01*
X99239659Y-92837543D01*
X99403457Y-93001341D01*
X99403459Y-93001344D01*
X99532158Y-93193955D01*
X99620807Y-93407973D01*
X99632240Y-93465449D01*
X99662738Y-93618772D01*
X99666000Y-93635174D01*
X99666000Y-93866826D01*
X99620807Y-94094027D01*
X99532158Y-94308045D01*
X99404326Y-94499358D01*
X99403457Y-94500659D01*
X99239659Y-94664457D01*
X99239656Y-94664459D01*
X99047045Y-94793158D01*
X98833027Y-94881807D01*
X98719426Y-94904404D01*
X98605827Y-94927000D01*
X98374173Y-94927000D01*
X98260574Y-94904404D01*
X98146973Y-94881807D01*
X97932955Y-94793158D01*
X97740344Y-94664459D01*
X97740341Y-94664457D01*
X97576543Y-94500659D01*
X97575674Y-94499358D01*
X97447842Y-94308045D01*
X97359193Y-94094027D01*
X97314000Y-93866826D01*
X97314000Y-93635174D01*
X97317263Y-93618772D01*
X97347760Y-93465449D01*
X97359193Y-93407973D01*
X97447842Y-93193955D01*
X97576541Y-93001344D01*
X97576543Y-93001341D01*
X97740341Y-92837543D01*
X97741642Y-92836674D01*
X97932955Y-92708842D01*
X98146973Y-92620193D01*
X98260574Y-92597596D01*
X98374173Y-92575000D01*
X98605827Y-92575000D01*
X98719426Y-92597596D01*
X98719426Y-92597596D01*
G37*
G36*
X93639426Y-92597596D02*
X93753027Y-92620193D01*
X93967045Y-92708842D01*
X94158358Y-92836674D01*
X94159659Y-92837543D01*
X94323457Y-93001341D01*
X94323459Y-93001344D01*
X94452158Y-93193955D01*
X94540807Y-93407973D01*
X94552240Y-93465449D01*
X94582738Y-93618772D01*
X94586000Y-93635174D01*
X94586000Y-93866826D01*
X94540807Y-94094027D01*
X94452158Y-94308045D01*
X94324326Y-94499358D01*
X94323457Y-94500659D01*
X94159659Y-94664457D01*
X94159656Y-94664459D01*
X93967045Y-94793158D01*
X93753027Y-94881807D01*
X93639426Y-94904404D01*
X93525827Y-94927000D01*
X93294173Y-94927000D01*
X93180574Y-94904404D01*
X93066973Y-94881807D01*
X92852955Y-94793158D01*
X92660344Y-94664459D01*
X92660341Y-94664457D01*
X92496543Y-94500659D01*
X92495674Y-94499358D01*
X92367842Y-94308045D01*
X92279193Y-94094027D01*
X92234000Y-93866826D01*
X92234000Y-93635174D01*
X92237263Y-93618772D01*
X92267760Y-93465449D01*
X92279193Y-93407973D01*
X92367842Y-93193955D01*
X92496541Y-93001344D01*
X92496543Y-93001341D01*
X92660341Y-92837543D01*
X92661642Y-92836674D01*
X92852955Y-92708842D01*
X93066973Y-92620193D01*
X93180574Y-92597596D01*
X93294173Y-92575000D01*
X93525827Y-92575000D01*
X93639426Y-92597596D01*
X93639426Y-92597596D01*
G37*
M02*
