M48
;DRILL file {KiCad (5.0.2)-1} date 29.12.2019 11:54:06
;FORMAT={-:-/ absolute / metric / decimal}
FMAT,2
METRIC,TZ
T1C0.400
T2C0.800
T3C1.000
T4C1.100
T5C1.500
T6C1.700
T7C2.700
%
G90
G05
T1
X85.706Y-121.941
X87.688Y-120.013
X89.7Y-125.642
X91.688Y-123.763
X101.45Y-128.041
X104.88Y-102.227
X109.99Y-106.337
X110.95Y-142.973
X113.262Y-105.021
X114.856Y-128.066
X124.47Y-142.753
X128.27Y-141.491
T2
X110.95Y-140.941
X110.95Y-148.561
X103.95Y-140.941
X103.95Y-148.561
X107.45Y-140.941
X107.45Y-148.561
X90.95Y-140.941
X90.95Y-148.561
X114.45Y-140.941
X114.45Y-148.561
X87.45Y-140.941
X87.45Y-148.561
X100.45Y-140.941
X100.45Y-148.561
T3
X83.45Y-130.071
X83.45Y-132.611
X83.45Y-135.151
X83.45Y-137.691
X130.688Y-99.573
X130.688Y-102.113
X130.688Y-104.653
X130.688Y-107.193
X130.688Y-109.733
X130.688Y-112.273
X130.688Y-114.813
X130.688Y-117.353
X130.688Y-119.893
X130.688Y-122.433
X130.688Y-124.973
X130.688Y-127.513
X130.688Y-130.053
X130.688Y-132.593
X130.688Y-135.133
X130.688Y-137.673
X130.688Y-140.213
X130.688Y-142.753
X130.688Y-145.293
X130.688Y-147.833
X133.228Y-99.573
X133.228Y-102.113
X133.228Y-104.653
X133.228Y-107.193
X133.228Y-109.733
X133.228Y-112.273
X133.228Y-114.813
X133.228Y-117.353
X133.228Y-119.893
X133.228Y-122.433
X133.228Y-124.973
X133.228Y-127.513
X133.228Y-130.053
X133.228Y-132.593
X133.228Y-135.133
X133.228Y-137.673
X133.228Y-140.213
X133.228Y-142.753
X133.228Y-145.293
X133.228Y-147.833
X103.64Y-104.813
X106.18Y-104.813
X108.72Y-104.813
X111.26Y-104.813
T4
X93.95Y-133.191
X93.95Y-137.691
X100.45Y-133.191
X100.45Y-137.691
X122.95Y-107.791
X122.95Y-114.291
X127.45Y-107.791
X127.45Y-114.291
X114.45Y-133.191
X114.45Y-137.691
X120.95Y-133.191
X120.95Y-137.691
X122.95Y-117.691
X122.95Y-124.191
X127.45Y-117.691
X127.45Y-124.191
X104.16Y-133.191
X104.16Y-137.691
X110.66Y-133.191
X110.66Y-137.691
T5
X95.95Y-96.291
X95.95Y-128.313
X118.95Y-128.313
T6
X93.41Y-93.751
X93.41Y-98.831
X98.49Y-93.751
X98.49Y-98.831
T7
X82.95Y-94.707
X108.909Y-152.691
X131.95Y-94.707
X108.96Y-94.687
X82.903Y-152.691
X131.95Y-152.691
T0
M30
